<?xml version="1.0" encoding="utf-8"?>
<!-- Generator: Adobe Illustrator 22.1.0, SVG Export Plug-In . SVG Version: 6.00 Build 0)  -->
<svg version="1.1"
	 id="Layer_1" inkscape:version="0.91 r13725" sodipodi:docname="icons_ballardCenter.svg" xmlns:cc="http://creativecommons.org/ns#" xmlns:dc="http://purl.org/dc/elements/1.1/" xmlns:inkscape="http://www.inkscape.org/namespaces/inkscape" xmlns:rdf="http://www.w3.org/1999/02/22-rdf-syntax-ns#" xmlns:sodipodi="http://sodipodi.sourceforge.net/DTD/sodipodi-0.dtd" xmlns:svg="http://www.w3.org/2000/svg"
	 xmlns="http://www.w3.org/2000/svg" xmlns:xlink="http://www.w3.org/1999/xlink" x="0px" y="0px" viewBox="0 0 261 146.8"
	 style="enable-background:new 0 0 261 146.8;" xml:space="preserve">
<style type="text/css">
	.st0{fill:#FFFFFF;}
</style>
<sodipodi:namedview  bordercolor="#666666" borderopacity="1" fit-margin-bottom="0" fit-margin-left="0" fit-margin-right="0" fit-margin-top="0" gridtolerance="10" guidetolerance="10" id="namedview41" inkscape:current-layer="Layer_1" inkscape:cx="85.691874" inkscape:cy="21.8518" inkscape:pageopacity="0" inkscape:pageshadow="2" inkscape:window-height="480" inkscape:window-width="640" inkscape:zoom="3.3548241" objecttolerance="10" pagecolor="#ffffff" showgrid="false">
	</sodipodi:namedview>
<g id="g3_1_" transform="matrix(0.25657473,0,0,0.25657473,46.533715,111.14208)">
	<path id="path5_1_" inkscape:connector-curvature="0" class="st0" d="M224.5-283.5h40.1c18,0,29.1,9.9,29.1,32
		c0,17.3-7.1,26.5-16.6,29.2v0.7c10.7,2.9,17.3,12.7,17.3,28.1c0,24.1-11.8,35.4-28.7,35.4h-41.2C224.5-158,224.5-283.5,224.5-283.5
		z M258.1-231.3c7.1,0,10.9-5.3,10.9-16.9c0-10.6-3.8-15.3-9.7-15.3H249v32.2H258.1z M259.3-178.2c6.7,0,10-6.1,10-16.7
		c0-11.4-4-16.2-10.9-16.2h-9.3v32.9H259.3z"/>
	<path id="path7_1_" inkscape:connector-curvature="0" class="st0" d="M327.1-283.6H361l24.5,125.8h-25.2l-5.2-28.1h-25.5l-5.2,28.1
		h-22.8C301.6-157.9,327.1-283.6,327.1-283.6z M351.1-206.2l-8.2-49.4h-0.6l-8.6,49.4H351.1z"/>
	<polygon id="polygon9_1_" class="st0" points="457.1,-157.9 396.5,-157.9 396.5,-283.5 421.1,-283.5 421.1,-179.2 457.1,-179.2 	
		"/>
	<polygon id="polygon11_1_" class="st0" points="529.2,-157.9 468.6,-157.9 468.6,-283.5 493.3,-283.5 493.3,-179.2 529.2,-179.2 	
		"/>
	<path id="path13_1_" inkscape:connector-curvature="0" class="st0" d="M563.2-283.6h33.8l24.5,125.8h-25.2l-5.2-28.1h-25.5
		l-5.2,28.1h-22.8L563.2-283.6L563.2-283.6z M587.2-206.2l-8.2-49.4h-0.6l-8.6,49.4H587.2L587.2-206.2z"/>
	<path id="path15_1_" inkscape:connector-curvature="0" class="st0" d="M632.6-283.5h36.1c21.2,0,34,11.6,34,37.2
		c0,18.1-5.8,28.4-14.6,33.1l16.2,55.3h-25.6l-12.8-49.9h-8.2v49.9h-24.9L632.6-283.5L632.6-283.5z M666.6-226.3
		c7.1,0,11.3-4.9,11.3-18.5c0-11.8-3.8-18.1-11.4-18.1h-8.9v36.6H666.6L666.6-226.3z"/>
	<path id="path17_1_" inkscape:connector-curvature="0" class="st0" d="M716.4-283.5h36.2c19.2,0,34.4,9.9,34.4,30.2v63.5
		c0,21.9-15.2,31.9-34.5,31.9h-36.1V-283.5z M750.4-179.2c8.5,0,11.4-6,11.4-12v-59.7c0-6.5-3.8-11.4-11.8-11.4h-9.1v83.1H750.4z"/>
	<path id="path19_1_" inkscape:connector-curvature="0" class="st0" d="M225.3-32.9v-72.4c0-17.4,12.1-28.7,30.6-28.7
		c17.5,0,28.6,10.7,28.6,25.5v14.2h-13.1v-12.1c0-8.9-5.3-15.2-15.7-15.2c-11.4,0-15.9,7.4-15.9,16.7v70.2
		c0,11.3,6.1,16.9,16.2,16.9s15.3-6.7,15.3-14.9v-12.1h13.1v13.1c0,16.2-11.3,27.2-28.6,27.2C237.6-4.7,225.3-14.7,225.3-32.9"/>
	<polygon id="polygon21_1_" class="st0" points="316.5,-78.3 344.8,-78.3 344.8,-65.8 316.5,-65.8 316.5,-19.2 352.1,-19.2 
		352.1,-6.5 302.1,-6.5 302.1,-132 351.9,-132 351.9,-119.7 316.5,-119.7 	"/>
	<polygon id="polygon23_1_" class="st0" points="417.1,-132 429.8,-132 429.8,-6.5 416.4,-6.5 382.1,-102.9 381.6,-102.9 
		381.6,-6.5 368.8,-6.5 368.8,-132 384.5,-132 416.7,-43.2 417.1,-43.2 	"/>
	<polygon id="polygon25_1_" class="st0" points="506.4,-119.7 482.4,-119.7 482.4,-6.5 467.9,-6.5 467.9,-119.7 444,-119.7 
		444,-132 506.4,-132 	"/>
	<polygon id="polygon27_1_" class="st0" points="534.8,-78.3 563.2,-78.3 563.2,-65.8 534.8,-65.8 534.8,-19.2 570.4,-19.2 
		570.4,-6.5 520.4,-6.5 520.4,-132 570.3,-132 570.3,-119.7 534.8,-119.7 	"/>
	<path id="path29_1_" inkscape:connector-curvature="0" class="st0" d="M587.2-132h27.6c19.9,0,29.8,12.7,29.8,34.8
		c0,17.8-6.5,29.2-16.7,32.6l18,58.1H631l-16.7-54.7h-12.5v54.7h-14.6L587.2-132L587.2-132z M614.5-72.5c10.4,0,15.5-8.4,15.5-23.4
		c0-12.4-3.8-23.8-16-23.8h-12.1v47.2H614.5L614.5-72.5z"/>
	<path id="path31_1_" inkscape:connector-curvature="0" class="st0" d="M128.8-84.9c0-36.8-30.8-50-63.5-50h-80.8v23.8h80.8
		c23.5,0,34.4,9.3,34.4,26.2c0,18.8-20.5,26.7-53.2,31.8v28.4C88.1-28.9,128.8-46.2,128.8-84.9 M13.3-52.4
		c-26.2,0-37.7-3.9-37.7-13.5v-144.8c0-7.2,14.9-12,37.7-12v-28.4c-40.7,0-65.2,13.2-65.2,38.4V-63c0,22.8,19.5,38.3,65.2,38.3
		V-52.4z M46.5-221.1c15.6,0.3,42.6,4,42.6,25.8c0,18.8-14.6,26.5-32.5,26.5h-72.1v23.5h75.8c35.1,0,57.2-14.9,57.2-50
		c0-40.7-41.6-54.9-71.2-54.3v28.6H46.5z M159.2-44.2c-4.6-4.3-12-7.7-16.9-1.9C103.6-12.7,75.5,5.5,27.1,5.5
		c-71.7,0-125.8-41.6-137.9-109.9c-0.7-3.3,0-6.7,6.7-6.7h43.3v-24.4h-43.3c-29.1,0-37.3,17.8-35.1,32.5
		C-127.6-7.5-43.9,33.4,27.3,33.4c50.3,0,96-21.2,134.3-59.6C167.1-32,165.2-38.9,159.2-44.2 M161.5-259.1
		c-37.3-39.4-79.7-60.6-134.3-60.6c-71.2,0-154.2,39.4-166.4,141.9c-2.4,18.5,5.6,31.8,35.1,31.8h43.3v-22.8h-43.3
		c-6.3,0-7.9-2.9-7-9.6C-99.1-257.9-30.7-292,27.3-292c48.3,0,83.7,17.8,113.8,52.2c6,5.6,12.3,3.3,18.2-1.7
		C164.9-247.3,167.1-253.6,161.5-259.1"/>
	<path id="path33_1_" inkscape:connector-curvature="0" class="st0" d="M22.1-102.7v98.9c0,0,2.9,1,7.2,1c4.3,0,7.9-1,7.9-1v-98.9
		H22.1z"/>
	<path id="path35_1_" inkscape:connector-curvature="0" class="st0" d="M37.4,56.1V40.9c-3.6,0.3-3.6,0.3-7.2,0.3
		c-3.6,0-4.3,0-7.9-0.3v15.2c-4,1.9-5.3,4.6-5.3,7.2c0,6.3,5.3,10.6,13,10.6s13-4.3,13-10.6C42.7,60.7,42,58.4,37.4,56.1"/>
	<path id="path37_1_" inkscape:connector-curvature="0" class="st0" d="M43.3-350.8c0-5.6-4-9.6-13.2-9.6s-13.5,3.9-13.5,9.6
		c0,3.3,1.4,6.7,5.6,8.2v15.2c0,0,3.3-0.7,7.2-0.7s7.9,0.7,7.9,0.7v-15.2C42.3-344.2,43.3-347.4,43.3-350.8"/>
	<path id="path39_1_" inkscape:connector-curvature="0" class="st0" d="M30.1-284.1c-4.6,0-7.9,0.7-7.9,0.7v106.1h15.2v-106.1
		C37.4-283.4,34.8-284.1,30.1-284.1"/>
</g>
</svg>
