<?xml version="1.0" encoding="utf-8"?>
<!-- Generator: Adobe Illustrator 22.1.0, SVG Export Plug-In . SVG Version: 6.00 Build 0)  -->
<svg version="1.1" id="Layer_1" xmlns="http://www.w3.org/2000/svg" xmlns:xlink="http://www.w3.org/1999/xlink" x="0px" y="0px"
	 viewBox="0 0 3264.3 1836.2" style="enable-background:new 0 0 3264.3 1836.2;" xml:space="preserve">
<style type="text/css">
	.st0{fill:#FFFFFF;}
	.st1{fill:#FFFFFF;stroke:#FFFFFF;stroke-width:0.4;}
	.st2{fill:#FFFFFF;stroke:#FFFFFF;stroke-width:0.25;}
</style>
<g>
	<g>
		<path class="st0" d="M753.8,425c61.5-2.8,120.9,40.1,120.9,128.1c0,155.5-238.5,325.4-259.5,341.9c-6.1,4.7-14.1,3.4-18.3,1.3
			c-4.8-2.4-10-6-15.8-15.3c-5.3-8.5-0.3-15.6,7.1-22.8c92.5-88.9,218.2-334.2,73.7-361.1c-14.9-2.8-14.9-27.5,2.3-42.3
			C671.7,448.4,693.3,427.7,753.8,425"/>
		<path class="st0" d="M22.1,1167.1c-8.2-10.9-0.1-17.4,10.7-21.4c39-14.9,88.2-33.5,94.5-39c45.6-389,386.4-580.8,423.7-606.5
			c5.5-3.7,14-8.5,20.9-10c7.6-1.7,17.2,0.7,25,4.5c6.9,3.4,10.5,13-4.8,31C411.2,738.4,366,981.2,367.1,980.2
			c-1.4,3.3,7.6,1.3,126.1-68.2c10.6-6.2,18.7-1.9,22,15.7c3.4,17.9,1.1,25.1-28.6,43c-95.7,57.7-134.2,71.8-134.5,75.1
			c-2.5,20.8-11.7,122.5,54.2,160.3c123.7,70.9,265.5-138.7,274.3-151.2c8.6-12.2,18.6-12.2,26.9-11c15.4,2.2,14.4,12.2,11,18.7
			c-97.1,185.4-272.1,256.7-390.8,256.7c-130.3,0-186.8-84.4-197.8-163.2c-14.6,6.1-30.9,12.4-57.9,21.5
			C52.1,1184.4,31.8,1177.9,22.1,1167.1"/>
		<path class="st1" d="M979,614.4v-53.6h9.6v8.2c6.5-6.6,13.5-9.9,21.7-9.9v9.6c-16.1,1.2-21.4,6.5-21.4,19.7v26H979L979,614.4z"/>
		<path class="st1" d="M1049.8,609.8c11,0,18.9-8.6,18.9-22.2c0-13.5-7.9-22.2-18.9-22.2c-10.8,0-18.8,8.5-18.8,22.2
			C1031.1,601.2,1039,609.8,1049.8,609.8 M1050,558.3c16.4,0,28.6,12.1,28.6,29.3s-12.2,29.3-28.6,29.3c-16.3,0-28.7-12-28.7-29.3
			C1021.3,570.3,1033.6,558.3,1050,558.3"/>
		<polygon class="st1" points="1097.7,529.5 1097.7,614.4 1107.6,614.4 1107.6,526.9 		"/>
		<polygon class="st1" points="1131.4,529.5 1131.4,614.4 1141.3,614.4 1141.3,526.9 		"/>
		<path class="st1" d="M1198.4,614.4v-53.6h9.6v10.8c6.5-8.2,14.3-12.3,22.3-12.3c12.1,0,18.9,7.4,18.9,21.9v33.2h-9.6v-31.9
			c0-9.9-3.3-14.7-11.5-14.7c-9.8,0-20.1,6.8-20.1,21.7v25L1198.4,614.4L1198.4,614.4z"/>
		<path class="st1" d="M1287.6,609c6,0,9.8-3.2,9.8-7.4c0-5.5-3.9-7-10.2-9.6l-5.1-2.1c-9.1-3.8-13.8-7.5-13.8-15.7
			c0-9.7,6.4-16,17.1-16c6.3,0,12.3,2,18.6,5.6l-2,8.4c-6.2-4.5-11.7-6.7-16.4-6.7c-5.2,0-8.4,2.9-8.4,6.9c0,5,3.2,6.5,10.7,9.4
			l4.3,1.7c10,3.9,14.6,8.6,14.6,16.7c0,10.1-7.3,16.7-19.2,16.7c-7.3,0-14.5-2.4-20.5-7l1.2-9C1275.5,606.4,1282.1,609,1287.6,609"
			/>
		<path class="st1" d="M1390.1,616.9c-16.7,0-28.3-12-28.3-28.6c0-18,11.6-30,29.9-30c6.6,0,12.7,1.6,19.2,4.7l-1.2,8.7
			c-6.3-3.5-12.2-5.4-17.9-5.4c-12.3,0-20.3,8.2-20.3,21.1c0,13.4,8.1,21.4,19.8,21.4c6.4,0,13.2-2.7,20.2-8.2l-1.3,10.5
			C1403.9,614.9,1397.1,616.9,1390.1,616.9"/>
		<path class="st1" d="M1453.8,565.4c-9.2,0-17.2,6.9-18.7,17.5l34.6-1.3C1469.3,571.6,1462.9,565.4,1453.8,565.4 M1474.8,609.2
			c-6.7,5.1-14.3,7.7-21.9,7.7c-16.2,0-27.8-11.5-27.8-27.5c0-18.4,12.8-31,29.2-31c14.6,0,24.3,9.3,24.3,25.2
			c0,0.7-0.1,1.4-0.1,2.3l-1.1,2.4l-42.9,1.5c1.1,12.3,7.8,19.2,18.9,19.2c7.1,0,14.2-3.2,21.9-9.4L1474.8,609.2z"/>
		<path class="st1" d="M1497,614.4v-53.6h9.6v10.8c6.5-8.2,14.3-12.3,22.3-12.3c12.1,0,18.9,7.4,18.9,21.9v33.2h-9.6v-31.9
			c0-9.9-3.3-14.7-11.5-14.7c-9.8,0-20.1,6.8-20.1,21.7v25L1497,614.4L1497,614.4z"/>
		<path class="st1" d="M1593.3,615.5h-13.7c-7.3-5.1-7.6-11.3-7.6-21.6v-25.5h-11.2v-7.7h11.2v-16.6l9.9-2.5v19.1h15v7.7h-15v24.3
			C1582,604.3,1582.8,610.2,1593.3,615.5"/>
		<path class="st1" d="M1636,565.4c-9.3,0-17.2,6.9-18.8,17.5l34.6-1.3C1651.5,571.6,1645.1,565.4,1636,565.4 M1657,609.2
			c-6.7,5.1-14.3,7.7-21.9,7.7c-16.2,0-27.8-11.5-27.8-27.5c0-18.4,12.8-31,29.2-31c14.7,0,24.3,9.3,24.3,25.2
			c0,0.7-0.1,1.4-0.1,2.3l-1.1,2.4l-42.9,1.5c1.1,12.3,7.8,19.2,18.9,19.2c7.1,0,14.3-3.2,22-9.4L1657,609.2z"/>
		<path class="st1" d="M1679.1,614.4v-53.6h9.6v8.2c6.4-6.6,13.5-9.9,21.7-9.9v9.6c-16.1,1.2-21.4,6.5-21.4,19.7v26H1679.1
			L1679.1,614.4z"/>
		<path class="st1" d="M1766.2,614.4v-45.9H1755v-7.7h11.2v-9c0-11,3.8-18.4,11.8-23l14.5-1.8v4.4c-13.2,2.2-16.5,9-16.5,22.9v6.6
			h15v7.7h-15v45.9L1766.2,614.4L1766.2,614.4z"/>
		<path class="st1" d="M1829.7,609.8c11,0,18.9-8.6,18.9-22.2c0-13.5-7.9-22.2-18.9-22.2c-10.9,0-18.8,8.5-18.8,22.2
			C1810.9,601.2,1818.8,609.8,1829.7,609.8 M1829.8,558.3c16.5,0,28.6,12.1,28.6,29.3s-12.2,29.3-28.6,29.3
			c-16.3,0-28.7-12-28.7-29.3C1801.2,570.3,1813.5,558.3,1829.8,558.3"/>
		<path class="st1" d="M1877.2,614.4v-53.6h9.6v8.2c6.5-6.6,13.5-9.9,21.7-9.9v9.6c-16.1,1.2-21.5,6.5-21.5,19.7v26H1877.2
			L1877.2,614.4z"/>
		<path class="st1" d="M1165,614.4v-53.6l9.9-2.6v56.2L1165,614.4L1165,614.4z M1169.9,527.3c4,0,7.2,3.1,7.2,7.2s-3.2,7.1-7.2,7.1
			c-3.9,0-7.1-3-7.1-7.1S1165.9,527.3,1169.9,527.3"/>
		<g>
			<path class="st1" d="M1193.5,1213.6c12,0,20-8.7,20-22.1c0-13-7.3-20.9-17.8-20.9c-5.6,0-10.7,2.4-16.1,7.3v32
				C1184.6,1212.3,1189.3,1213.6,1193.5,1213.6 M1170,1221.3v-87.5l9.6-2.6v38.1c4.6-3.5,10.2-6.1,18.4-6.1
				c14.2,0,25.3,11.3,25.3,28.1c0,17.8-11.8,29.8-29.7,29.8c-5.5,0-10.4-1.2-15.5-3.8L1170,1221.3z"/>
			<path class="st1" d="M1242.1,1218.7v-53.6h9.6v8.1c6.5-6.6,13.6-9.8,21.7-9.8v9.6c-16.1,1.2-21.4,6.4-21.4,19.7v26L1242.1,1218.7
				L1242.1,1218.7z"/>
			<path class="st1" d="M1359.5,1174.4c-5-2.4-9.6-3.6-13.9-3.6c-11.9,0-20,8.7-20,22.1c0,13.2,7.3,21,18.2,21c5,0,9.9-1.9,15.7-5
				L1359.5,1174.4L1359.5,1174.4z M1342.2,1221.1c-15.7,0-26.4-11.3-26.4-28.5c0-17.3,11.3-29.3,28.1-29.3c4.8,0,10.9,1.1,18.3,3
				l6.9-1.3v46.9c0,9.3-0.2,16.2-4,22.1c-4.4,6.7-12.7,10.7-23.6,10.7c-7.1,0-13.9-1.9-20.6-5.4l-1.6-11.7l7.2,4.7
				c3.2,2.1,9.5,4.2,15.4,4.2c11.2,0,17.7-5.7,17.7-16.2v-4.2C1353.8,1219.4,1348.2,1221.1,1342.2,1221.1"/>
			<path class="st1" d="M1392.5,1133.8l9.6-2.6v44.8c5.4-7.9,13.9-12.4,22.3-12.4c11.9,0,18.9,7.4,18.9,21.9v33.2h-9.6v-31.9
				c0-9.9-3.3-14.8-11.5-14.8c-9.7,0-20.1,6.9-20.1,21.7v25h-9.6L1392.5,1133.8L1392.5,1133.8z"/>
			<path class="st1" d="M1504.7,1174.4c-5-2.4-9.6-3.6-13.9-3.6c-12,0-20,8.7-20,22.1c0,13.2,7.3,20.9,18.1,20.9c5,0,9.9-1.9,15.7-5
				L1504.7,1174.4L1504.7,1174.4z M1506.9,1221.3c-0.7-1.8-1.1-3.8-1.4-5.8c-6.5,3.7-12.4,5.6-18.4,5.6c-15.2,0-26.1-11.5-26.1-28.5
				c0-17.5,11.2-29.2,28.7-29.2c4.8,0,9.6,1,15,2.7l9.6-1v41.7c0,4.2,0.5,8.1,1.1,11.9L1506.9,1221.3z"/>
			<path class="st1" d="M1537.7,1218.7v-53.6h9.4v10.7c6.4-8,13.3-12.2,20.9-12.2c8.1,0,14.1,4.5,16.7,12.4
				c7-8.2,13.6-12.4,21.5-12.4c11.6,0,17.3,7.3,17.3,21.9v33.2h-9.5v-31.9c0-9.9-2.9-14.7-10.7-14.7c-8.6,0-18,6.7-18,21.6v25h-9.3
				v-31.9c0-9.9-3-14.7-10.7-14.7c-8.6,0-18.1,6.7-18.1,21.6v25H1537.7L1537.7,1218.7z"/>
			<path class="st1" d="M1688.1,1165.1l16.1,42.1l17.7-42.1h8.3l-25.6,59.1c-3.3,7.4-6.4,14.4-9.8,20.5h-10.6
				c5.6-5.9,8.9-12.2,11.9-18.8l3.4-7.4l-21.8-53.4L1688.1,1165.1L1688.1,1165.1z"/>
			<path class="st1" d="M1768.1,1214c11,0,18.9-8.6,18.9-22.1s-7.9-22.2-18.9-22.2c-10.8,0-18.7,8.5-18.7,22.2
				C1749.4,1205.5,1757.3,1214,1768.1,1214 M1768.3,1162.6c16.5,0,28.7,12.1,28.7,29.2s-12.2,29.2-28.7,29.2
				c-16.3,0-28.6-12.1-28.6-29.2C1739.6,1174.6,1752,1162.6,1768.3,1162.6"/>
			<path class="st1" d="M1824.8,1165.1v33.1c0,9.9,3.2,14.6,11.5,14.6c9.7,0,20.1-6.8,20.1-21.7V1165h9.6v53.6l-8.8,2.6l-0.6-12.1
				c-6.9,8-14.5,12.1-22.5,12.1c-12.1,0-18.9-7.5-18.9-22V1165L1824.8,1165.1L1824.8,1165.1z"/>
			<path class="st1" d="M1888.7,1218.7v-53.6h9.6v10.8c6.5-8.1,14.3-12.3,22.3-12.3c12.1,0,18.9,7.4,18.9,21.9v33.2h-9.6v-31.9
				c0-9.9-3.3-14.8-11.5-14.8c-9.8,0-20.1,6.9-20.1,21.7v25L1888.7,1218.7L1888.7,1218.7z"/>
			<path class="st1" d="M2000.8,1174.4c-5-2.4-9.6-3.6-13.9-3.6c-11.9,0-20,8.7-20,22.1c0,13.2,7.3,21,18.2,21c4.9,0,9.8-1.9,15.7-5
				L2000.8,1174.4L2000.8,1174.4z M1983.5,1221.1c-15.7,0-26.4-11.3-26.4-28.5c0-17.3,11.3-29.3,28.1-29.3c4.8,0,10.9,1.1,18.3,3
				l7-1.3v46.9c0,9.3-0.2,16.2-4,22.1c-4.4,6.7-12.7,10.7-23.7,10.7c-7,0-13.8-1.9-20.6-5.4l-1.6-11.7l7.2,4.7
				c3.2,2.1,9.5,4.2,15.3,4.2c11.3,0,17.7-5.7,17.7-16.2v-4.2C1995.1,1219.4,1989.5,1221.1,1983.5,1221.1"/>
			<path class="st1" d="M2083.3,1165.1v33.1c0,9.9,3.3,14.6,11.5,14.6c9.8,0,20.1-6.8,20.1-21.7V1165h9.6v53.6l-8.8,2.6l-0.6-12.1
				c-6.9,8-14.5,12.1-22.5,12.1c-12.1,0-18.9-7.5-18.9-22V1165L2083.3,1165.1L2083.3,1165.1z"/>
			<path class="st1" d="M2147.2,1218.7v-53.6h9.6v10.8c6.4-8.1,14.3-12.3,22.3-12.3c12.1,0,18.9,7.4,18.9,21.9v33.2h-9.6v-31.9
				c0-9.9-3.3-14.8-11.5-14.8c-9.8,0-20.1,6.9-20.1,21.7v25L2147.2,1218.7L2147.2,1218.7z"/>
		</g>
		<polygon class="st1" points="2244.8,1165.1 2255.4,1165.1 2271.5,1203.6 2288.9,1165.1 2297.2,1165.1 2271.4,1221.3 
			2269.3,1221.3 		"/>
		<g>
			<path class="st1" d="M2335.7,1169.7c-9.2,0-17.2,7-18.8,17.5l34.7-1.3C2351.2,1175.9,2344.8,1169.7,2335.7,1169.7 M2356.7,1213.4
				c-6.7,5.1-14.3,7.7-21.9,7.7c-16.2,0-27.8-11.5-27.8-27.5c0-18.4,12.8-31,29.3-31c14.7,0,24.3,9.3,24.3,25.2
				c0,0.7-0.1,1.5-0.1,2.4l-1.1,2.4l-42.9,1.4c1.1,12.3,7.8,19.2,18.9,19.2c7.1,0,14.3-3.2,22-9.4L2356.7,1213.4z"/>
			<path class="st1" d="M2378.8,1218.7v-53.6h9.6v8.1c6.4-6.6,13.5-9.8,21.7-9.8v9.6c-16.1,1.2-21.5,6.4-21.5,19.7v26L2378.8,1218.7
				L2378.8,1218.7z"/>
			<path class="st1" d="M2439.6,1213.3c6,0,9.8-3.2,9.8-7.5c0-5.5-3.9-6.9-10.2-9.6l-5.1-2.1c-9.2-3.8-13.8-7.4-13.8-15.7
				c0-9.8,6.5-16,17-16c6.4,0,12.3,1.9,18.6,5.6l-1.9,8.4c-6.2-4.5-11.7-6.7-16.5-6.7c-5.2,0-8.4,2.9-8.4,6.9c0,5,3.2,6.5,10.7,9.3
				l4.3,1.7c10,3.9,14.6,8.6,14.6,16.7c0,10.1-7.3,16.7-19.2,16.7c-7.3,0-14.5-2.4-20.5-7l1.2-9
				C2427.5,1210.6,2434.1,1213.3,2439.6,1213.3"/>
			<path class="st1" d="M2534.7,1219.8h-13.6c-7.3-5.1-7.6-11.3-7.6-21.6v-25.5h-11.2v-7.6h11.2v-16.6l9.9-2.6v19.2h15v7.6h-15v24.3
				C2523.4,1208.5,2524.3,1214.4,2534.7,1219.8"/>
			<path class="st1" d="M2554.3,1165.1l16.1,42.1l17.6-42.1h8.3l-25.6,59.1c-3.3,7.4-6.3,14.4-9.7,20.5h-10.6
				c5.6-5.9,8.9-12.2,11.9-18.8l3.4-7.4l-21.8-53.4L2554.3,1165.1L2554.3,1165.1z"/>
			<path class="st1" d="M1286.9,1218.7v-53.6l9.9-2.6v56.2H1286.9L1286.9,1218.7z M1291.7,1131.5c4.1,0,7.2,3.2,7.2,7.2
				s-3.2,7.1-7.2,7.1c-3.9,0-7.1-3.1-7.1-7.1C1284.7,1134.7,1287.7,1131.5,1291.7,1131.5"/>
			<path class="st1" d="M2220.3,1218.7v-53.6l9.9-2.6v56.2H2220.3L2220.3,1218.7z M2225.2,1131.5c4,0,7.2,3.2,7.2,7.2
				s-3.2,7.1-7.2,7.1c-3.9,0-7.1-3.1-7.1-7.1S2221.2,1131.5,2225.2,1131.5"/>
			<path class="st1" d="M2477.9,1218.7v-53.6l9.9-2.6v56.2H2477.9L2477.9,1218.7z M2482.8,1131.5c4,0,7.2,3.2,7.2,7.2
				s-3.2,7.1-7.2,7.1c-3.9,0-7.1-3.1-7.1-7.1S2478.8,1131.5,2482.8,1131.5"/>
		</g>
		<polygon class="st2" points="979,690.4 1061.6,690.4 1061.6,705.5 996.4,705.5 996.4,754.6 1052.6,754.6 1052.6,769.8 
			996.4,769.8 996.4,824.6 1062.4,824.6 1062.4,840.8 979,840.8 		"/>
		<polygon class="st2" points="1108.7,685.6 1111,685.6 1211.6,803.2 1211.6,690.4 1229,690.4 1229,845.6 1226.7,845.6 1126.1,728 
			1126.1,840.8 1108.7,840.8 		"/>
		<polygon class="st2" points="1316.1,706.6 1263,706.6 1263,690.4 1387.2,690.4 1387.2,706.6 1334.1,706.6 1334.1,840.8 
			1316.1,840.8 		"/>
		<g>
			<path class="st2" d="M1454.1,765.2c30.1,0,45.4-11,45.4-30.6c0-21.4-16.4-29.5-48.4-29.5h-12.3v60.1H1454.1L1454.1,765.2z
				 M1421.1,690.4h31.9c43.1,0,64.3,15.9,64.3,43.7c0,21.2-14.9,38.4-39.3,42.5l54.5,64.1H1510l-52.4-61.8h-18.9v61.8h-17.5
				L1421.1,690.4L1421.1,690.4z"/>
		</g>
		<polygon class="st2" points="1568,690.4 1650.6,690.4 1650.6,705.5 1585.5,705.5 1585.5,754.6 1641.7,754.6 1641.7,769.8 
			1585.5,769.8 1585.5,824.6 1651.5,824.6 1651.5,840.8 1568,840.8 		"/>
		<g>
			<path class="st2" d="M1730.6,767.3c30.2,0,45.4-11.5,45.4-31.6c0-22.1-16.1-30.6-48.4-30.6h-12.3v62.2L1730.6,767.3L1730.6,767.3
				z M1697.8,690.4h31.8c19.3,0,34.2,1.7,46.9,10.9c11.2,8.1,17.4,20.6,17.4,33.5c0,29.3-22.1,47.6-63.9,47.6c-1.5,0-6.4,0-14.7-0.2
				v58.6h-17.6L1697.8,690.4L1697.8,690.4z"/>
			<path class="st2" d="M1865.2,765.2c30.2,0,45.5-11,45.5-30.6c0-21.4-16.4-29.5-48.4-29.5H1850v60.1H1865.2L1865.2,765.2z
				 M1832.3,690.4h31.9c43.1,0,64.3,15.9,64.3,43.7c0,21.2-14.9,38.4-39.3,42.5l54.5,64.1h-22.5l-52.4-61.8h-18.9v61.8h-17.6V690.4
				L1832.3,690.4z"/>
		</g>
		<polygon class="st2" points="1979.2,690.4 2061.8,690.4 2061.8,705.5 1996.6,705.5 1996.6,754.6 2052.9,754.6 2052.9,769.8 
			1996.6,769.8 1996.6,824.6 2062.6,824.6 2062.6,840.8 1979.2,840.8 		"/>
		<polygon class="st2" points="2108.9,685.6 2111.2,685.6 2211.9,803.2 2211.9,690.4 2229.3,690.4 2229.3,845.6 2227,845.6 
			2126.4,728 2126.4,840.8 2108.9,840.8 		"/>
		<polygon class="st2" points="2282.4,690.4 2364.9,690.4 2364.9,705.5 2299.8,705.5 2299.8,754.6 2356,754.6 2356,769.8 
			2299.8,769.8 2299.8,824.6 2365.8,824.6 2365.8,840.8 2282.4,840.8 		"/>
		<g>
			<path class="st2" d="M2428.2,778.3c0,33.8,14.7,50.8,42.3,50.8c27.2,0,41.8-17.2,41.8-51.4v-87.2h16.2v90.3
				c0,42-23.4,64.9-57.9,64.9c-37.6,0-60.1-22.5-60.1-64.5v-90.6h17.8v87.7H2428.2z"/>
			<path class="st2" d="M2612.5,765.2c30.1,0,45.4-11,45.4-30.6c0-21.4-16.4-29.5-48.4-29.5h-12.3v60.1H2612.5L2612.5,765.2z
				 M2579.5,690.4h31.9c43.1,0,64.3,15.9,64.3,43.7c0,21.2-14.9,38.4-39.3,42.5l54.6,64.1h-22.5l-52.4-61.8h-18.9v61.8h-17.6
				L2579.5,690.4L2579.5,690.4z"/>
			<path class="st2" d="M2761.3,829.5c19.3,0,31.6-11.1,31.6-26.7c0-15.5-11.1-23.3-29.8-31.8l-10.4-4.7
				c-22.3-10.2-33.5-24.4-33.5-42.4c0-21.9,17.3-38.2,43.5-38.2c13.6,0,26.1,4.2,35.8,10.2V715c-12.7-9.6-24.6-14.2-36.7-14.2
				c-16.1,0-26.4,9.3-26.4,22.3c0,12.7,9.3,21.2,28.2,29.5l10.6,4.7c23.6,10.4,35.7,26.3,35.7,45.6c0,24.8-19.3,43.1-48.2,43.1
				c-13.4,0-27.8-3.8-42.9-11.4l-1.5-21C2734.1,823.6,2747.7,829.5,2761.3,829.5"/>
		</g>
		<polygon class="st2" points="2854.3,690.4 2871.9,690.4 2871.9,753.3 2955.5,753.3 2955.5,690.4 2973.1,690.4 2973.1,840.8 
			2955.5,840.8 2955.5,769.4 2871.9,769.4 2871.9,840.8 2854.3,840.8 		"/>
		<rect x="3026.4" y="690.4" class="st2" width="17.8" height="150.3"/>
		<g>
			<path class="st2" d="M3130.7,767.3c30.1,0,45.4-11.5,45.4-31.6c0-22.1-16.1-30.6-48.4-30.6h-12.3v62.2L3130.7,767.3L3130.7,767.3
				z M3097.7,690.4h31.9c19.3,0,34.1,1.7,46.9,10.9c11.3,8.1,17.4,20.6,17.4,33.5c0,29.3-22.1,47.6-63.9,47.6c-1.4,0-6.4,0-14.6-0.2
				v58.6h-17.6L3097.7,690.4L3097.7,690.4z"/>
		</g>
		<polygon class="st2" points="1170,946.7 1116.9,946.7 1116.9,930.5 1241.1,930.5 1241.1,946.7 1188,946.7 1188,1080.8 
			1170,1080.8 		"/>
		<polygon class="st2" points="1275.1,930.5 1357.7,930.5 1357.7,945.6 1292.5,945.6 1292.5,994.6 1348.7,994.6 1348.7,1009.9 
			1292.5,1009.9 1292.5,1064.7 1358.5,1064.7 1358.5,1080.8 1275.1,1080.8 		"/>
		<g>
			<path class="st2" d="M1468.7,1085.7c-17.2,0-33.3-5.7-46.2-16.4c-18.5-14.8-28.9-37.6-28.9-63.7c0-46.3,32.7-80.2,75.8-80.2
				c15.7,0,30.2,4.7,43.9,14.2l-1.9,18.7c-13.4-11.3-26.7-16.8-41.8-16.8c-33.3,0-57.9,26.8-57.9,64.1c0,36.8,24,63.5,57.3,63.5
				c16.3,0,31-6.4,46-19.1l-1.5,21C1500.3,1080.6,1485,1085.7,1468.7,1085.7"/>
		</g>
		<polygon class="st2" points="1555.1,930.5 1572.7,930.5 1572.7,993.4 1656.3,993.4 1656.3,930.5 1674,930.5 1674,1080.8 
			1656.3,1080.8 1656.3,1009.5 1572.7,1009.5 1572.7,1080.8 1555.1,1080.8 		"/>
		<polygon class="st2" points="1727.1,925.7 1729.4,925.7 1830,1043.2 1830,930.5 1847.4,930.5 1847.4,1085.7 1845.1,1085.7 
			1744.4,968.1 1744.4,1080.8 1727.1,1080.8 		"/>
		<g>
			<path class="st2" d="M1962.8,1069.1c31,0,55.4-26.5,55.4-63.4c0-37-24.4-63.5-55.4-63.5s-55.6,26.8-55.6,63.5
				C1907.3,1042.2,1931.9,1069.1,1962.8,1069.1 M1910.8,948.4c13.8-14.7,32.5-22.7,52-22.7s38,8.1,52,22.9
				c14,15,21.6,34.8,21.6,57.1c0,18.7-5.1,35.4-15,49.2c-14,19.6-35.9,30.8-58.6,30.8c-19.3,0-38.2-8.3-52-22.9
				c-14.2-15.3-21.6-34.6-21.6-57.1S1896.6,963.6,1910.8,948.4"/>
		</g>
		<polygon class="st2" points="2078.3,930.5 2096.2,930.5 2096.2,1064.7 2166.9,1064.7 2166.9,1080.8 2078.3,1080.8 		"/>
		<g>
			<path class="st2" d="M2250.8,1069.1c31,0,55.4-26.5,55.4-63.4c0-37-24.4-63.5-55.4-63.5s-55.6,26.8-55.6,63.5
				C2195.2,1042.2,2219.7,1069.1,2250.8,1069.1 M2198.7,948.4c13.8-14.7,32.5-22.7,52-22.7c19.6,0,38,8.1,52,22.9
				c14,15,21.7,34.8,21.7,57.1c0,18.7-5.1,35.4-15.1,49.2c-14,19.6-35.9,30.8-58.6,30.8c-19.3,0-38.2-8.3-52-22.9
				c-14.1-15.3-21.6-34.6-21.6-57.1C2177.1,983.2,2184.6,963.6,2198.7,948.4"/>
			<path class="st2" d="M2432.7,1085.9c-45.4,0-77.7-33.7-77.7-80.2c0-46.7,32.9-80.4,78.6-80.4c17.2,0,33.5,4.2,48.3,12.9l-1,19.1
				c-16.5-11.1-31.6-16.8-47.3-16.8c-34.4,0-60.5,27-60.5,65.2c0,36.9,23.8,63.5,59.3,63.5c12.7,0,25-3.4,38.4-10v-38.6h-45.3v-15.5
				h63.1v65.4C2468.4,1080.4,2450.3,1085.9,2432.7,1085.9"/>
		</g>
		<polygon class="st2" points="2563.4,1016.1 2505.4,930.5 2526.2,930.5 2572.9,999.5 2623.2,930.5 2643,930.5 2581.2,1014.6 
			2581.2,1080.8 2563.4,1080.8 		"/>
		<g>
			<path class="st2" d="M1031.9,955.6c0-5.8-4.5-10.2-10.5-10.2c-5.8,0-10.3,3.9-10.3,9.2c0,3.1,1.5,5.7,3.9,8.8l5.1,6.9
				C1028.1,965.7,1031.9,961.4,1031.9,955.6 M1013.7,990.9c-9.4,6-14.2,12.1-14.2,19.6c0,11.1,8.5,19.6,20,19.6
				c6.9,0,12.4-2.3,18.4-7L1013.7,990.9z M1047.4,1035.9c-8.2,6.4-17.8,9.4-28.7,9.4c-23,0-38-14.2-38-33.1
				c0-13.9,7.9-24.1,24.2-33.1c-6.6-9.1-10.6-16.2-10.6-23.3c0-13.3,10.9-23.5,26.6-23.5c15.6,0,26.5,10.3,26.5,24.2
				c0,9.7-6,17.8-18.3,25.4l21.2,27.8c3.7-6,6.6-12.1,8.8-18.7l14.4,4.4c-2.3,10.3-6.5,19.3-12.9,27.6l14.3,19H1052L1047.4,1035.9z"
				/>
		</g>
	</g>
</g>
</svg>
