<?xml version="1.0" encoding="UTF-8" standalone="no"?>
<!-- Generator: Adobe Illustrator 18.1.1, SVG Export Plug-In . SVG Version: 6.00 Build 0)  -->

<svg
   xmlns:dc="http://purl.org/dc/elements/1.1/"
   xmlns:cc="http://creativecommons.org/ns#"
   xmlns:rdf="http://www.w3.org/1999/02/22-rdf-syntax-ns#"
   xmlns:svg="http://www.w3.org/2000/svg"
   xmlns="http://www.w3.org/2000/svg"
   xmlns:sodipodi="http://sodipodi.sourceforge.net/DTD/sodipodi-0.dtd"
   xmlns:inkscape="http://www.inkscape.org/namespaces/inkscape"
   version="1.1"
   id="Layer_1"
   x="0px"
   y="0px"
   viewBox="62.6 149.5 170.69445 80.000003"
   enable-background="new 62.6 149.5 665.2 311.8"
   xml:space="preserve"
   inkscape:version="0.91 r13725"
   sodipodi:docname="icons_ballardCenter.svg"
   width="170.69446"
   height="80"><metadata
     id="metadata45"><rdf:RDF><cc:Work
         rdf:about=""><dc:format>image/svg+xml</dc:format><dc:type
           rdf:resource="http://purl.org/dc/dcmitype/StillImage" /><dc:title></dc:title></cc:Work></rdf:RDF></metadata><defs
     id="defs43" /><sodipodi:namedview
     pagecolor="#ffffff"
     bordercolor="#666666"
     borderopacity="1"
     objecttolerance="10"
     gridtolerance="10"
     guidetolerance="10"
     inkscape:pageopacity="0"
     inkscape:pageshadow="2"
     inkscape:window-width="640"
     inkscape:window-height="480"
     id="namedview41"
     showgrid="false"
     fit-margin-top="0"
     fit-margin-left="0"
     fit-margin-right="0"
     fit-margin-bottom="0"
     inkscape:zoom="3.3548241"
     inkscape:cx="85.691874"
     inkscape:cy="21.8518"
     inkscape:current-layer="Layer_1" /><g
     id="g3"
     transform="matrix(0.25657473,0,0,0.25657473,46.533715,111.14208)"><path
       d="m 324,204.7 28.8,0 c 12.9,0 20.9,7.1 20.9,23 0,12.4 -5.1,19 -11.9,21 l 0,0.5 c 7.7,2.1 12.4,9.1 12.4,20.2 0,17.3 -8.5,25.4 -20.6,25.4 l -29.6,0 0,-90.1 z m 24.1,37.5 c 5.1,0 7.8,-3.8 7.8,-12.1 0,-7.6 -2.7,-11 -7,-11 l -7.3,0 0,23.1 6.5,0 z m 0.9,38.1 c 4.8,0 7.2,-4.4 7.2,-12 0,-8.2 -2.9,-11.6 -7.8,-11.6 l -6.7,0 0,23.6 7.3,0 z"
       id="path5"
       inkscape:connector-curvature="0"
       style="fill:#5c5653" /><path
       d="m 397.7,204.6 24.3,0 17.6,90.3 -18.1,0 -3.7,-20.2 -18.3,0 -3.7,20.2 -16.4,0 18.3,-90.3 z m 17.2,55.6 -5.9,-35.5 -0.4,0 -6.2,35.5 12.5,0 z"
       id="path7"
       inkscape:connector-curvature="0"
       style="fill:#5c5653" /><polygon
       points="491,294.9 447.5,294.9 447.5,204.7 465.2,204.7 465.2,279.6 491,279.6 "
       id="polygon9"
       style="fill:#5c5653" /><polygon
       points="542.8,294.9 499.3,294.9 499.3,204.7 517,204.7 517,279.6 542.8,279.6 "
       id="polygon11"
       style="fill:#5c5653" /><path
       d="m 567.2,204.6 24.3,0 17.6,90.3 -18.1,0 -3.7,-20.2 -18.3,0 -3.7,20.2 -16.4,0 18.3,-90.3 z m 17.2,55.6 -5.9,-35.5 -0.4,0 -6.2,35.5 12.5,0 z"
       id="path13"
       inkscape:connector-curvature="0"
       style="fill:#5c5653" /><path
       d="m 617,204.7 25.9,0 c 15.2,0 24.4,8.3 24.4,26.7 0,13 -4.2,20.4 -10.5,23.8 l 11.6,39.7 -18.4,0 -9.2,-35.8 -5.9,0 0,35.8 -17.9,0 0,-90.2 z m 24.4,41.1 c 5.1,0 8.1,-3.5 8.1,-13.3 0,-8.5 -2.7,-13 -8.2,-13 l -6.4,0 0,26.3 6.5,0 z"
       id="path15"
       inkscape:connector-curvature="0"
       style="fill:#5c5653" /><path
       d="m 677.2,204.7 26,0 c 13.8,0 24.7,7.1 24.7,21.7 l 0,45.6 c 0,15.7 -10.9,22.9 -24.8,22.9 l -25.9,0 0,-90.2 z m 24.4,74.9 c 6.1,0 8.2,-4.3 8.2,-8.6 l 0,-42.9 c 0,-4.7 -2.7,-8.2 -8.5,-8.2 l -6.5,0 0,59.7 6.8,0 z"
       id="path17"
       inkscape:connector-curvature="0"
       style="fill:#5c5653" /><path
       d="m 324.6,384.6 0,-52 c 0,-12.5 8.7,-20.6 22,-20.6 12.6,0 20.5,7.7 20.5,18.3 l 0,10.2 -9.4,0 0,-8.7 c 0,-6.4 -3.8,-10.9 -11.3,-10.9 -8.2,0 -11.4,5.3 -11.4,12 l 0,50.4 c 0,8.1 4.4,12.1 11.6,12.1 7.2,0 11,-4.8 11,-10.7 l 0,-8.7 9.4,0 0,9.4 c 0,11.6 -8.1,19.5 -20.5,19.5 -13.1,0 -21.9,-7.2 -21.9,-20.3"
       id="path19"
       inkscape:connector-curvature="0"
       style="fill:#5c5653" /><polygon
       points="390.1,352 410.4,352 410.4,361 390.1,361 390.1,394.5 415.6,394.5 415.6,403.6 379.7,403.6 379.7,313.5 415.5,313.5 415.5,322.3 390.1,322.3 "
       id="polygon21"
       style="fill:#5c5653" /><polygon
       points="462.3,313.5 471.4,313.5 471.4,403.6 461.8,403.6 437.2,334.4 436.8,334.4 436.8,403.6 427.6,403.6 427.6,313.5 438.9,313.5 462,377.2 462.3,377.2 "
       id="polygon23"
       style="fill:#5c5653" /><polygon
       points="526.4,322.3 509.2,322.3 509.2,403.6 498.8,403.6 498.8,322.3 481.6,322.3 481.6,313.5 526.4,313.5 "
       id="polygon25"
       style="fill:#5c5653" /><polygon
       points="546.8,352 567.2,352 567.2,361 546.8,361 546.8,394.5 572.4,394.5 572.4,403.6 536.5,403.6 536.5,313.5 572.3,313.5 572.3,322.3 546.8,322.3 "
       id="polygon27"
       style="fill:#5c5653" /><path
       d="m 584.4,313.5 19.8,0 c 14.3,0 21.4,9.1 21.4,25 0,12.8 -4.7,21 -12,23.4 l 12.9,41.7 -10.6,0 -12,-39.3 -9,0 0,39.3 -10.5,0 0,-90.1 z m 19.6,42.7 c 7.5,0 11.1,-6 11.1,-16.8 0,-8.9 -2.7,-17.1 -11.5,-17.1 l -8.7,0 0,33.9 9.1,0 z"
       id="path29"
       inkscape:connector-curvature="0"
       style="fill:#5c5653" /><path
       d="m 255.3,347.3 c 0,-26.4 -22.1,-35.9 -45.6,-35.9 l -58,0 0,17.1 58,0 c 16.9,0 24.7,6.7 24.7,18.8 0,13.5 -14.7,19.2 -38.2,22.8 l 0,20.4 c 29.9,-3 59.1,-15.4 59.1,-43.2 m -82.9,23.3 c -18.8,0 -27.1,-2.8 -27.1,-9.7 l 0,-104 c 0,-5.2 10.7,-8.6 27.1,-8.6 l 0,-20.4 c -29.2,0 -46.8,9.5 -46.8,27.6 l 0,107.5 c 0,16.4 14,27.5 46.8,27.5 l 0,-19.9 z m 23.8,-121.1 c 11.2,0.2 30.6,2.9 30.6,18.5 0,13.5 -10.5,19 -23.3,19 l -51.8,0 0,16.9 54.4,0 c 25.2,0 41.1,-10.7 41.1,-35.9 0,-29.2 -29.9,-39.4 -51.1,-39 l 0,20.5 z m 80.9,127 c -3.3,-3.1 -8.6,-5.5 -12.1,-1.4 -27.8,24 -48,37.1 -82.7,37.1 -51.5,0 -90.3,-29.9 -99,-78.9 -0.5,-2.4 0,-4.8 4.8,-4.8 l 31.1,0 0,-17.5 -31.1,0 c -20.9,0 -26.8,12.8 -25.2,23.3 8.3,68.6 68.4,97.9 119.5,97.9 36.1,0 68.9,-15.2 96.4,-42.8 4,-4.1 2.6,-9.1 -1.7,-12.9 m 1.7,-154.3 C 252,193.9 221.6,178.7 182.4,178.7 131.3,178.7 71.7,207 62.9,280.6 c -1.7,13.3 4,22.8 25.2,22.8 l 31.1,0 0,-16.4 -31.1,0 c -4.5,0 -5.7,-2.1 -5,-6.9 8.6,-57 57.7,-81.5 99.3,-81.5 34.7,0 60.1,12.8 81.7,37.5 4.3,4 8.8,2.4 13.1,-1.2 4,-4.2 5.6,-8.7 1.6,-12.7"
       id="path31"
       inkscape:connector-curvature="0"
       style="fill:#56babf" /><path
       d="m 178.7,334.5 0,71 c 0,0 2.1,0.7 5.2,0.7 3.1,0 5.7,-0.7 5.7,-0.7 l 0,-71 -10.9,0 z"
       id="path33"
       inkscape:connector-curvature="0"
       style="fill:#5c5653" /><path
       d="m 189.7,448.5 0,-10.9 c -2.6,0.2 -2.6,0.2 -5.2,0.2 -2.6,0 -3.1,0 -5.7,-0.2 l 0,10.9 c -2.9,1.4 -3.8,3.3 -3.8,5.2 0,4.5 3.8,7.6 9.3,7.6 5.5,0 9.3,-3.1 9.3,-7.6 -0.1,-1.9 -0.6,-3.5 -3.9,-5.2"
       id="path35"
       inkscape:connector-curvature="0"
       style="fill:#5c5653" /><path
       d="m 193.9,156.4 c 0,-4 -2.9,-6.9 -9.5,-6.9 -6.6,0 -9.7,2.8 -9.7,6.9 0,2.4 1,4.8 4,5.9 l 0,10.9 c 0,0 2.4,-0.5 5.2,-0.5 2.8,0 5.7,0.5 5.7,0.5 l 0,-10.9 c 3.6,-1.2 4.3,-3.5 4.3,-5.9"
       id="path37"
       inkscape:connector-curvature="0"
       style="fill:#5c5653" /><path
       d="m 184.4,204.3 c -3.3,0 -5.7,0.5 -5.7,0.5 l 0,76.2 10.9,0 0,-76.2 c 0.1,0 -1.8,-0.5 -5.2,-0.5"
       id="path39"
       inkscape:connector-curvature="0"
       style="fill:#5c5653" /></g></svg>