<?xml version="1.0" encoding="utf-8"?>
<!-- Generator: Adobe Illustrator 18.1.1, SVG Export Plug-In . SVG Version: 6.00 Build 0)  -->
<svg version="1.1" id="Layer_1" xmlns="http://www.w3.org/2000/svg" xmlns:xlink="http://www.w3.org/1999/xlink" x="0px" y="0px"
	 viewBox="13.1 446.8 3176.3 896.9" enable-background="new 13.1 446.8 3176.3 896.9" xml:space="preserve" preserveAspectRatio="xMinYMid meet">
<g>
	<g>
		<path fill="#939598" d="M748.6,448.4c61.5-2.8,120.9,40.1,120.9,128.1C869.5,732,631,901.9,610,918.4c-6.1,4.7-14.1,3.4-18.3,1.3
			c-4.8-2.4-10-6-15.8-15.3c-5.3-8.5-0.3-15.6,7.1-22.8c92.5-88.9,218.2-334.2,73.7-361.1c-14.9-2.8-14.9-27.5,2.3-42.3
			C666.5,471.8,688.1,451.1,748.6,448.4"/>
		<path fill="#68B247" d="M16.9,1190.5c-8.2-10.9-0.1-17.4,10.7-21.4c39-14.9,88.2-33.5,94.5-39c45.6-389,386.4-580.8,423.7-606.5
			c5.5-3.7,14-8.5,20.9-10c7.6-1.7,17.2,0.7,25,4.5c6.9,3.4,10.5,13-4.8,31c-180.9,212.7-226.1,455.5-225,454.5
			c-1.4,3.3,7.6,1.3,126.1-68.2c10.6-6.2,18.7-1.9,22,15.7c3.4,17.9,1.1,25.1-28.6,43c-95.7,57.7-134.2,71.8-134.5,75.1
			c-2.5,20.8-11.7,122.5,54.2,160.3c123.7,70.9,265.5-138.7,274.3-151.2c8.6-12.2,18.6-12.2,26.9-11c15.4,2.2,14.4,12.2,11,18.7
			c-97.1,185.4-272.1,256.7-390.8,256.7c-130.3,0-186.8-84.4-197.8-163.2c-14.6,6.1-30.9,12.4-57.9,21.5
			C46.9,1207.8,26.6,1201.3,16.9,1190.5"/>
		<path fill="#939598" stroke="#939598" stroke-width="0.4" d="M973.8,637.8v-53.6h9.6v8.2c6.5-6.6,13.5-9.9,21.7-9.9v9.6
			c-16.1,1.2-21.4,6.5-21.4,19.7v26L973.8,637.8L973.8,637.8z"/>
		<path fill="#939598" stroke="#939598" stroke-width="0.4" d="M1044.6,633.2c11,0,18.9-8.6,18.9-22.2c0-13.5-7.9-22.2-18.9-22.2
			c-10.8,0-18.8,8.5-18.8,22.2C1025.9,624.6,1033.8,633.2,1044.6,633.2 M1044.8,581.7c16.4,0,28.6,12.1,28.6,29.3
			c0,17.2-12.2,29.3-28.6,29.3c-16.3,0-28.7-12-28.7-29.3C1016.1,593.7,1028.4,581.7,1044.8,581.7"/>
		<polygon fill="#939598" stroke="#939598" stroke-width="0.4" points="1092.5,552.9 1092.5,637.8 1102.4,637.8 1102.4,550.3 		"/>
		<polygon fill="#939598" stroke="#939598" stroke-width="0.4" points="1126.2,552.9 1126.2,637.8 1136.1,637.8 1136.1,550.3 		"/>
		<path fill="#939598" stroke="#939598" stroke-width="0.4" d="M1193.2,637.8v-53.6h9.6V595c6.5-8.2,14.3-12.3,22.3-12.3
			c12.1,0,18.9,7.4,18.9,21.9v33.2h-9.6v-31.9c0-9.9-3.3-14.7-11.5-14.7c-9.8,0-20.1,6.8-20.1,21.7v25L1193.2,637.8L1193.2,637.8z"
			/>
		<path fill="#939598" stroke="#939598" stroke-width="0.4" d="M1282.4,632.4c6,0,9.8-3.2,9.8-7.4c0-5.5-3.9-7-10.2-9.6l-5.1-2.1
			c-9.1-3.8-13.8-7.5-13.8-15.7c0-9.7,6.4-16,17.1-16c6.3,0,12.3,2,18.6,5.6l-2,8.4c-6.2-4.5-11.7-6.7-16.4-6.7
			c-5.2,0-8.4,2.9-8.4,6.9c0,5,3.2,6.5,10.7,9.4l4.3,1.7c10,3.9,14.6,8.6,14.6,16.7c0,10.1-7.3,16.7-19.2,16.7
			c-7.3,0-14.5-2.4-20.5-7l1.2-9C1270.3,629.8,1276.9,632.4,1282.4,632.4"/>
		<path fill="#939598" stroke="#939598" stroke-width="0.4" d="M1384.9,640.3c-16.7,0-28.3-12-28.3-28.6c0-18,11.6-30,29.9-30
			c6.6,0,12.7,1.6,19.2,4.7l-1.2,8.7c-6.3-3.5-12.2-5.4-17.9-5.4c-12.3,0-20.3,8.2-20.3,21.1c0,13.4,8.1,21.4,19.8,21.4
			c6.4,0,13.2-2.7,20.2-8.2l-1.3,10.5C1398.7,638.3,1391.9,640.3,1384.9,640.3"/>
		<path fill="#939598" stroke="#939598" stroke-width="0.4" d="M1448.6,588.8c-9.2,0-17.2,6.9-18.7,17.5l34.6-1.3
			C1464.1,595,1457.7,588.8,1448.6,588.8 M1469.6,632.6c-6.7,5.1-14.3,7.7-21.9,7.7c-16.2,0-27.8-11.5-27.8-27.5
			c0-18.4,12.8-31,29.2-31c14.6,0,24.3,9.3,24.3,25.2c0,0.7-0.1,1.4-0.1,2.3l-1.1,2.4l-42.9,1.5c1.1,12.3,7.8,19.2,18.9,19.2
			c7.1,0,14.2-3.2,21.9-9.4L1469.6,632.6z"/>
		<path fill="#939598" stroke="#939598" stroke-width="0.4" d="M1491.8,637.8v-53.6h9.6V595c6.5-8.2,14.3-12.3,22.3-12.3
			c12.1,0,18.9,7.4,18.9,21.9v33.2h-9.6v-31.9c0-9.9-3.3-14.7-11.5-14.7c-9.8,0-20.1,6.8-20.1,21.7v25L1491.8,637.8L1491.8,637.8z"
			/>
		<path fill="#939598" stroke="#939598" stroke-width="0.4" d="M1588.1,638.9h-13.7c-7.3-5.1-7.6-11.3-7.6-21.6v-25.5h-11.2v-7.7
			h11.2v-16.6l9.9-2.5v19.1h15v7.7h-15v24.3C1576.8,627.7,1577.6,633.6,1588.1,638.9"/>
		<path fill="#939598" stroke="#939598" stroke-width="0.4" d="M1630.8,588.8c-9.3,0-17.2,6.9-18.8,17.5l34.6-1.3
			C1646.3,595,1639.9,588.8,1630.8,588.8 M1651.8,632.6c-6.7,5.1-14.3,7.7-21.9,7.7c-16.2,0-27.8-11.5-27.8-27.5
			c0-18.4,12.8-31,29.2-31c14.7,0,24.3,9.3,24.3,25.2c0,0.7-0.1,1.4-0.1,2.3l-1.1,2.4l-42.9,1.5c1.1,12.3,7.8,19.2,18.9,19.2
			c7.1,0,14.3-3.2,22-9.4L1651.8,632.6z"/>
		<path fill="#939598" stroke="#939598" stroke-width="0.4" d="M1673.9,637.8v-53.6h9.6v8.2c6.4-6.6,13.5-9.9,21.7-9.9v9.6
			c-16.1,1.2-21.4,6.5-21.4,19.7v26L1673.9,637.8L1673.9,637.8z"/>
		<path fill="#939598" stroke="#939598" stroke-width="0.4" d="M1761,637.8v-45.9h-11.2v-7.7h11.2v-9c0-11,3.8-18.4,11.8-23
			l14.5-1.8v4.4c-13.2,2.2-16.5,9-16.5,22.9v6.6h15v7.7h-15v45.9L1761,637.8L1761,637.8z"/>
		<path fill="#939598" stroke="#939598" stroke-width="0.4" d="M1824.5,633.2c11,0,18.9-8.6,18.9-22.2c0-13.5-7.9-22.2-18.9-22.2
			c-10.9,0-18.8,8.5-18.8,22.2C1805.7,624.6,1813.6,633.2,1824.5,633.2 M1824.6,581.7c16.5,0,28.6,12.1,28.6,29.3
			c0,17.2-12.2,29.3-28.6,29.3c-16.3,0-28.7-12-28.7-29.3C1796,593.7,1808.3,581.7,1824.6,581.7"/>
		<path fill="#939598" stroke="#939598" stroke-width="0.4" d="M1872,637.8v-53.6h9.6v8.2c6.5-6.6,13.5-9.9,21.7-9.9v9.6
			c-16.1,1.2-21.5,6.5-21.5,19.7v26L1872,637.8L1872,637.8z"/>
		<path fill="#939598" stroke="#939598" stroke-width="0.4" d="M1159.8,637.8v-53.6l9.9-2.6v56.2H1159.8L1159.8,637.8z
			 M1164.7,550.7c4,0,7.2,3.1,7.2,7.2s-3.2,7.1-7.2,7.1c-3.9,0-7.1-3-7.1-7.1S1160.7,550.7,1164.7,550.7"/>
		<g>
			<path fill="#939598" stroke="#939598" stroke-width="0.4" d="M1188.3,1237c12,0,20-8.7,20-22.1c0-13-7.3-20.9-17.8-20.9
				c-5.6,0-10.7,2.4-16.1,7.3v32C1179.4,1235.7,1184.1,1237,1188.3,1237 M1164.8,1244.7v-87.5l9.6-2.6v38.1
				c4.6-3.5,10.2-6.1,18.4-6.1c14.2,0,25.3,11.3,25.3,28.1c0,17.8-11.8,29.8-29.7,29.8c-5.5,0-10.4-1.2-15.5-3.8L1164.8,1244.7z"/>
			<path fill="#939598" stroke="#939598" stroke-width="0.4" d="M1236.9,1242.1v-53.6h9.6v8.1c6.5-6.6,13.6-9.8,21.7-9.8v9.6
				c-16.1,1.2-21.4,6.4-21.4,19.7v26L1236.9,1242.1L1236.9,1242.1z"/>
			<path fill="#939598" stroke="#939598" stroke-width="0.4" d="M1354.3,1197.8c-5-2.4-9.6-3.6-13.9-3.6c-11.9,0-20,8.7-20,22.1
				c0,13.2,7.3,21,18.2,21c5,0,9.9-1.9,15.7-5L1354.3,1197.8L1354.3,1197.8z M1337,1244.5c-15.7,0-26.4-11.3-26.4-28.5
				c0-17.3,11.3-29.3,28.1-29.3c4.8,0,10.9,1.1,18.3,3l6.9-1.3v46.9c0,9.3-0.2,16.2-4,22.1c-4.4,6.7-12.7,10.7-23.6,10.7
				c-7.1,0-13.9-1.9-20.6-5.4l-1.6-11.7l7.2,4.7c3.2,2.1,9.5,4.2,15.4,4.2c11.2,0,17.7-5.7,17.7-16.2v-4.2
				C1348.6,1242.8,1343,1244.5,1337,1244.5"/>
			<path fill="#939598" stroke="#939598" stroke-width="0.4" d="M1387.3,1157.2l9.6-2.6v44.8c5.4-7.9,13.9-12.4,22.3-12.4
				c11.9,0,18.9,7.4,18.9,21.9v33.2h-9.6v-31.9c0-9.9-3.3-14.8-11.5-14.8c-9.7,0-20.1,6.9-20.1,21.7v25h-9.6L1387.3,1157.2
				L1387.3,1157.2z"/>
			<path fill="#939598" stroke="#939598" stroke-width="0.4" d="M1499.5,1197.8c-5-2.4-9.6-3.6-13.9-3.6c-12,0-20,8.7-20,22.1
				c0,13.2,7.3,20.9,18.1,20.9c5,0,9.9-1.9,15.7-5L1499.5,1197.8L1499.5,1197.8z M1501.7,1244.7c-0.7-1.8-1.1-3.8-1.4-5.8
				c-6.5,3.7-12.4,5.6-18.4,5.6c-15.2,0-26.1-11.5-26.1-28.5c0-17.5,11.2-29.2,28.7-29.2c4.8,0,9.6,1,15,2.7l9.6-1v41.7
				c0,4.2,0.5,8.1,1.1,11.9L1501.7,1244.7z"/>
			<path fill="#939598" stroke="#939598" stroke-width="0.4" d="M1532.5,1242.1v-53.6h9.4v10.7c6.4-8,13.3-12.2,20.9-12.2
				c8.1,0,14.1,4.5,16.7,12.4c7-8.2,13.6-12.4,21.5-12.4c11.6,0,17.3,7.3,17.3,21.9v33.2h-9.5v-31.9c0-9.9-2.9-14.7-10.7-14.7
				c-8.6,0-18,6.7-18,21.6v25h-9.3v-31.9c0-9.9-3-14.7-10.7-14.7c-8.6,0-18.1,6.7-18.1,21.6v25L1532.5,1242.1L1532.5,1242.1z"/>
			<path fill="#939598" stroke="#939598" stroke-width="0.4" d="M1682.9,1188.5l16.1,42.1l17.7-42.1h8.3l-25.6,59.1
				c-3.3,7.4-6.4,14.4-9.8,20.5H1679c5.6-5.9,8.9-12.2,11.9-18.8l3.4-7.4l-21.8-53.4L1682.9,1188.5L1682.9,1188.5z"/>
			<path fill="#939598" stroke="#939598" stroke-width="0.4" d="M1762.9,1237.4c11,0,18.9-8.6,18.9-22.1c0-13.5-7.9-22.2-18.9-22.2
				c-10.8,0-18.7,8.5-18.7,22.2C1744.2,1228.9,1752.1,1237.4,1762.9,1237.4 M1763.1,1186c16.5,0,28.7,12.1,28.7,29.2
				s-12.2,29.2-28.7,29.2c-16.3,0-28.6-12.1-28.6-29.2C1734.4,1198,1746.8,1186,1763.1,1186"/>
			<path fill="#939598" stroke="#939598" stroke-width="0.4" d="M1819.6,1188.5v33.1c0,9.9,3.2,14.6,11.5,14.6
				c9.7,0,20.1-6.8,20.1-21.7v-26.1h9.6v53.6l-8.8,2.6l-0.6-12.1c-6.9,8-14.5,12.1-22.5,12.1c-12.1,0-18.9-7.5-18.9-22v-34.2
				L1819.6,1188.5L1819.6,1188.5z"/>
			<path fill="#939598" stroke="#939598" stroke-width="0.4" d="M1883.5,1242.1v-53.6h9.6v10.8c6.5-8.1,14.3-12.3,22.3-12.3
				c12.1,0,18.9,7.4,18.9,21.9v33.2h-9.6v-31.9c0-9.9-3.3-14.8-11.5-14.8c-9.8,0-20.1,6.9-20.1,21.7v25H1883.5z"/>
			<path fill="#939598" stroke="#939598" stroke-width="0.4" d="M1995.6,1197.8c-5-2.4-9.6-3.6-13.9-3.6c-11.9,0-20,8.7-20,22.1
				c0,13.2,7.3,21,18.2,21c4.9,0,9.8-1.9,15.7-5V1197.8z M1978.3,1244.5c-15.7,0-26.4-11.3-26.4-28.5c0-17.3,11.3-29.3,28.1-29.3
				c4.8,0,10.9,1.1,18.3,3l7-1.3v46.9c0,9.3-0.2,16.2-4,22.1c-4.4,6.7-12.7,10.7-23.7,10.7c-7,0-13.8-1.9-20.6-5.4l-1.6-11.7
				l7.2,4.7c3.2,2.1,9.5,4.2,15.3,4.2c11.3,0,17.7-5.7,17.7-16.2v-4.2C1989.9,1242.8,1984.3,1244.5,1978.3,1244.5"/>
			<path fill="#939598" stroke="#939598" stroke-width="0.4" d="M2078.1,1188.5v33.1c0,9.9,3.3,14.6,11.5,14.6
				c9.8,0,20.1-6.8,20.1-21.7v-26.1h9.6v53.6l-8.8,2.6l-0.6-12.1c-6.9,8-14.5,12.1-22.5,12.1c-12.1,0-18.9-7.5-18.9-22v-34.2
				L2078.1,1188.5L2078.1,1188.5z"/>
			<path fill="#939598" stroke="#939598" stroke-width="0.4" d="M2142,1242.1v-53.6h9.6v10.8c6.4-8.1,14.3-12.3,22.3-12.3
				c12.1,0,18.9,7.4,18.9,21.9v33.2h-9.6v-31.9c0-9.9-3.3-14.8-11.5-14.8c-9.8,0-20.1,6.9-20.1,21.7v25H2142z"/>
		</g>
		<polygon fill="#939598" stroke="#939598" stroke-width="0.4" points="2239.6,1188.5 2250.2,1188.5 2266.3,1227 2283.7,1188.5 
			2292,1188.5 2266.2,1244.7 2264.1,1244.7 		"/>
		<g>
			<path fill="#939598" stroke="#939598" stroke-width="0.4" d="M2330.5,1193.1c-9.2,0-17.2,7-18.8,17.5l34.7-1.3
				C2346,1199.3,2339.6,1193.1,2330.5,1193.1 M2351.5,1236.8c-6.7,5.1-14.3,7.7-21.9,7.7c-16.2,0-27.8-11.5-27.8-27.5
				c0-18.4,12.8-31,29.3-31c14.7,0,24.3,9.3,24.3,25.2c0,0.7-0.1,1.5-0.1,2.4l-1.1,2.4l-42.9,1.4c1.1,12.3,7.8,19.2,18.9,19.2
				c7.1,0,14.3-3.2,22-9.4L2351.5,1236.8z"/>
			<path fill="#939598" stroke="#939598" stroke-width="0.4" d="M2373.6,1242.1v-53.6h9.6v8.1c6.4-6.6,13.5-9.8,21.7-9.8v9.6
				c-16.1,1.2-21.5,6.4-21.5,19.7v26L2373.6,1242.1L2373.6,1242.1z"/>
			<path fill="#939598" stroke="#939598" stroke-width="0.4" d="M2434.4,1236.7c6,0,9.8-3.2,9.8-7.5c0-5.5-3.9-6.9-10.2-9.6
				l-5.1-2.1c-9.2-3.8-13.8-7.4-13.8-15.7c0-9.8,6.5-16,17-16c6.4,0,12.3,1.9,18.6,5.6l-1.9,8.4c-6.2-4.5-11.7-6.7-16.5-6.7
				c-5.2,0-8.4,2.9-8.4,6.9c0,5,3.2,6.5,10.7,9.3l4.3,1.7c10,3.9,14.6,8.6,14.6,16.7c0,10.1-7.3,16.7-19.2,16.7
				c-7.3,0-14.5-2.4-20.5-7l1.2-9C2422.3,1234,2428.9,1236.7,2434.4,1236.7"/>
			<path fill="#939598" stroke="#939598" stroke-width="0.4" d="M2529.5,1243.2h-13.6c-7.3-5.1-7.6-11.3-7.6-21.6v-25.5h-11.2v-7.6
				h11.2v-16.6l9.9-2.6v19.2h15v7.6h-15v24.3C2518.2,1231.9,2519.1,1237.8,2529.5,1243.2"/>
			<path fill="#939598" stroke="#939598" stroke-width="0.4" d="M2549.1,1188.5l16.1,42.1l17.6-42.1h8.3l-25.6,59.1
				c-3.3,7.4-6.3,14.4-9.7,20.5h-10.6c5.6-5.9,8.9-12.2,11.9-18.8l3.4-7.4l-21.8-53.4L2549.1,1188.5L2549.1,1188.5z"/>
			<path fill="#939598" stroke="#939598" stroke-width="0.4" d="M1281.7,1242.1v-53.6l9.9-2.6v56.2L1281.7,1242.1L1281.7,1242.1z
				 M1286.5,1154.9c4.1,0,7.2,3.2,7.2,7.2c0,4-3.2,7.1-7.2,7.1c-3.9,0-7.1-3.1-7.1-7.1C1279.5,1158.1,1282.5,1154.9,1286.5,1154.9"
				/>
			<path fill="#939598" stroke="#939598" stroke-width="0.4" d="M2215.1,1242.1v-53.6l9.9-2.6v56.2L2215.1,1242.1L2215.1,1242.1z
				 M2220,1154.9c4,0,7.2,3.2,7.2,7.2c0,4-3.2,7.1-7.2,7.1c-3.9,0-7.1-3.1-7.1-7.1C2212.9,1158.1,2216,1154.9,2220,1154.9"/>
			<path fill="#939598" stroke="#939598" stroke-width="0.4" d="M2472.7,1242.1v-53.6l9.9-2.6v56.2L2472.7,1242.1L2472.7,1242.1z
				 M2477.6,1154.9c4,0,7.2,3.2,7.2,7.2c0,4-3.2,7.1-7.2,7.1c-3.9,0-7.1-3.1-7.1-7.1C2470.5,1158.1,2473.6,1154.9,2477.6,1154.9"/>
		</g>
		<polygon fill="#68B247" stroke="#68B247" stroke-width="0.25" points="973.8,713.8 1056.4,713.8 1056.4,728.9 991.2,728.9 
			991.2,778 1047.4,778 1047.4,793.2 991.2,793.2 991.2,848 1057.2,848 1057.2,864.2 973.8,864.2 		"/>
		<polygon fill="#68B247" stroke="#68B247" stroke-width="0.25" points="1103.5,709 1105.8,709 1206.4,826.6 1206.4,713.8 
			1223.8,713.8 1223.8,869 1221.5,869 1120.9,751.4 1120.9,864.2 1103.5,864.2 		"/>
		<polygon fill="#68B247" stroke="#68B247" stroke-width="0.25" points="1310.9,730 1257.8,730 1257.8,713.8 1382,713.8 1382,730 
			1328.9,730 1328.9,864.2 1310.9,864.2 		"/>
		<g>
			<path fill="#68B247" stroke="#68B247" stroke-width="0.25" d="M1448.9,788.6c30.1,0,45.4-11,45.4-30.6
				c0-21.4-16.4-29.5-48.4-29.5h-12.3v60.1L1448.9,788.6L1448.9,788.6z M1415.9,713.8h31.9c43.1,0,64.3,15.9,64.3,43.7
				c0,21.2-14.9,38.4-39.3,42.5l54.5,64.1h-22.5l-52.4-61.8h-18.9v61.8H1416L1415.9,713.8L1415.9,713.8z"/>
		</g>
		<polygon fill="#68B247" stroke="#68B247" stroke-width="0.25" points="1562.8,713.8 1645.4,713.8 1645.4,728.9 1580.3,728.9 
			1580.3,778 1636.5,778 1636.5,793.2 1580.3,793.2 1580.3,848 1646.3,848 1646.3,864.2 1562.8,864.2 		"/>
		<g>
			<path fill="#68B247" stroke="#68B247" stroke-width="0.25" d="M1725.4,790.7c30.2,0,45.4-11.5,45.4-31.6
				c0-22.1-16.1-30.6-48.4-30.6h-12.3v62.2L1725.4,790.7L1725.4,790.7z M1692.6,713.8h31.8c19.3,0,34.2,1.7,46.9,10.9
				c11.2,8.1,17.4,20.6,17.4,33.5c0,29.3-22.1,47.6-63.9,47.6c-1.5,0-6.4,0-14.7-0.2v58.6h-17.6L1692.6,713.8L1692.6,713.8z"/>
			<path fill="#68B247" stroke="#68B247" stroke-width="0.25" d="M1860,788.6c30.2,0,45.5-11,45.5-30.6c0-21.4-16.4-29.5-48.4-29.5
				h-12.3v60.1L1860,788.6L1860,788.6z M1827.1,713.8h31.9c43.1,0,64.3,15.9,64.3,43.7c0,21.2-14.9,38.4-39.3,42.5l54.5,64.1h-22.5
				l-52.4-61.8h-18.9v61.8h-17.6L1827.1,713.8L1827.1,713.8z"/>
		</g>
		<polygon fill="#68B247" stroke="#68B247" stroke-width="0.25" points="1974,713.8 2056.6,713.8 2056.6,728.9 1991.4,728.9 
			1991.4,778 2047.7,778 2047.7,793.2 1991.4,793.2 1991.4,848 2057.4,848 2057.4,864.2 1974,864.2 		"/>
		<polygon fill="#68B247" stroke="#68B247" stroke-width="0.25" points="2103.7,709 2106,709 2206.7,826.6 2206.7,713.8 
			2224.1,713.8 2224.1,869 2221.8,869 2121.2,751.4 2121.2,864.2 2103.7,864.2 		"/>
		<polygon fill="#68B247" stroke="#68B247" stroke-width="0.25" points="2277.2,713.8 2359.7,713.8 2359.7,728.9 2294.6,728.9 
			2294.6,778 2350.8,778 2350.8,793.2 2294.6,793.2 2294.6,848 2360.6,848 2360.6,864.2 2277.2,864.2 		"/>
		<g>
			<path fill="#68B247" stroke="#68B247" stroke-width="0.25" d="M2423,801.7c0,33.8,14.7,50.8,42.3,50.8
				c27.2,0,41.8-17.2,41.8-51.4v-87.2h16.2v90.3c0,42-23.4,64.9-57.9,64.9c-37.6,0-60.1-22.5-60.1-64.5v-90.6h17.8V801.7z"/>
			<path fill="#68B247" stroke="#68B247" stroke-width="0.25" d="M2607.3,788.6c30.1,0,45.4-11,45.4-30.6
				c0-21.4-16.4-29.5-48.4-29.5H2592v60.1L2607.3,788.6L2607.3,788.6z M2574.3,713.8h31.9c43.1,0,64.3,15.9,64.3,43.7
				c0,21.2-14.9,38.4-39.3,42.5l54.6,64.1h-22.5l-52.4-61.8H2592v61.8h-17.6L2574.3,713.8L2574.3,713.8z"/>
			<path fill="#68B247" stroke="#68B247" stroke-width="0.25" d="M2756.1,852.9c19.3,0,31.6-11.1,31.6-26.7
				c0-15.5-11.1-23.3-29.8-31.8l-10.4-4.7c-22.3-10.2-33.5-24.4-33.5-42.4c0-21.9,17.3-38.2,43.5-38.2c13.6,0,26.1,4.2,35.8,10.2
				v19.1c-12.7-9.6-24.6-14.2-36.7-14.2c-16.1,0-26.4,9.3-26.4,22.3c0,12.7,9.3,21.2,28.2,29.5l10.6,4.7
				c23.6,10.4,35.7,26.3,35.7,45.6c0,24.8-19.3,43.1-48.2,43.1c-13.4,0-27.8-3.8-42.9-11.4l-1.5-21
				C2728.9,847,2742.5,852.9,2756.1,852.9"/>
		</g>
		<polygon fill="#68B247" stroke="#68B247" stroke-width="0.25" points="2849.1,713.8 2866.7,713.8 2866.7,776.7 2950.3,776.7 
			2950.3,713.8 2967.9,713.8 2967.9,864.2 2950.3,864.2 2950.3,792.8 2866.7,792.8 2866.7,864.2 2849.1,864.2 		"/>
		<rect x="3021.2" y="713.8" fill="#68B247" stroke="#68B247" stroke-width="0.25" width="17.8" height="150.3"/>
		<g>
			<path fill="#68B247" stroke="#68B247" stroke-width="0.25" d="M3125.5,790.7c30.1,0,45.4-11.5,45.4-31.6
				c0-22.1-16.1-30.6-48.4-30.6h-12.3v62.2L3125.5,790.7L3125.5,790.7z M3092.5,713.8h31.9c19.3,0,34.1,1.7,46.9,10.9
				c11.3,8.1,17.4,20.6,17.4,33.5c0,29.3-22.1,47.6-63.9,47.6c-1.4,0-6.4,0-14.6-0.2v58.6h-17.6L3092.5,713.8L3092.5,713.8z"/>
		</g>
		<polygon fill="#68B247" stroke="#68B247" stroke-width="0.25" points="1164.8,970.1 1111.7,970.1 1111.7,953.9 1235.9,953.9 
			1235.9,970.1 1182.8,970.1 1182.8,1104.2 1164.8,1104.2 		"/>
		<polygon fill="#68B247" stroke="#68B247" stroke-width="0.25" points="1269.9,953.9 1352.5,953.9 1352.5,969 1287.3,969 
			1287.3,1018 1343.5,1018 1343.5,1033.3 1287.3,1033.3 1287.3,1088.1 1353.3,1088.1 1353.3,1104.2 1269.9,1104.2 		"/>
		<g>
			<path fill="#68B247" stroke="#68B247" stroke-width="0.25" d="M1463.5,1109.1c-17.2,0-33.3-5.7-46.2-16.4
				c-18.5-14.8-28.9-37.6-28.9-63.7c0-46.3,32.7-80.2,75.8-80.2c15.7,0,30.2,4.7,43.9,14.2l-1.9,18.7
				c-13.4-11.3-26.7-16.8-41.8-16.8c-33.3,0-57.9,26.8-57.9,64.1c0,36.8,24,63.5,57.3,63.5c16.3,0,31-6.4,46-19.1l-1.5,21
				C1495.1,1104,1479.8,1109.1,1463.5,1109.1"/>
		</g>
		<polygon fill="#68B247" stroke="#68B247" stroke-width="0.25" points="1549.9,953.9 1567.5,953.9 1567.5,1016.8 1651.1,1016.8 
			1651.1,953.9 1668.8,953.9 1668.8,1104.2 1651.1,1104.2 1651.1,1032.9 1567.5,1032.9 1567.5,1104.2 1549.9,1104.2 		"/>
		<polygon fill="#68B247" stroke="#68B247" stroke-width="0.25" points="1721.9,949.1 1724.2,949.1 1824.8,1066.6 1824.8,953.9 
			1842.2,953.9 1842.2,1109.1 1839.9,1109.1 1739.2,991.5 1739.2,1104.2 1721.9,1104.2 		"/>
		<g>
			<path fill="#68B247" stroke="#68B247" stroke-width="0.25" d="M1957.6,1092.5c31,0,55.4-26.5,55.4-63.4c0-37-24.4-63.5-55.4-63.5
				c-31,0-55.6,26.8-55.6,63.5C1902.1,1065.6,1926.7,1092.5,1957.6,1092.5 M1905.6,971.8c13.8-14.7,32.5-22.7,52-22.7
				c19.5,0,38,8.1,52,22.9c14,15,21.6,34.8,21.6,57.1c0,18.7-5.1,35.4-15,49.2c-14,19.6-35.9,30.8-58.6,30.8
				c-19.3,0-38.2-8.3-52-22.9c-14.2-15.3-21.6-34.6-21.6-57.1C1884,1006.6,1891.4,987,1905.6,971.8"/>
		</g>
		<polygon fill="#68B247" stroke="#68B247" stroke-width="0.25" points="2073.1,953.9 2091,953.9 2091,1088.1 2161.7,1088.1 
			2161.7,1104.2 2073.1,1104.2 		"/>
		<g>
			<path fill="#68B247" stroke="#68B247" stroke-width="0.25" d="M2245.6,1092.5c31,0,55.4-26.5,55.4-63.4c0-37-24.4-63.5-55.4-63.5
				c-31,0-55.6,26.8-55.6,63.5C2190,1065.6,2214.5,1092.5,2245.6,1092.5 M2193.5,971.8c13.8-14.7,32.5-22.7,52-22.7
				c19.6,0,38,8.1,52,22.9c14,15,21.7,34.8,21.7,57.1c0,18.7-5.1,35.4-15.1,49.2c-14,19.6-35.9,30.8-58.6,30.8
				c-19.3,0-38.2-8.3-52-22.9c-14.1-15.3-21.6-34.6-21.6-57.1C2171.9,1006.6,2179.4,987,2193.5,971.8"/>
			<path fill="#68B247" stroke="#68B247" stroke-width="0.25" d="M2427.5,1109.3c-45.4,0-77.7-33.7-77.7-80.2
				c0-46.7,32.9-80.4,78.6-80.4c17.2,0,33.5,4.2,48.3,12.9l-1,19.1c-16.5-11.1-31.6-16.8-47.3-16.8c-34.4,0-60.5,27-60.5,65.2
				c0,36.9,23.8,63.5,59.3,63.5c12.7,0,25-3.4,38.4-10v-38.6h-45.3v-15.5h63.1v65.4C2463.2,1103.8,2445.1,1109.3,2427.5,1109.3"/>
		</g>
		<polygon fill="#68B247" stroke="#68B247" stroke-width="0.25" points="2558.2,1039.5 2500.2,953.9 2521,953.9 2567.7,1022.9 
			2618,953.9 2637.8,953.9 2576,1038 2576,1104.2 2558.2,1104.2 		"/>
		<g>
			<path fill="#68B247" stroke="#68B247" stroke-width="0.25" d="M1026.7,979c0-5.8-4.5-10.2-10.5-10.2c-5.8,0-10.3,3.9-10.3,9.2
				c0,3.1,1.5,5.7,3.9,8.8l5.1,6.9C1022.9,989.1,1026.7,984.8,1026.7,979 M1008.5,1014.3c-9.4,6-14.2,12.1-14.2,19.6
				c0,11.1,8.5,19.6,20,19.6c6.9,0,12.4-2.3,18.4-7L1008.5,1014.3z M1042.2,1059.3c-8.2,6.4-17.8,9.4-28.7,9.4
				c-23,0-38-14.2-38-33.1c0-13.9,7.9-24.1,24.2-33.1c-6.6-9.1-10.6-16.2-10.6-23.3c0-13.3,10.9-23.5,26.6-23.5
				c15.6,0,26.5,10.3,26.5,24.2c0,9.7-6,17.8-18.3,25.4l21.2,27.8c3.7-6,6.6-12.1,8.8-18.7l14.4,4.4c-2.3,10.3-6.5,19.3-12.9,27.6
				l14.3,19h-22.9L1042.2,1059.3z"/>
		</g>
	</g>
</g>
</svg>
