<?xml version="1.0" encoding="utf-8"?>
<!-- Generator: Adobe Illustrator 22.1.0, SVG Export Plug-In . SVG Version: 6.00 Build 0)  -->
<svg version="1.1" id="Layer_1" xmlns="http://www.w3.org/2000/svg" xmlns:xlink="http://www.w3.org/1999/xlink" x="0px" y="0px"
	 viewBox="0 0 189 30" style="enable-background:new 0 0 189 30;" xml:space="preserve">
<style type="text/css">
	.st0{fill:#95E561;}
	.st1{fill:#FFFFFF;}
	.st2{fill:none;stroke:#95E561;stroke-width:2.25;stroke-miterlimit:10;}
	.st3{font-family:'ArialMT';}
	.st4{font-size:3.4875px;}
</style>
<g>
	<g>
		<g>
			<path class="st0" d="M25.4,16.1L17.2,8c-0.1-0.1-0.2-0.2-0.5-0.2c-0.2,0-0.4,0.1-0.5,0.2L8,16.1c-0.1,0.1-0.2,0.2-0.2,0.5
				c0,0.1,0.1,0.4,0.2,0.5L8.9,18c0.1,0.1,0.2,0.2,0.5,0.2c0.3,0,0.4-0.1,0.5-0.2l6.9-6.9l6.9,6.9c0.1,0.1,0.2,0.2,0.5,0.2
				c0.1,0,0.4-0.1,0.5-0.2l0.9-0.9c0.1-0.1,0.2-0.2,0.2-0.5C25.6,16.4,25.5,16.2,25.4,16.1z"/>
		</g>
	</g>
	<g>
		<g>
			<path class="st1" d="M56.2,9.5c0.8,1,1.2,2.3,1.2,4v7.7c0,0.2-0.1,0.4-0.2,0.6C57,22,56.8,22,56.6,22c-0.2,0-0.4-0.1-0.6-0.2
				c-0.2-0.2-0.2-0.4-0.2-0.6v-7.6c0-1.2-0.3-2.1-0.9-2.9c-0.6-0.8-1.6-1.2-2.7-1.2c-0.8,0-1.5,0.2-2.2,0.6
				c-0.7,0.4-1.3,0.9-1.7,1.5c-0.4,0.6-0.6,1.3-0.6,2v7.6c0,0.2-0.1,0.4-0.2,0.6C47.4,22,47.2,22,47,22s-0.4-0.1-0.6-0.2
				c-0.2-0.2-0.2-0.4-0.2-0.6v-7.8c0-1.2-0.3-2.1-0.8-2.8c-0.6-0.8-1.4-1.1-2.5-1.1c-0.8,0-1.5,0.2-2.2,0.6
				c-0.7,0.4-1.2,0.9-1.6,1.5c-0.4,0.6-0.6,1.3-0.6,1.9v7.7c0,0.2-0.1,0.4-0.2,0.6C38.2,22,38,22,37.8,22s-0.4-0.1-0.6-0.2
				C37,21.6,37,21.4,37,21.2V9c0-0.2,0.1-0.4,0.2-0.6c0.2-0.2,0.4-0.2,0.6-0.2s0.4,0.1,0.6,0.2c-0.1,0.1,0,0.3,0,0.6v1.6
				c0.5-0.8,1.2-1.4,2-1.8C41.2,8.3,42.1,8,43,8c1.1,0,2,0.3,2.7,0.8C46.5,9.2,47,10,47.4,11c0.4-0.8,1.1-1.5,2.1-2
				c1-0.6,2.1-0.9,3-0.9C54.1,8,55.4,8.5,56.2,9.5z"/>
			<path class="st1" d="M71.8,8.1C72,8.3,72,8.5,72,8.6v12c0,1.5-0.3,2.6-0.9,3.7c-0.6,1-1.4,1.7-2.3,2.3c-1,0.5-2.2,0.8-3.4,0.8
				c-0.8,0-1.5-0.1-2.2-0.3c-0.7-0.2-1.2-0.4-1.7-0.7c-0.4-0.2-0.6-0.5-0.6-0.8c0,0,0-0.1,0.1-0.3c0.1-0.2,0.1-0.3,0.3-0.4
				c0.1-0.1,0.3-0.1,0.4-0.1s0.2,0,0.3,0.1c1.2,0.6,2.2,1,3.3,1c1.5,0,2.7-0.5,3.6-1.4c0.9-1,1.4-2.2,1.4-3.9v-1
				c-0.5,0.8-1.1,1.4-2,1.8c-0.9,0.5-1.7,0.6-2.6,0.6c-1.6,0-2.7-0.5-3.6-1.4c-0.8-1-1.3-2.2-1.3-3.8V8.6c0-0.2,0.1-0.4,0.2-0.6
				c0.2-0.2,0.4-0.2,0.6-0.2c0.2,0,0.4,0.1,0.6,0.2c0.2,0.2,0.2,0.4,0.2,0.6v8.1c0,1.3,0.3,2.2,0.9,2.9c0.6,0.7,1.5,1,2.6,1
				c0.8,0,1.5-0.2,2.2-0.6c0.7-0.4,1.3-0.9,1.7-1.5c0.4-0.6,0.6-1.3,0.6-1.9v-8c0-0.2,0.1-0.4,0.2-0.6c0.2-0.2,0.4-0.2,0.6-0.2
				C71.5,7.9,71.7,8,71.8,8.1z"/>
			<path class="st1" d="M83.4,8c0.3,0.1,0.4,0.4,0.4,0.7c0,0.3-0.1,0.5-0.2,0.6c-0.1,0.2-0.3,0.2-0.5,0.2c-0.1,0-0.3,0-0.5-0.1
				s-0.5-0.1-0.8-0.1c-0.7,0-1.4,0.3-2,0.8c-0.7,0.5-1.2,1.2-1.7,1.9c-0.5,0.9-0.7,1.7-0.7,2.4v6.7c0,0.2-0.1,0.4-0.2,0.6
				c-0.2,0.2-0.4,0.2-0.6,0.2s-0.4-0.1-0.6-0.2c-0.2-0.2-0.2-0.4-0.2-0.6V9c0-0.2,0.1-0.4,0.2-0.6c0.2-0.2,0.4-0.2,0.6-0.2
				s0.4,0.1,0.6,0.2c0.1,0.1,0.2,0.3,0.2,0.6v2.4c0.4-1.1,1.1-1.8,1.9-2.5c0.9-0.7,1.9-1.1,2.9-1.1C82.7,7.8,83.1,7.9,83.4,8z"/>
			<path class="st1" d="M97.1,18.7c-0.6,1.1-1.5,1.9-2.4,2.6c-1.1,0.6-2.2,1-3.5,1c-1.3,0-2.4-0.3-3.5-1c-1.1-0.6-1.9-1.5-2.4-2.6
				c-0.6-1.1-0.9-2.3-0.9-3.7s0.3-2.6,0.9-3.7s1.5-1.9,2.4-2.6c1.1-0.6,2.2-1,3.5-1c1.3,0,2.4,0.3,3.5,1c1.1,0.6,1.9,1.5,2.4,2.6
				c0.6,1.1,0.9,2.3,0.9,3.7S97.7,17.6,97.1,18.7z M95.8,12c-0.5-0.9-1.1-1.6-1.9-2c-0.9-0.5-1.8-0.7-2.7-0.7c-1,0-1.9,0.3-2.6,0.8
				c-0.8,0.5-1.5,1.2-1.9,2C86.2,13,86,14,86,15.1s0.2,2,0.7,2.9c0.5,0.9,1.1,1.6,1.9,2c0.8,0.5,1.7,0.8,2.6,0.8
				c1,0,1.9-0.3,2.6-0.8c0.8-0.5,1.5-1.2,1.9-2c0.5-0.9,0.7-1.8,0.7-2.9C96.5,13.9,96.2,12.9,95.8,12z"/>
			<path class="st1" d="M112.8,8.4c0.2,0.2,0.2,0.4,0.2,0.6v12.1c0,0.2-0.1,0.4-0.2,0.6c-0.2,0.2-0.4,0.2-0.6,0.2s-0.4-0.1-0.6-0.2
				c-0.2-0.2-0.2-0.4-0.2-0.6v-1.8c-0.5,0.8-1.2,1.5-2.1,2c-0.9,0.6-1.9,0.9-2.9,0.9c-1.2,0-2.3-0.3-3.3-1c-1-0.6-1.8-1.5-2.2-2.6
				c-0.6-1.1-0.8-2.3-0.8-3.7s0.3-2.6,0.9-3.7s1.4-1.9,2.3-2.5c1-0.6,2.1-0.9,3.2-0.9c1.1,0,2.1,0.3,3,0.8c0.9,0.5,1.6,1.2,2.1,2
				V8.9c0-0.2,0.1-0.4,0.2-0.6s0.4-0.3,0.6-0.3C112.6,8.1,112.6,8.2,112.8,8.4z M109.1,19.9c0.8-0.5,1.4-1.2,1.8-2
				c0.4-0.9,0.7-1.8,0.7-2.9s-0.2-2-0.7-2.9c-0.4-0.9-1-1.6-1.8-2c-0.8-0.5-1.6-0.8-2.5-0.8c-1,0-1.8,0.2-2.5,0.8
				c-0.8,0.5-1.4,1.2-1.8,2c-0.4,0.9-0.7,1.8-0.7,2.9s0.2,2,0.6,2.9c0.4,0.9,1,1.6,1.8,2c0.8,0.5,1.6,0.8,2.5,0.8
				C107.5,20.7,108.3,20.4,109.1,19.9z"/>
			<path class="st1" d="M128.6,2.1c0.2,0.2,0.2,0.4,0.2,0.6v18.4c0,0.2-0.1,0.4-0.2,0.6c-0.2,0.2-0.4,0.2-0.6,0.2
				c-0.2,0-0.4-0.1-0.6-0.2c-0.2-0.2-0.2-0.4-0.2-0.6v-1.8c-0.5,0.9-1.2,1.6-2.1,2.1c-0.9,0.6-1.9,0.9-2.9,0.9c-1.2,0-2.2-0.3-3.2-1
				c-1-0.6-1.8-1.5-2.3-2.6c-0.6-1.1-0.9-2.3-0.9-3.7s0.3-2.6,0.9-3.7c0.6-1.1,1.4-1.9,2.3-2.6c1-0.6,2.1-1,3.2-1
				c1.1,0,2.1,0.3,2.9,0.8c0.9,0.5,1.6,1.3,2.1,2V2.7c0-0.2,0.1-0.4,0.2-0.6c0.2-0.2,0.4-0.2,0.6-0.2C128.2,1.9,128.5,1.9,128.6,2.1
				z M124.9,19.9c0.8-0.5,1.4-1.2,1.8-2c0.4-0.9,0.7-1.8,0.7-2.9s-0.2-2-0.7-2.9c-0.4-0.9-1-1.6-1.8-2c-0.8-0.5-1.6-0.8-2.5-0.8
				s-1.8,0.3-2.5,0.8c-0.8,0.5-1.4,1.2-1.8,2c-0.4,0.9-0.7,1.8-0.7,2.9s0.2,2,0.7,2.9c0.5,0.9,1,1.6,1.8,2c0.8,0.5,1.6,0.8,2.5,0.8
				S124.2,20.4,124.9,19.9z"/>
			<path class="st1" d="M152,9.5c0.8,1,1.2,2.3,1.2,4v7.7c0,0.2-0.1,0.4-0.2,0.6c-0.2,0.2-0.4,0.2-0.6,0.2c-0.2,0-0.4-0.1-0.6-0.2
				c-0.2-0.2-0.2-0.4-0.2-0.6v-7.6c0-1.2-0.3-2.1-0.9-2.9c-0.6-0.8-1.5-1.2-2.6-1.2c-0.8,0-1.5,0.2-2.2,0.6
				c-0.7,0.4-1.3,0.9-1.7,1.5c-0.4,0.6-0.6,1.3-0.6,2v7.6c0,0.2-0.1,0.4-0.2,0.6c-0.2,0.2-0.4,0.2-0.6,0.2s-0.4-0.1-0.6-0.2
				c-0.2-0.2-0.2-0.4-0.2-0.6v-7.8c0-1.2-0.3-2.1-0.8-2.8c-0.6-0.8-1.4-1.1-2.5-1.1c-0.8,0-1.5,0.2-2.2,0.6
				c-0.7,0.4-1.2,0.9-1.6,1.5c-0.4,0.6-0.6,1.3-0.6,1.9v7.7c0,0.2-0.1,0.4-0.2,0.6c-0.2,0.2-0.4,0.2-0.6,0.2s-0.4-0.1-0.6-0.2
				c-0.2-0.2-0.2-0.4-0.2-0.6V9c0-0.2,0.1-0.4,0.2-0.6c0.2-0.2,0.4-0.2,0.6-0.2s0.4,0.1,0.6,0.2c0.2,0.2,0.2,0.4,0.2,0.6v1.6
				c0.5-0.8,1.2-1.4,2-1.8c0.9-0.5,1.8-0.8,2.6-0.8c1.1,0,2,0.3,2.7,0.8c0.8,0.5,1.3,1.3,1.7,2.2c0.4-0.8,1.1-1.5,2.1-2
				c1-0.6,2.1-0.9,3-0.9C150,8,151.3,8.5,152,9.5z"/>
			<path class="st1" d="M168.8,8.4c0.2,0.2,0.2,0.4,0.2,0.6v12.1c0,0.2-0.1,0.4-0.2,0.6c-0.2,0.2-0.4,0.2-0.6,0.2s-0.4-0.1-0.6-0.2
				c-0.2-0.2-0.2-0.4-0.2-0.6v-1.8c-0.5,0.8-1.2,1.5-2.1,2c-0.9,0.6-1.9,0.9-2.9,0.9c-1.2,0-2.3-0.3-3.3-1c-1-0.6-1.8-1.5-2.2-2.6
				c-0.6-1.1-0.8-2.3-0.8-3.7s0.3-2.6,0.9-3.7s1.4-1.9,2.3-2.5c1-0.6,2.1-0.9,3.2-0.9c1.1,0,2.1,0.3,3,0.8c0.9,0.5,1.6,1.2,2.1,2
				V8.9c0-0.2,0.1-0.4,0.2-0.6s0.4-0.3,0.6-0.3S168.7,8.2,168.8,8.4z M165.1,19.9c0.8-0.5,1.4-1.2,1.8-2c0.4-0.9,0.7-1.8,0.7-2.9
				s-0.2-2-0.7-2.9c-0.4-0.9-1-1.6-1.8-2c-0.8-0.5-1.6-0.7-2.5-0.7c-1,0-1.8,0.2-2.5,0.8c-0.8,0.5-1.4,1.2-1.8,2
				c-0.4,0.9-0.7,1.8-0.7,2.9s0.2,2,0.6,2.9c0.4,0.9,1,1.6,1.8,2c0.8,0.5,1.6,0.8,2.5,0.8C163.5,20.7,164.4,20.4,165.1,19.9z"/>
			<path class="st1" d="M182.7,8.9c1,0.6,1.8,1.5,2.3,2.5s0.8,2.2,0.8,3.6s-0.3,2.5-0.8,3.6c-0.6,1.1-1.3,1.9-2.2,2.5
				c-1,0.6-2.1,0.9-3.2,0.9c-1.1,0-2.1-0.3-2.9-0.8c-0.9-0.5-1.6-1.2-2.2-1.9v7.2c0,0.2-0.1,0.4-0.2,0.6c-0.2,0.2-0.4,0.2-0.6,0.2
				s-0.4-0.1-0.6-0.2c-0.2-0.2-0.2-0.4-0.2-0.6V8.8c0-0.2,0.1-0.4,0.2-0.6s0.4-0.3,0.6-0.3s0.4,0.1,0.6,0.3s0.2,0.4,0.2,0.6v1.8
				c0.5-0.9,1.2-1.6,2.1-2c0.9-0.5,1.9-0.8,2.9-0.8C180.6,8,181.7,8.3,182.7,8.9z M181.8,19.9c0.8-0.5,1.4-1.2,1.8-1.9
				c0.4-0.9,0.7-1.8,0.7-2.9s-0.2-1.9-0.7-2.8c-0.4-0.9-1-1.5-1.8-1.9s-1.6-0.7-2.5-0.7c-1,0-1.9,0.2-2.5,0.7
				c-0.8,0.5-1.4,1.2-1.8,1.9c-0.4,0.9-0.6,1.7-0.6,2.8s0.2,2,0.6,2.9c0.4,0.9,1,1.6,1.8,1.9c0.8,0.5,1.7,0.7,2.5,0.7
				C180.2,20.6,181.1,20.4,181.8,19.9z"/>
		</g>
		<ellipse class="st2" cx="16.7" cy="14.6" rx="12.9" ry="12.8"/>
	</g>
</g>
<text transform="matrix(1 0 0 1 183.1035 28.6172)" class="st1 st3 st4">TM</text>
</svg>
