<?xml version="1.0" encoding="utf-8"?>
<!-- Generator: Adobe Illustrator 22.0.1, SVG Export Plug-In . SVG Version: 6.00 Build 0)  -->
<svg version="1.1" id="Layer_1" xmlns="http://www.w3.org/2000/svg" xmlns:xlink="http://www.w3.org/1999/xlink" x="0px" y="0px"
	 viewBox="0 0 166.2 27.5" style="enable-background:new 0 0 166.2 27.5;" xml:space="preserve">
<style type="text/css">
	.st0{fill:#95E561;}
	.st1{fill:none;stroke:#AAAAAA;stroke-width:1.324;stroke-linecap:round;stroke-miterlimit:10;}
	.st2{enable-background:new    ;}
	.st3{fill:#AAAAAA;}
	.st4{fill:#FF6465;}
	.st5{fill:#FF0000;}
	.st6{fill:#231F20;}
	.st7{fill:#FFFF00;}
	.st8{fill:#F7F7F7;stroke:#000000;stroke-width:1.0332;stroke-miterlimit:10;}
	.st9{fill:#FFD782;}
	.st10{fill:#A5EB78;}
	.st11{fill:#42B766;}
	.st12{fill:#848484;}
	.st13{fill:#FF0303;}
	.st14{fill:#EFE630;}
	.st15{fill:#474747;}
	.st16{fill:#5AEA4E;}
	.st17{fill:#FF4D56;}
	.st18{fill:#F9D162;}
	.st19{fill:none;stroke:#FF4D56;stroke-miterlimit:10;}
	.st20{fill:none;stroke:#F9D162;stroke-miterlimit:10;}
	.st21{fill:none;stroke:#95E561;stroke-miterlimit:10;}
	.st22{fill:none;stroke:#95E561;stroke-width:0.72;stroke-miterlimit:10;}
	.st23{fill:#91DC5A;}
	.st24{fill:#C6C6C6;}
	.st25{fill:none;stroke:#95E561;stroke-width:1.62;stroke-miterlimit:10;}
	.st26{fill:#FFFFFF;}
	.st27{fill:none;stroke:#95E561;stroke-width:1.08;stroke-miterlimit:10;}
	.st28{fill:#333333;}
	.st29{fill:none;}
	.st30{opacity:0.63;fill:#4ED31C;enable-background:new    ;}
	.st31{opacity:0.65;fill:#62C43D;enable-background:new    ;}
	.st32{opacity:0.66;fill:#EDF726;enable-background:new    ;}
	.st33{opacity:0.52;fill:#74F244;enable-background:new    ;}
	.st34{opacity:0.65;fill:#E0EF1D;enable-background:new    ;}
	.st35{opacity:0.63;fill:#F43D19;enable-background:new    ;}
	.st36{fill:none;stroke:#91DC5A;stroke-width:1.368;stroke-linecap:round;stroke-miterlimit:10;}
</style>
<ellipse class="st0" cx="185.3" cy="-17.5" rx="9.7" ry="9.7"/>
<line class="st1" x1="-392" y1="-49.6" x2="-344.7" y2="-49.6"/>
<text transform="matrix(1 0 0 1 548.7308 137.5242)" class="st3" style="font-family:'Quicksand-Medium'; font-size:24px;">my roadmap</text>
<path class="st4" d="M-367.8-29.7L-367.8-29.7c-3.2-3.2-8.5-3.2-11.7,0l0,0c-2.9,2.9-3.2,8.4-0.8,11.7l6.6,9.5l6.6-9.5
	C-364.5-21.3-364.9-26.8-367.8-29.7z M-373.5-21.2c-1.5,0-2.7-1.2-2.7-2.7s1.2-2.7,2.7-2.7s2.7,1.2,2.7,2.7S-372-21.2-373.5-21.2z"
	/>
<g>
	<g>
		<rect x="-322.9" y="-231.1" class="st5" width="29.8" height="17"/>
		<path class="st6" d="M-293.5-230.7v16.3h-29.1v-16.3H-293.5 M-292.7-231.4h-30.5v17.8h30.5V-231.4L-292.7-231.4z"/>
	</g>
</g>
<g>
	<polygon class="st7" points="-322.9,-214 -322.9,-230.8 -294.1,-214 	"/>
	<path class="st6" d="M-322.5-230.2l27.1,15.8h-27.1V-230.2 M-323.2-231.4v17.8h30.5L-323.2-231.4L-323.2-231.4z"/>
</g>
<path class="st8" d="M-373.4-181.9h-7.8c-1.6,0-2.9,1.3-2.9,2.9v20.9c0,1.6,1.3,2.9,2.9,2.9h7.8c1.6,0,2.9-1.3,2.9-2.9V-179
	C-370.5-180.6-371.8-181.9-373.4-181.9z"/>
<circle class="st4" cx="-377.3" cy="-176.7" r="2.7"/>
<circle class="st9" cx="-377.3" cy="-168.6" r="2.7"/>
<circle class="st10" cx="-377.3" cy="-160.5" r="2.7"/>
<circle class="st4" cx="-346.9" cy="-177.4" r="3.5"/>
<circle class="st9" cx="-346.9" cy="-167.1" r="3.5"/>
<circle class="st10" cx="-346.9" cy="-156.7" r="3.5"/>
<circle class="st4" cx="-390.2" cy="-49.6" r="4.4"/>
<path class="st9" d="M-343-29.7L-343-29.7c-3.2-3.2-8.5-3.2-11.7,0l0,0c-2.9,2.9-3.2,8.4-0.8,11.7l6.6,9.5l6.6-9.5
	C-339.7-21.3-340-26.8-343-29.7z M-348.7-21.2c-1.5,0-2.7-1.2-2.7-2.7s1.2-2.7,2.7-2.7s2.7,1.2,2.7,2.7S-347.2-21.2-348.7-21.2z"/>
<circle class="st9" cx="-366.5" cy="-50" r="4.1"/>
<path class="st10" d="M-319.6-29.7L-319.6-29.7c-3.2-3.2-8.5-3.2-11.7,0l0,0c-2.9,2.9-3.2,8.4-0.8,11.7l6.6,9.5l6.6-9.5
	C-316.4-21.3-316.7-26.8-319.6-29.7z M-325.4-21.2c-1.5,0-2.7-1.2-2.7-2.7s1.2-2.7,2.7-2.7s2.7,1.2,2.7,2.7S-323.9-21.2-325.4-21.2z
	"/>
<circle class="st10" cx="-344.7" cy="-50" r="4.1"/>
<path class="st11" d="M-371.5-135.8L-371.5-135.8c-3.2-3.2-8.5-3.2-11.7,0l0,0c-2.9,2.9-3.2,8.4-0.8,11.7l6.6,9.5l6.6-9.5
	C-368.3-127.4-368.6-132.9-371.5-135.8z M-377.3-127.3c-1.5,0-2.7-1.2-2.7-2.7s1.2-2.7,2.7-2.7s2.7,1.2,2.7,2.7
	C-374.6-128.6-375.8-127.3-377.3-127.3z"/>
<circle class="st11" cx="-377.4" cy="-109.8" r="2.7"/>
<g>
	<path d="M-276.3-178.7L-276.3-178.7L-276.3-178.7L-276.3-178.7z"/>
	<path class="st12" d="M-283-181.9h-25.4c-1.6,0-2.8,1.3-2.8,2.8v3.4c0,1.6,1.3,2.8,2.8,2.8h16.8c0.2,0,0.3,0.1,0.3,0.3v4.7
		c0,1.6,1.3,3,3,3l0.3-3.2v-4.4c0-1.9-1.6-3.5-3.5-3.5H-308v-2.7h22.7C-286.2-178.7-287.2-181.9-283-181.9z"/>
	<path class="st13" d="M-281.8-180.3c0,2.3-1.9,4.2-4.2,4.2s-4.2-1.9-4.2-4.2s1.9-4.2,4.2-4.2C-283.7-184.6-281.8-182.7-281.8-180.3
		z"/>
	<circle class="st14" cx="-309.5" cy="-174.3" r="3.9"/>
</g>
<g>
	<g>
		<path class="st10" d="M-329.3,37.7l5.6,11.6l5.6-11.6c0.4-0.9,0.7-1.8,0.7-2.8c0-3.5-2.8-6.3-6.3-6.3s-6.3,2.8-6.3,6.3
			C-329.9,35.9-329.7,36.9-329.3,37.7z M-327.1,34.9c0-1.9,1.6-3.5,3.5-3.5s3.5,1.6,3.5,3.5s-1.6,3.5-3.5,3.5
			S-327.1,36.8-327.1,34.9z"/>
		<path class="st4" d="M-369.5,47.7c0,0.8,0.2,1.6,0.5,2.3l4.5,9.3l4.5-9.3c0.3-0.7,0.5-1.5,0.5-2.3c0-2.8-2.3-5.1-5.1-5.1
			C-367.2,42.6-369.5,44.9-369.5,47.7z M-367.2,47.7c0-1.5,1.3-2.8,2.8-2.8s2.8,1.3,2.8,2.8s-1.3,2.8-2.8,2.8
			C-366,50.5-367.2,49.3-367.2,47.7z"/>
		<path class="st15" d="M-347.3,59.3h-16.1l1.4-2.4h13.1C-348.9,57-347.3,59.3-347.3,59.3z"/>
		<path class="st15" d="M-326,46.5l-6.8,0.2l-3.2,9.9h-7l-1.4,2.9l9-0.2h1.6l0.4-1.3l2.7-8.8h5.8C-325,49.1-326,46.5-326,46.5z"/>
	</g>
</g>
<path class="st9" d="M-351.2,47.6c0,0.8,0.2,1.6,0.6,2.3l4.7,9.6l4.7-9.6c0.4-0.7,0.6-1.5,0.6-2.3c0-2.9-2.3-5.2-5.2-5.2
	C-348.9,42.4-351.2,44.7-351.2,47.6z M-348.9,47.6c0-1.6,1.3-2.9,2.9-2.9s2.9,1.3,2.9,2.9c0,1.6-1.3,2.9-2.9,2.9
	S-348.9,49.2-348.9,47.6z"/>
<g>
	<g>
		<path class="st10" d="M-260.1-197.8l6.4,13.2l6.4-13.2c0.5-1,0.8-2.1,0.8-3.2c0-4-3.2-7.2-7.2-7.2s-7.2,3.2-7.2,7.2
			C-260.8-199.8-260.6-198.7-260.1-197.8z M-257.6-201c0-2.2,1.8-4,4-4s4,1.8,4,4s-1.8,4-4,4C-255.9-197-257.6-198.8-257.6-201z"/>
		<path class="st4" d="M-263.8-233.1c0,0.8,0.2,1.6,0.5,2.3l4.5,9.3l4.5-9.3c0.3-0.7,0.5-1.5,0.5-2.3c0-2.8-2.3-5.1-5.1-5.1
			C-261.5-238.2-263.8-235.9-263.8-233.1z M-261.5-233.1c0-1.5,1.3-2.8,2.8-2.8s2.8,1.3,2.8,2.8s-1.3,2.8-2.8,2.8
			C-260.3-230.3-261.5-231.5-261.5-233.1z"/>
		<path class="st15" d="M-237-199.6c-5,4.6-9.9,9.6-14.9,14.3c0.5-1.1,1-2.1,1.4-3.2l11.3-11.1l-16.2-24.1l1.7-1.4
			C-253.9-225.4-239.7-202.9-237-199.6z"/>
	</g>
</g>
<path class="st9" d="M-241.5-211.5c0,0.8,0.2,1.6,0.6,2.3l4.7,9.6l4.7-9.6c0.4-0.7,0.6-1.5,0.6-2.3c0-2.9-2.3-5.2-5.2-5.2
	C-239.1-216.8-241.5-214.4-241.5-211.5z M-239.1-211.5c0-1.6,1.3-2.9,2.9-2.9s2.9,1.3,2.9,2.9s-1.3,2.9-2.9,2.9
	C-237.8-208.7-239.1-210-239.1-211.5z"/>
<circle class="st16" cx="-289.8" cy="-167.3" r="4"/>
<g>
	<g>
		<path class="st10" d="M-300.5-125.7l5.6,11.6l5.6-11.6c0.4-0.9,0.7-1.8,0.7-2.8c0-3.5-2.8-6.3-6.3-6.3s-6.3,2.8-6.3,6.3
			C-301.2-127.6-300.9-126.6-300.5-125.7z M-298.3-128.6c0-1.9,1.6-3.5,3.5-3.5s3.5,1.6,3.5,3.5s-1.6,3.5-3.5,3.5
			C-296.8-125.1-298.3-126.7-298.3-128.6z"/>
		<path class="st4" d="M-340.7-115.8c0,0.8,0.2,1.6,0.5,2.3l4.5,9.3l4.5-9.3c0.3-0.7,0.5-1.5,0.5-2.3c0-2.8-2.3-5.1-5.1-5.1
			C-338.4-120.8-340.7-118.6-340.7-115.8z M-338.4-115.8c0-1.5,1.3-2.8,2.8-2.8s2.8,1.3,2.8,2.8s-1.3,2.8-2.8,2.8
			C-337.2-113-338.4-114.2-338.4-115.8z"/>
		<path class="st15" d="M-318.5-104.2h-16.1l1.4-2.4h13.1C-320.1-106.5-318.5-104.2-318.5-104.2z"/>
		<polygon class="st15" points="-298.8,-114.1 -304.6,-114.1 -307,-106.4 -312,-106.3 -313.6,-104.1 -306.7,-104.2 -305.1,-104.3 
			-304.7,-105.6 -302.9,-111.4 -297.6,-111.4 		"/>
	</g>
</g>
<path class="st9" d="M-319.5-115.9c0,0.8,0.2,1.6,0.6,2.3l4.7,9.6l4.7-9.6c0.4-0.7,0.6-1.5,0.6-2.3c0-2.9-2.3-5.2-5.2-5.2
	C-317.2-121.1-319.5-118.7-319.5-115.9z M-317.2-115.9c0-1.6,1.3-2.9,2.9-2.9s2.9,1.3,2.9,2.9s-1.3,2.9-2.9,2.9
	S-317.2-114.3-317.2-115.9z"/>
<circle class="st17" cx="27.7" cy="-48.5" r="3.5"/>
<circle class="st18" cx="27.7" cy="-59.4" r="3.5"/>
<circle class="st0" cx="27.7" cy="-70.5" r="3.5"/>
<circle class="st17" cx="59" cy="-58.4" r="3.5"/>
<circle class="st18" cx="70" cy="-58.4" r="3.5"/>
<circle class="st0" cx="81" cy="-58.3" r="3.5"/>
<g>
	<path class="st17" d="M-58.6-15.4L-58.6-15.4v6.7h-2.2v-6.7H-58.6 M-58.6-16.2h-2.2c-0.4,0-0.7,0.3-0.7,0.7v6.6
		c0,0.4,0.3,0.7,0.7,0.7h2.2c0.4,0,0.7-0.3,0.7-0.7v-6.6C-57.8-15.8-58.2-16.2-58.6-16.2L-58.6-16.2z"/>
</g>
<g>
	<path class="st18" d="M-53.4-19.9c0.1,0,0.2,0.1,0.2,0.2V-9c0,0.1-0.1,0.2-0.2,0.2h-1.8c-0.1,0-0.2-0.1-0.2-0.2v-10.7
		c0-0.1,0.1-0.2,0.2-0.2L-53.4-19.9 M-53.4-20.6h-1.8c-0.5,0-0.9,0.4-0.9,0.9V-9c0,0.5,0.4,0.9,0.9,0.9h1.8c0.5,0,0.9-0.4,0.9-0.9
		v-10.7C-52.5-20.2-52.9-20.6-53.4-20.6L-53.4-20.6z"/>
</g>
<g>
	<path class="st0" d="M-48.2-25.3c0.2,0,0.4,0.2,0.4,0.4v15.8c0,0.2-0.2,0.4-0.4,0.4h-1.4c-0.2,0-0.4-0.2-0.4-0.4v-15.8
		c0-0.2,0.2-0.4,0.4-0.4H-48.2 M-48.2-26.1h-1.4c-0.6,0-1.1,0.5-1.1,1.1v15.8c0,0.6,0.5,1.1,1.1,1.1h1.4c0.6,0,1.1-0.5,1.1-1.1V-25
		C-47.1-25.6-47.6-26.1-48.2-26.1L-48.2-26.1z"/>
</g>
<circle class="st19" cx="-58.9" cy="-40.7" r="3.1"/>
<circle class="st20" cx="-49.8" cy="-40.7" r="3.1"/>
<circle class="st21" cx="-54.4" cy="-50.4" r="3.1"/>
<path class="st19" d="M-89.9-82.5l5.2-9c0.3-0.5,0.9-0.5,1.2,0l5.2,9c0.3,0.5-0.1,1-0.6,1h-10.4C-89.8-81.4-90.2-82-89.9-82.5z"/>
<path class="st20" d="M-75.4-82.5l5.2-9c0.3-0.5,0.9-0.5,1.2,0l5.2,9c0.3,0.5-0.1,1-0.6,1h-10.4C-75.4-81.4-75.7-82-75.4-82.5z"/>
<path class="st22" d="M-71.3-95.9l-5.2,9c-0.3,0.5-0.9,0.5-1.2,0l-5.2-9c-0.3-0.5,0.1-1,0.6-1h10.4C-71.3-97-71-96.4-71.3-95.9z"/>
<g>
	<g>
		<path class="st0" d="M-29.1-56.6c-5.1,0-9.3,4.2-9.3,9.3s4.2,9.3,9.3,9.3s9.3-4.2,9.3-9.3C-19.8-52.4-23.9-56.6-29.1-56.6z
			 M-29.1-39.7c-4.2,0-7.6-3.4-7.6-7.6s3.4-7.6,7.6-7.6s7.6,3.4,7.6,7.6S-24.9-39.7-29.1-39.7z"/>
		<path class="st0" d="M-24.2-52.1l-3.6,6.1l-2.4-2.4C-30.3-48.5-24.2-52.1-24.2-52.1z"/>
		<path class="st0" d="M-33.9-42.4l6.1-3.6l-2.4-2.4C-30.3-48.5-33.9-42.4-33.9-42.4z"/>
	</g>
</g>
<g>
	<g>
		<path class="st23" d="M-86.4-24.2c-5.5,0-9.9,4.4-9.9,9.9s4.4,9.9,9.9,9.9s9.9-4.4,9.9-9.9S-80.9-24.2-86.4-24.2z M-81.5-18.6
			l-3.1,5.8c0,0.1-0.1,0.1-0.2,0.2l-5.8,3.1c-0.1,0-0.1,0.1-0.2,0.1s-0.2,0-0.3-0.1s-0.2-0.4-0.1-0.5l3.1-5.8c0-0.1,0.1-0.1,0.2-0.2
			l5.8-3.1c0.2-0.1,0.4-0.1,0.5,0.1C-81.4-19-81.4-18.8-81.5-18.6z"/>
	</g>
</g>
<ellipse class="st17" cx="80.7" cy="-86.9" rx="5" ry="4.9"/>
<ellipse class="st18" cx="94.1" cy="-86.9" rx="4.5" ry="4.9"/>
<ellipse class="st0" cx="108" cy="-86.6" rx="5" ry="5.2"/>
<g>
	<path class="st24" d="M83.2,55.9c0.6,0.8,0.9,1.8,0.9,3.1v5.9c0,0.2-0.1,0.3-0.2,0.5c-0.1,0.1-0.3,0.2-0.5,0.2s-0.2-0.1-0.4-0.2
		c-0.1-0.1-0.2-0.3-0.2-0.5V59c0-0.9-0.2-1.7-0.7-2.3c-0.4-0.6-1.1-0.9-2-0.9c-0.6,0-1.1,0.1-1.7,0.4c-0.5,0.3-0.9,0.7-1.3,1.1
		c-0.3,0.5-0.5,1-0.5,1.6v5.9c0,0.2-0.1,0.3-0.2,0.5c-0.1,0.1-0.3,0.2-0.5,0.2s-0.3-0.1-0.5-0.2c-0.1-0.1-0.2-0.3-0.2-0.5v-5.9
		c0-0.9-0.2-1.6-0.6-2.2c-0.4-0.6-1.1-0.9-2-0.9c-0.6,0-1.1,0.1-1.6,0.4c-0.5,0.3-0.9,0.7-1.2,1.1c-0.3,0.5-0.5,1-0.5,1.5v5.9
		c0,0.2-0.1,0.3-0.2,0.5c-0.1,0.1-0.3,0.2-0.5,0.2s-0.3-0.1-0.5-0.2c-0.1-0.1-0.2-0.3-0.2-0.5v-9.4c0-0.2,0.1-0.3,0.2-0.5
		c0.1-0.1,0.3-0.2,0.5-0.2s0.3,0.1,0.5,0.2c0.1,0.1,0.2,0.3,0.2,0.5v1.2c0.4-0.6,0.9-1.1,1.5-1.4c0.6-0.4,1.3-0.6,2-0.6
		c0.8,0,1.5,0.2,2.1,0.6c0.6,0.4,1,1,1.3,1.7c0.3-0.6,0.8-1.2,1.6-1.6s1.6-0.7,2.4-0.7C81.7,54.7,82.6,55.1,83.2,55.9z"/>
	<path class="st24" d="M95.8,54.8c0.1,0.1,0.2,0.3,0.2,0.5v9.3c0,1.1-0.2,2.1-0.7,2.8c-0.4,0.8-1,1.4-1.8,1.8s-1.6,0.6-2.6,0.6
		c-0.6,0-1.1-0.1-1.6-0.2s-0.9-0.3-1.3-0.5c-0.3-0.2-0.4-0.4-0.4-0.6c0,0,0-0.1,0-0.2s0.1-0.2,0.2-0.3s0.2-0.1,0.3-0.1
		c0.1,0,0.2,0,0.3,0.1c0.9,0.5,1.8,0.7,2.6,0.7c1.2,0,2.1-0.4,2.8-1.1c0.7-0.7,1-1.7,1-3v-0.7c-0.4,0.6-0.9,1.1-1.5,1.4
		c-0.7,0.4-1.4,0.5-2.1,0.5c-1.2,0-2.1-0.4-2.8-1.1s-0.9-1.7-0.9-3v-6.4c0-0.2,0.1-0.3,0.2-0.5c0.1-0.1,0.3-0.2,0.5-0.2
		s0.3,0.1,0.5,0.2c0.1,0.1,0.2,0.3,0.2,0.5v6.3c0,1,0.2,1.8,0.7,2.3c0.4,0.5,1.1,0.8,2.1,0.8c0.6,0,1.1-0.1,1.6-0.4s0.9-0.7,1.3-1.1
		c0.3-0.5,0.5-1,0.5-1.5v-6.3c0-0.2,0.1-0.3,0.2-0.5C95.4,54.8,95.6,54.7,95.8,54.8C95.5,54.6,95.6,54.7,95.8,54.8z"/>
	<path class="st24" d="M110.7,54.7c0.2,0.1,0.3,0.3,0.3,0.5s-0.1,0.4-0.2,0.5s-0.2,0.2-0.4,0.2c-0.1,0-0.2,0-0.4-0.1
		c-0.2-0.1-0.4-0.1-0.6-0.1c-0.5,0-1,0.2-1.5,0.6c-0.5,0.4-0.9,0.9-1.3,1.5c-0.3,0.6-0.5,1.3-0.5,1.9v5.2c0,0.2-0.1,0.3-0.2,0.5
		c-0.1,0.1-0.3,0.2-0.5,0.2s-0.3-0.1-0.5-0.2c-0.1-0.1-0.2-0.3-0.2-0.5v-9.4c0-0.2,0.1-0.3,0.2-0.5c0.1-0.1,0.3-0.2,0.5-0.2
		s0.3,0.1,0.5,0.2c0.1,0.1,0.2,0.3,0.2,0.5v1.9c0.3-0.8,0.8-1.5,1.5-2s1.4-0.8,2.3-0.8C110.3,54.6,110.5,54.6,110.7,54.7z"/>
	<path class="st24" d="M121.8,63c-0.5,0.9-1.1,1.5-1.9,2s-1.7,0.7-2.7,0.7s-1.9-0.2-2.7-0.7s-1.4-1.2-1.9-2
		c-0.5-0.9-0.7-1.8-0.7-2.9c0-1.1,0.2-2,0.7-2.9s1.1-1.5,1.9-2s1.7-0.7,2.7-0.7s1.9,0.2,2.7,0.7c0.8,0.5,1.4,1.2,1.9,2
		s0.7,1.8,0.7,2.9S122.3,62.2,121.8,63z M120.7,57.9c-0.4-0.7-0.8-1.2-1.5-1.6c-0.6-0.4-1.3-0.6-2.1-0.6c-0.8,0-1.4,0.2-2.1,0.6
		c-0.6,0.4-1.1,0.9-1.5,1.6s-0.5,1.4-0.5,2.3c0,0.8,0.2,1.6,0.5,2.2c0.4,0.7,0.8,1.2,1.5,1.6c0.6,0.4,1.3,0.6,2.1,0.6
		c0.8,0,1.4-0.2,2.1-0.6c0.6-0.4,1.1-0.9,1.5-1.6c0.3-0.7,0.5-1.4,0.5-2.3C121.2,59.2,121.1,58.6,120.7,57.9z"/>
	<path class="st24" d="M134.3,55c0.1,0.1,0.2,0.3,0.2,0.5V65c0,0.2-0.1,0.3-0.2,0.5c-0.1,0.1-0.3,0.2-0.5,0.2s-0.3-0.1-0.5-0.2
		c-0.1-0.1-0.2-0.3-0.2-0.5v-1.4c-0.4,0.6-0.9,1.2-1.6,1.6c-0.7,0.4-1.5,0.7-2.3,0.7c-0.9,0-1.8-0.2-2.5-0.7s-1.3-1.2-1.8-2
		c-0.4-0.9-0.6-1.8-0.6-2.9c0-1.1,0.2-2,0.7-2.9c0.4-0.8,1-1.5,1.8-2c0.7-0.5,1.6-0.7,2.5-0.7c0.8,0,1.6,0.2,2.3,0.6
		c0.7,0.4,1.2,0.9,1.6,1.6v-1.3c0-0.2,0.1-0.3,0.2-0.5s0.3-0.2,0.5-0.2C134,54.8,134.1,54.9,134.3,55z M131.4,64
		c0.6-0.4,1-0.9,1.4-1.6c0.3-0.7,0.5-1.4,0.5-2.3c0-0.8-0.2-1.6-0.5-2.2c-0.3-0.7-0.8-1.2-1.4-1.6s-1.2-0.6-2-0.6s-1.4,0.2-2,0.6
		s-1,0.9-1.4,1.6c-0.3,0.7-0.5,1.4-0.5,2.3c0,0.9,0.2,1.6,0.5,2.3s0.8,1.2,1.4,1.6c0.6,0.4,1.2,0.6,2,0.6
		C130.2,64.6,130.8,64.4,131.4,64z"/>
	<path class="st24" d="M146.9,50.2c0.1,0.1,0.2,0.3,0.2,0.5V65c0,0.2-0.1,0.3-0.2,0.5c-0.1,0.1-0.3,0.2-0.5,0.2s-0.3-0.1-0.5-0.2
		c-0.1-0.1-0.2-0.3-0.2-0.5v-1.6c-0.4,0.6-0.9,1.2-1.6,1.6s-1.5,0.7-2.3,0.7c-0.9,0-1.8-0.2-2.5-0.7s-1.3-1.2-1.8-2
		c-0.4-0.9-0.7-1.8-0.7-2.9c0-1,0.2-2,0.7-2.9c0.4-0.9,1-1.5,1.8-2c0.7-0.5,1.6-0.7,2.5-0.7c0.8,0,1.6,0.2,2.3,0.6
		c0.7,0.4,1.2,0.9,1.6,1.6v-6.2c0-0.2,0.1-0.3,0.2-0.5s0.3-0.2,0.5-0.2C146.6,50,146.8,50.1,146.9,50.2z M144,64
		c0.6-0.4,1-0.9,1.4-1.6c0.3-0.7,0.5-1.4,0.5-2.3c0-0.8-0.2-1.6-0.5-2.2c-0.3-0.7-0.8-1.2-1.4-1.6s-1.2-0.6-2-0.6s-1.4,0.2-2,0.6
		s-1,0.9-1.4,1.6c-0.3,0.7-0.5,1.4-0.5,2.2s0.2,1.6,0.5,2.3s0.8,1.2,1.4,1.6c0.6,0.4,1.2,0.6,2,0.6S143.5,64.4,144,64z"/>
	<path class="st24" d="M165.3,55.9c0.6,0.8,0.9,1.8,0.9,3.1v5.9c0,0.2-0.1,0.3-0.2,0.5c-0.1,0.1-0.3,0.2-0.5,0.2s-0.3-0.1-0.5-0.2
		c-0.1-0.1-0.2-0.3-0.2-0.5V59c0-0.9-0.2-1.7-0.7-2.3c-0.4-0.6-1.1-0.9-2-0.9c-0.6,0-1.1,0.1-1.7,0.4c-0.5,0.3-0.9,0.7-1.3,1.1
		c-0.3,0.5-0.5,1-0.5,1.6v5.9c0,0.2-0.1,0.3-0.2,0.5c-0.1,0.1-0.3,0.2-0.5,0.2s-0.3-0.1-0.5-0.2c-0.1-0.1-0.2-0.3-0.2-0.5v-5.9
		c0-0.9-0.2-1.6-0.6-2.2c-0.4-0.6-1.1-0.9-2-0.9c-0.6,0-1.1,0.1-1.6,0.4c-0.5,0.3-0.9,0.7-1.2,1.1c-0.3,0.5-0.5,1-0.5,1.5v5.9
		c0,0.2-0.1,0.3-0.2,0.5c-0.1,0.1-0.3,0.2-0.5,0.2s-0.3-0.1-0.5-0.2c-0.1-0.1-0.2-0.3-0.2-0.5v-9.4c0-0.2,0.1-0.3,0.2-0.5
		c0.1-0.1,0.3-0.2,0.5-0.2s0.3,0.1,0.5,0.2c0.1,0.1,0.2,0.3,0.2,0.5v1.2c0.4-0.6,0.9-1.1,1.5-1.4c0.6-0.4,1.3-0.6,2-0.6
		c0.8,0,1.5,0.2,2.1,0.6c0.6,0.4,1,1,1.3,1.7c0.3-0.6,0.8-1.2,1.6-1.6c0.8-0.4,1.6-0.7,2.4-0.7C163.8,54.7,164.7,55.1,165.3,55.9z"
		/>
	<path class="st24" d="M178.7,55c0.1,0.1,0.2,0.3,0.2,0.5V65c0,0.2-0.1,0.3-0.2,0.5c-0.1,0.1-0.3,0.2-0.5,0.2s-0.3-0.1-0.5-0.2
		c-0.1-0.1-0.2-0.3-0.2-0.5v-1.4c-0.4,0.6-0.9,1.2-1.6,1.6c-0.7,0.4-1.5,0.7-2.3,0.7c-0.9,0-1.8-0.2-2.5-0.7s-1.3-1.2-1.8-2
		c-0.4-0.9-0.6-1.8-0.6-2.9c0-1.1,0.2-2,0.7-2.9c0.4-0.8,1-1.5,1.8-2c0.7-0.5,1.6-0.7,2.5-0.7c0.8,0,1.6,0.2,2.3,0.6
		c0.7,0.4,1.2,0.9,1.6,1.6v-1.3c0-0.2,0.1-0.3,0.2-0.5s0.3-0.2,0.5-0.2C178.4,54.8,178.6,54.9,178.7,55z M175.8,64
		c0.6-0.4,1-0.9,1.4-1.6c0.3-0.7,0.5-1.4,0.5-2.3c0-0.8-0.2-1.6-0.5-2.2c-0.3-0.6-0.8-1.2-1.4-1.6c-0.6-0.4-1.2-0.6-2-0.6
		s-1.4,0.2-2,0.6c-0.6,0.4-1,0.9-1.4,1.6c-0.3,0.7-0.5,1.4-0.5,2.3c0,0.9,0.2,1.6,0.5,2.3s0.8,1.2,1.4,1.6c0.6,0.4,1.2,0.6,2,0.6
		C174.6,64.6,175.3,64.4,175.8,64z"/>
	<path class="st24" d="M189.8,55.4c0.8,0.5,1.3,1.1,1.8,2c0.4,0.8,0.6,1.8,0.6,2.8s-0.2,2-0.6,2.8c-0.4,0.8-1,1.5-1.8,2
		s-1.6,0.7-2.5,0.7c-0.8,0-1.6-0.2-2.2-0.6c-0.7-0.4-1.2-0.9-1.6-1.5v5.5c0,0.2-0.1,0.3-0.2,0.5c-0.1,0.1-0.3,0.2-0.5,0.2
		s-0.3-0.1-0.5-0.2c-0.1-0.1-0.2-0.3-0.2-0.5V55.4c0-0.2,0.1-0.3,0.2-0.5c0.1-0.1,0.3-0.2,0.5-0.2s0.3,0.1,0.5,0.2
		c0.2,0.1,0.2,0.3,0.2,0.5v1.4c0.4-0.7,0.9-1.2,1.6-1.6c0.7-0.4,1.4-0.6,2.3-0.6C188.2,54.7,189,55,189.8,55.4z M189.1,64
		c0.6-0.4,1-0.9,1.4-1.5s0.5-1.4,0.5-2.2s-0.2-1.5-0.5-2.2s-0.8-1.2-1.4-1.5c-0.6-0.4-1.2-0.6-2-0.6c-0.7,0-1.4,0.2-2,0.5
		c-0.6,0.4-1,0.9-1.4,1.5c-0.3,0.7-0.5,1.4-0.5,2.2s0.2,1.6,0.5,2.2c0.3,0.6,0.8,1.2,1.4,1.5c0.6,0.4,1.3,0.6,2,0.6
		C187.9,64.5,188.5,64.3,189.1,64z"/>
</g>
<g>
	<g>
		<path class="st23" d="M-127.3-34.3c-12.2,0-22.2,10-22.2,22.2s10,22.2,22.2,22.2s22.2-10,22.2-22.2S-115.1-34.3-127.3-34.3z
			 M-116.4-21.7l-7,13.1c-0.1,0.2-0.2,0.3-0.4,0.4l-13.1,7c-0.2,0.1-0.3,0.1-0.5,0.1c-0.3,0-0.5-0.1-0.7-0.3
			c-0.3-0.3-0.4-0.8-0.2-1.2l7-13.1c0.1-0.2,0.2-0.3,0.4-0.4l13.1-7c0.4-0.2,0.9-0.1,1.2,0.2C-116.2-22.6-116.1-22.1-116.4-21.7z"/>
	</g>
</g>
<g>
	<g>
		<path class="st23" d="M-127.3-14.5c-1.3,0-2.4,1.1-2.4,2.4s1.1,2.4,2.4,2.4s2.4-1.1,2.4-2.4C-124.9-13.4-126-14.5-127.3-14.5z"/>
	</g>
</g>
<g>
	<circle class="st25" cx="17.5" cy="13.6" r="9.7"/>
	<g>
		<path class="st23" d="M23.3,15.1l-5.7-5.7c-0.1-0.1-0.2-0.1-0.3-0.1s-0.2,0-0.3,0.1l-5.7,5.7c-0.1,0.1-0.1,0.2-0.1,0.3
			s0,0.2,0.1,0.3l0.6,0.6c0.1,0.1,0.2,0.1,0.3,0.1s0.2,0,0.3-0.1l4.8-4.8l4.8,4.8c0.1,0.1,0.2,0.1,0.3,0.1s0.2,0,0.3-0.1l0.6-0.6
			c0.1-0.1,0.1-0.2,0.1-0.3S23.5,15.2,23.3,15.1z"/>
	</g>
</g>
<g>
	<path class="st23" d="M71.4-14.1l-7.5-7.5c-0.1-0.1-0.2-0.2-0.4-0.2s-0.3,0.1-0.4,0.2l-7.5,7.5c-0.1,0.1-0.2,0.2-0.2,0.4
		c0,0.1,0.1,0.3,0.2,0.4l0.8,0.8c0.1,0.1,0.2,0.2,0.4,0.2s0.3-0.1,0.4-0.2l6.3-6.3l6.3,6.3c0.1,0.1,0.2,0.2,0.4,0.2
		c0.1,0,0.3-0.1,0.4-0.2l0.8-0.8c0.1-0.1,0.2-0.2,0.2-0.4C71.6-13.8,71.5-14,71.4-14.1z"/>
</g>
<circle class="st0" cx="8.5" cy="-18.2" r="9.7"/>
<g>
	<path class="st26" d="M14.5-16.3L8.8-22c-0.1-0.1-0.2-0.1-0.3-0.1s-0.2,0-0.3,0.1l-5.7,5.7c-0.1,0.1-0.1,0.2-0.1,0.3s0,0.2,0.1,0.3
		l0.6,0.6C3.2-15,3.3-15,3.4-15c0.1,0,0.2,0,0.3-0.1l4.8-4.8l4.8,4.8c0.1,0.1,0.2,0.1,0.3,0.1s0.2,0,0.3-0.1l0.6-0.6
		c0.1-0.1,0.1-0.2,0.1-0.3S14.6-16.2,14.5-16.3z"/>
</g>
<g>
	<g>
		<path class="st23" d="M98.1-14.5l-7.7-7.7c-0.1-0.1-0.2-0.2-0.4-0.2c-0.1,0-0.3,0.1-0.4,0.2L82-14.5c-0.1,0.1-0.2,0.2-0.2,0.4
			c0,0.1,0.1,0.3,0.2,0.4l0.8,0.8c0.1,0.1,0.2,0.2,0.4,0.2c0.2,0,0.3-0.1,0.4-0.2l6.5-6.5l6.5,6.5c0.1,0.1,0.2,0.2,0.4,0.2
			c0.1,0,0.3-0.1,0.4-0.2l0.8-0.8c0.1-0.1,0.2-0.2,0.2-0.4C98.2-14.2,98.2-14.4,98.1-14.5z"/>
	</g>
	<g>
		<path class="st23" d="M111.5-13.9l-11-11c-0.1-0.1-0.2-0.2-0.4-0.2c-0.1,0-0.3,0.1-0.4,0.2l-4.1,4.1L88.8-14
			c-0.1,0.1-0.2,0.2-0.2,0.4c0,0.1,0.1,0.3,0.2,0.4l0.8,0.8c0.1,0.1,0.2,0.2,0.4,0.2c0.1,0,0.3-0.1,0.4-0.2l9.7-9.7l9.8,9.8
			c0.1,0.1,0.2,0.2,0.4,0.2c0.1,0,0.3-0.1,0.4-0.2l0.8-0.8c0.1-0.1,0.2-0.2,0.2-0.4C111.7-13.6,111.6-13.8,111.5-13.9z"/>
	</g>
</g>
<g>
	<g>
		<path class="st23" d="M125.2-22.1c0.2-0.4,0.7-0.4,0.9,0l3.3,5.7l3.3,5.7c0.2,0.4-0.1,0.8-0.5,0.8h-6.5h-6.5
			c-0.4,0-0.7-0.4-0.5-0.8l3.3-5.7L125.2-22.1z"/>
	</g>
	<path class="st23" d="M132.1-24.7c0.3-0.4,0.9-0.4,1.1,0l4,6.9l4,6.9c0.3,0.4-0.1,1-0.6,1h-8h-8c-0.5,0-0.8-0.5-0.6-1l4-6.9
		L132.1-24.7z"/>
</g>
<g>
	<g>
		<path class="st23" d="M162.7-16.1v-6.6c0.4,0,0.9-0.1,1.5-0.4c0.9-0.5,1.8,0.4,1.8,0.4v-2.5c0,0-1.2-0.9-1.9-0.4s-1.8,0.4-1.8,0.4
			v0.7v1.8v0.8c-0.1,0-0.2,0-0.2,0.1l0,0l0,0l-0.4,0.3v-0.1c-0.1-0.9-1.2-0.9-1.2-0.9H160l-0.4,0.6l-0.4-0.6h-0.4
			c-1.2,0-1.2,0.9-1.2,0.9v2.1l0,0l0,0c0,0.2,0.2,0.4,0.4,0.4s0.4-0.2,0.4-0.4l0,0v-1.9h0.2v5.1c-3.3,0.6-5.7,3-5.7,5.9h14.6
			C167.4-13,165.4-15.3,162.7-16.1z M160.9-21.5v0.6l0,0c0,0.2,0.2,0.4,0.4,0.4c0.1,0,0.1,0,0.2,0l0,0l0.6-0.4l0.3-0.2v4.9
			c-0.5-0.1-1.1-0.2-1.6-0.3v-5H160.9z M159.5-19.3h0.2v2.8c-0.1,0-0.1,0-0.2,0V-19.3L159.5-19.3z M158.7-23.5
			c0-0.5,0.4-0.8,0.8-0.8c0.5,0,0.8,0.4,0.8,0.8c0,0.5-0.4,0.8-0.8,0.8S158.7-23.1,158.7-23.5z"/>
	</g>
</g>
<g>
	<g>
		<g>
			<path class="st23" d="M159.1-44.5c0.6,0,0.9-0.1,1.8-0.6c1.5-0.8,2.8,0.6,2.8,0.6v-3.9c0,0-1.9-1.4-2.9-0.6s-2.9,0.6-2.9,0.6v1.1
				v11.6h1.2L159.1-44.5L159.1-44.5z"/>
		</g>
	</g>
</g>
<circle class="st27" cx="160.4" cy="-42.4" r="9.7"/>
<g>
	<g>
		<g>
			<path class="st26" d="M184-19.6c0.6,0,0.9-0.1,1.8-0.6c1.5-0.8,2.8,0.6,2.8,0.6v-3.9c0,0-1.9-1.4-2.9-0.6s-2.9,0.6-2.9,0.6v1.1
				v11.6h1.2L184-19.6L184-19.6z"/>
		</g>
	</g>
</g>
<g>
	<path class="st17" d="M-21.1-82.1l-8.5-8.5c-0.1-0.1-0.3-0.2-0.4-0.2c-0.2,0-0.3,0.1-0.4,0.2l-8.5,8.5c-0.1,0.1-0.2,0.3-0.2,0.4
		c0,0.2,0.1,0.3,0.2,0.4l0.9,0.9c0.1,0.1,0.3,0.2,0.4,0.2s0.3-0.1,0.4-0.2l7.2-7.2l7.2,7.2c0.1,0.1,0.3,0.2,0.4,0.2
		c0.2,0,0.3-0.1,0.4-0.2l0.9-0.9c0.1-0.1,0.2-0.3,0.2-0.4C-20.9-81.9-20.9-82-21.1-82.1z"/>
</g>
<g>
	<path class="st18" d="M-21.1-88.4l-8.5-8.5c-0.1-0.1-0.3-0.2-0.4-0.2c-0.2,0-0.3,0.1-0.4,0.2l-8.5,8.5c-0.1,0.1-0.2,0.3-0.2,0.4
		c0,0.2,0.1,0.3,0.2,0.4l0.9,1c0.1,0.1,0.3,0.2,0.4,0.2s0.3-0.1,0.4-0.2l7.2-7.2l7.2,7.2c0.1,0.1,0.3,0.2,0.4,0.2
		c0.2,0,0.3-0.1,0.4-0.2l0.9-0.9c0.1-0.1,0.2-0.3,0.2-0.4C-20.9-88.1-20.9-88.2-21.1-88.4z"/>
</g>
<g class="st2">
	<path class="st26" d="M47.7,9.7c0.6,0.8,0.9,1.8,0.9,3.1v5.9c0,0.2-0.1,0.3-0.2,0.5c-0.1,0.1-0.3,0.2-0.5,0.2s-0.3-0.1-0.5-0.2
		c-0.1-0.1-0.2-0.3-0.2-0.5v-5.9c0-0.9-0.2-1.7-0.7-2.3c-0.4-0.6-1.1-0.9-2-0.9c-0.6,0-1.1,0.1-1.7,0.4s-0.9,0.7-1.3,1.1
		c-0.3,0.5-0.5,1-0.5,1.6v5.9c0,0.2-0.1,0.3-0.2,0.5c-0.1,0.1-0.3,0.2-0.5,0.2c-0.2,0-0.3-0.1-0.5-0.2c-0.1-0.1-0.2-0.3-0.2-0.5
		v-5.9c0-0.9-0.2-1.6-0.6-2.2c-0.4-0.6-1.1-0.9-2-0.9c-0.6,0-1.1,0.1-1.6,0.4s-0.9,0.7-1.2,1.1c-0.3,0.5-0.5,1-0.5,1.5v5.9
		c0,0.2-0.1,0.3-0.2,0.5c-0.1,0.1-0.3,0.2-0.5,0.2c-0.2,0-0.3-0.1-0.5-0.2c-0.1-0.1-0.2-0.3-0.2-0.5V9.3c0-0.2,0.1-0.3,0.2-0.5
		c0.1-0.1,0.3-0.2,0.5-0.2c0.2,0,0.3,0.1,0.5,0.2C33.9,9,34,9.2,34,9.3v1.2c0.4-0.6,0.9-1,1.5-1.4c0.6-0.4,1.3-0.6,2-0.6
		c0.8,0,1.5,0.2,2.1,0.6c0.6,0.4,1,1,1.3,1.7c0.3-0.6,0.8-1.2,1.6-1.6s1.6-0.7,2.4-0.7C46.1,8.6,47.1,8.9,47.7,9.7z"/>
	<path class="st26" d="M60.2,8.6c0.1,0.1,0.2,0.3,0.2,0.5v9.3c0,1.1-0.2,2.1-0.7,2.8c-0.4,0.8-1,1.4-1.8,1.8
		c-0.8,0.4-1.6,0.6-2.6,0.6c-0.6,0-1.1-0.1-1.6-0.2c-0.5-0.1-0.9-0.3-1.3-0.5c-0.3-0.2-0.4-0.4-0.4-0.6c0,0,0-0.1,0-0.2
		c0-0.1,0.1-0.2,0.2-0.3c0.1-0.1,0.2-0.1,0.3-0.1c0.1,0,0.2,0,0.3,0.1c0.9,0.5,1.8,0.7,2.6,0.7c1.2,0,2.1-0.4,2.8-1.1
		c0.7-0.7,1-1.7,1-3v-0.7c-0.4,0.6-0.9,1.1-1.5,1.4c-0.7,0.4-1.4,0.5-2.1,0.5c-1.2,0-2.1-0.4-2.8-1.1s-0.9-1.7-0.9-3V9.1
		c0-0.2,0.1-0.3,0.2-0.5c0.1-0.1,0.3-0.2,0.5-0.2c0.2,0,0.3,0.1,0.5,0.2C53,8.7,53,8.9,53,9.1v6.3c0,1,0.2,1.8,0.7,2.3
		c0.4,0.5,1.1,0.8,2.1,0.8c0.6,0,1.1-0.1,1.6-0.4s0.9-0.7,1.3-1.1s0.5-1,0.5-1.5V9.1c0-0.2,0.1-0.3,0.2-0.5c0.1-0.1,0.3-0.2,0.5-0.2
		C59.9,8.5,60.1,8.5,60.2,8.6z"/>
	<path class="st26" d="M75.2,8.6c0.2,0.1,0.3,0.3,0.3,0.5c0,0.2-0.1,0.4-0.2,0.5c-0.1,0.1-0.2,0.2-0.4,0.2c-0.1,0-0.2,0-0.4-0.1
		c-0.2-0.1-0.4-0.1-0.6-0.1c-0.5,0-1,0.2-1.5,0.6s-0.9,0.9-1.3,1.5c-0.3,0.6-0.5,1.3-0.5,1.9v5.2c0,0.2-0.1,0.3-0.2,0.5
		c-0.1,0.1-0.3,0.2-0.5,0.2c-0.2,0-0.3-0.1-0.5-0.2c-0.1-0.1-0.2-0.3-0.2-0.5V9.3c0-0.2,0.1-0.3,0.2-0.5c0.1-0.1,0.3-0.2,0.5-0.2
		c0.2,0,0.3,0.1,0.5,0.2c0.1,0.1,0.2,0.3,0.2,0.5v1.8c0.3-0.8,0.8-1.5,1.5-2c0.7-0.5,1.4-0.8,2.3-0.8C74.7,8.4,75,8.4,75.2,8.6z"/>
	<path class="st26" d="M86.3,16.9c-0.5,0.9-1.1,1.5-1.9,2c-0.8,0.5-1.7,0.7-2.7,0.7s-1.9-0.2-2.7-0.7c-0.8-0.5-1.4-1.2-1.9-2
		C76.6,16,76.3,15,76.3,14s0.2-2,0.7-2.9c0.5-0.9,1.1-1.5,1.9-2s1.7-0.7,2.7-0.7s1.9,0.2,2.7,0.7c0.8,0.5,1.4,1.2,1.9,2
		c0.5,0.9,0.7,1.8,0.7,2.9S86.7,16,86.3,16.9z M85.2,11.7c-0.3-0.7-0.8-1.2-1.5-1.6c-0.6-0.4-1.3-0.6-2.1-0.6
		c-0.8,0-1.4,0.2-2.1,0.6c-0.6,0.4-1.1,0.9-1.5,1.6c-0.4,0.7-0.5,1.4-0.5,2.3c0,0.8,0.2,1.6,0.5,2.2c0.4,0.7,0.8,1.2,1.5,1.6
		c0.6,0.4,1.3,0.6,2.1,0.6c0.8,0,1.4-0.2,2.1-0.6c0.6-0.4,1.1-0.9,1.5-1.6c0.3-0.7,0.5-1.4,0.5-2.3S85.5,12.4,85.2,11.7z"/>
	<path class="st26" d="M98.7,8.8c0.1,0.1,0.2,0.3,0.2,0.5v9.5c0,0.2-0.1,0.3-0.2,0.5c-0.1,0.1-0.3,0.2-0.5,0.2
		c-0.2,0-0.3-0.1-0.5-0.2c-0.1-0.1-0.2-0.3-0.2-0.5v-1.4c-0.4,0.6-0.9,1.2-1.6,1.6c-0.7,0.4-1.5,0.7-2.3,0.7c-0.9,0-1.8-0.2-2.5-0.7
		c-0.7-0.5-1.3-1.2-1.8-2C89,16,88.8,15,88.8,14c0-1.1,0.2-2,0.7-2.9c0.4-0.8,1-1.5,1.8-2c0.7-0.5,1.6-0.7,2.5-0.7
		c0.8,0,1.6,0.2,2.3,0.6c0.7,0.4,1.2,0.9,1.6,1.6V9.3c0-0.2,0.1-0.3,0.2-0.5s0.3-0.2,0.5-0.2C98.4,8.6,98.6,8.7,98.7,8.8z
		 M95.8,17.8c0.6-0.4,1-0.9,1.4-1.6c0.3-0.7,0.5-1.4,0.5-2.3c0-0.8-0.2-1.6-0.5-2.2c-0.3-0.7-0.8-1.2-1.4-1.6
		c-0.6-0.4-1.2-0.6-2-0.6c-0.7,0-1.4,0.2-2,0.6s-1,0.9-1.4,1.6c-0.3,0.7-0.5,1.4-0.5,2.3s0.2,1.6,0.5,2.3c0.3,0.7,0.8,1.2,1.4,1.6
		c0.6,0.4,1.2,0.6,2,0.6C94.6,18.4,95.3,18.2,95.8,17.8z"/>
	<path class="st26" d="M111.3,4c0.1,0.1,0.2,0.3,0.2,0.5v14.3c0,0.2-0.1,0.3-0.2,0.5c-0.1,0.1-0.3,0.2-0.5,0.2
		c-0.2,0-0.3-0.1-0.5-0.2c-0.1-0.1-0.2-0.3-0.2-0.5v-1.5c-0.4,0.6-0.9,1.2-1.6,1.6c-0.7,0.4-1.5,0.7-2.3,0.7c-0.9,0-1.8-0.2-2.5-0.7
		c-0.7-0.5-1.3-1.2-1.8-2c-0.4-0.9-0.7-1.8-0.7-2.9c0-1,0.2-2,0.7-2.9c0.4-0.9,1-1.5,1.8-2c0.7-0.5,1.6-0.7,2.5-0.7
		c0.8,0,1.6,0.2,2.3,0.6s1.2,0.9,1.6,1.6V4.5c0-0.2,0.1-0.3,0.2-0.5s0.3-0.2,0.5-0.2C111.1,3.8,111.2,3.9,111.3,4z M108.5,17.8
		c0.6-0.4,1-0.9,1.4-1.6c0.3-0.7,0.5-1.4,0.5-2.3c0-0.8-0.2-1.6-0.5-2.2c-0.3-0.7-0.8-1.2-1.4-1.6c-0.6-0.4-1.2-0.6-2-0.6
		c-0.7,0-1.4,0.2-2,0.6s-1,0.9-1.4,1.6c-0.3,0.7-0.5,1.4-0.5,2.2c0,0.8,0.2,1.6,0.5,2.3c0.3,0.7,0.8,1.2,1.4,1.6
		c0.6,0.4,1.2,0.6,2,0.6C107.2,18.4,107.9,18.2,108.5,17.8z"/>
	<path class="st26" d="M129.8,9.7c0.6,0.8,0.9,1.8,0.9,3.1v5.9c0,0.2-0.1,0.3-0.2,0.5c-0.1,0.1-0.3,0.2-0.5,0.2
		c-0.2,0-0.3-0.1-0.5-0.2c-0.1-0.1-0.2-0.3-0.2-0.5v-5.9c0-0.9-0.2-1.7-0.7-2.3c-0.4-0.6-1.1-0.9-2-0.9c-0.6,0-1.1,0.1-1.7,0.4
		c-0.5,0.3-0.9,0.7-1.3,1.1c-0.3,0.5-0.5,1-0.5,1.6v5.9c0,0.2-0.1,0.3-0.2,0.5c-0.1,0.1-0.3,0.2-0.5,0.2c-0.2,0-0.3-0.1-0.5-0.2
		c-0.1-0.1-0.2-0.3-0.2-0.5v-5.9c0-0.9-0.2-1.6-0.6-2.2c-0.4-0.6-1.1-0.9-2-0.9c-0.6,0-1.1,0.1-1.6,0.4c-0.5,0.3-0.9,0.7-1.2,1.1
		c-0.3,0.5-0.5,1-0.5,1.5v5.9c0,0.2-0.1,0.3-0.2,0.5c-0.1,0.1-0.3,0.2-0.5,0.2c-0.2,0-0.3-0.1-0.5-0.2c-0.1-0.1-0.2-0.3-0.2-0.5V9.3
		c0-0.2,0.1-0.3,0.2-0.5s0.3-0.2,0.5-0.2c0.2,0,0.3,0.1,0.5,0.2s0.2,0.3,0.2,0.5v1.2c0.4-0.6,0.9-1,1.5-1.4c0.6-0.4,1.3-0.6,2-0.6
		c0.8,0,1.5,0.2,2.1,0.6c0.6,0.4,1,1,1.3,1.7c0.3-0.6,0.8-1.2,1.6-1.6s1.6-0.7,2.4-0.7C128.3,8.6,129.2,8.9,129.8,9.7z"/>
	<path class="st26" d="M143.1,8.8c0.1,0.1,0.2,0.3,0.2,0.5v9.5c0,0.2-0.1,0.3-0.2,0.5c-0.1,0.1-0.3,0.2-0.5,0.2s-0.3-0.1-0.5-0.2
		c-0.1-0.1-0.2-0.3-0.2-0.5v-1.4c-0.3,0.6-0.9,1.2-1.6,1.6c-0.7,0.4-1.5,0.7-2.3,0.7c-0.9,0-1.8-0.2-2.5-0.7c-0.7-0.5-1.3-1.2-1.8-2
		c-0.4-0.9-0.6-1.8-0.6-2.9c0-1.1,0.2-2,0.7-2.9c0.4-0.8,1-1.5,1.8-2c0.7-0.5,1.6-0.7,2.5-0.7c0.8,0,1.6,0.2,2.3,0.6
		s1.2,0.9,1.6,1.6V9.3c0-0.2,0.1-0.3,0.2-0.5s0.3-0.2,0.5-0.2S143,8.7,143.1,8.8z M140.3,17.8c0.6-0.4,1-0.9,1.4-1.6
		c0.3-0.7,0.5-1.4,0.5-2.3c0-0.8-0.2-1.6-0.5-2.2c-0.3-0.7-0.8-1.2-1.4-1.6s-1.2-0.6-2-0.6c-0.7,0-1.4,0.2-2,0.6
		c-0.6,0.4-1,0.9-1.4,1.6c-0.3,0.7-0.5,1.4-0.5,2.3s0.2,1.6,0.5,2.3c0.3,0.7,0.8,1.2,1.4,1.6c0.6,0.4,1.2,0.6,2,0.6
		C139,18.4,139.7,18.2,140.3,17.8z"/>
	<path class="st26" d="M154.2,9.3c0.8,0.5,1.3,1.1,1.8,2c0.4,0.8,0.6,1.8,0.6,2.8c0,1.1-0.2,2-0.6,2.8c-0.4,0.8-1,1.5-1.8,2
		c-0.7,0.5-1.6,0.7-2.5,0.7c-0.8,0-1.6-0.2-2.2-0.6c-0.7-0.4-1.2-0.9-1.6-1.5v5.5c0,0.2-0.1,0.3-0.2,0.5s-0.3,0.2-0.5,0.2
		c-0.2,0-0.3-0.1-0.5-0.2s-0.2-0.3-0.2-0.5V9.2c0-0.2,0.1-0.3,0.2-0.5s0.3-0.2,0.5-0.2c0.2,0,0.3,0.1,0.5,0.2s0.2,0.3,0.2,0.5v1.4
		c0.4-0.7,0.9-1.2,1.6-1.6c0.7-0.4,1.4-0.6,2.3-0.6C152.6,8.6,153.5,8.8,154.2,9.3z M153.6,17.8c0.6-0.4,1-0.9,1.4-1.5
		s0.5-1.4,0.5-2.2c0-0.8-0.2-1.5-0.5-2.2c-0.3-0.7-0.8-1.2-1.4-1.5s-1.2-0.6-2-0.6c-0.7,0-1.4,0.2-2,0.5s-1,0.9-1.4,1.5
		c-0.3,0.7-0.5,1.4-0.5,2.2c0,0.8,0.2,1.6,0.5,2.2c0.3,0.7,0.8,1.2,1.4,1.5c0.6,0.4,1.3,0.6,2,0.6C152.3,18.3,153,18.2,153.6,17.8z"
		/>
</g>
<g>
	<path class="st23" d="M-21.1-94.7l-8.5-8.5c-0.1-0.1-0.3-0.2-0.4-0.2c-0.2,0-0.3,0.1-0.4,0.2l-8.5,8.5c-0.1,0.1-0.2,0.3-0.2,0.4
		c0,0.2,0.1,0.3,0.2,0.4L-38-93c0.1,0.1,0.3,0.2,0.4,0.2s0.3-0.1,0.4-0.2l7.2-7.2l7.2,7.2c0.1,0.1,0.3,0.2,0.4,0.2
		c0.2,0,0.3-0.1,0.4-0.2l0.9-0.9c0.1-0.1,0.2-0.3,0.2-0.4S-20.9-94.6-21.1-94.7z"/>
</g>
<circle class="st0" cx="-68.9" cy="24.6" r="9.7"/>
<polygon class="st28" points="-74,23.7 -70.9,29.1 -67.8,34.5 -74,34.5 -80.3,34.5 -77.2,29.1 "/>
<polygon class="st28" points="-65.6,20.5 -61.5,27.5 -57.5,34.4 -65.6,34.4 -73.6,34.4 -69.6,27.5 "/>
<path class="st0" d="M-36.1,19.7l3.1-5.4l3.1,5.4l0.2,0.3l1.1-1.9l4-7l4,7l1.1,1.9c0.8-1.4,1.3-3,1.3-4.8c0-5.4-4.4-9.7-9.7-9.7
	c-5.4,0-9.7,4.4-9.7,9.7c0,1.7,0.5,3.4,1.3,4.8L-36.1,19.7z"/>
<g>
	<line class="st29" x1="-122" y1="29" x2="-112.5" y2="19.3"/>
	<polyline class="st30" points="-112.5,19.3 -102.9,29.1 -122,29 	"/>
	<polyline class="st31" points="-96.3,29.1 -115.5,29 -106,19.3 	"/>
	<line class="st29" x1="-106" y1="19.3" x2="-96.3" y2="29.1"/>
	<polyline class="st32" points="-122,29.1 -102.9,29.2 -112.3,38.8 -122,29.1 	"/>
	<polyline class="st33" points="-96.3,29.1 -109.2,29 -102.7,22.6 -96.3,29.1 	"/>
	<polygon class="st34" points="-109.2,35.6 -115.7,29.1 -102.9,29.1 	"/>
	<polyline class="st35" points="-96.3,29.1 -102.7,35.6 -109.2,29.1 -96.3,29.1 	"/>
</g>
<g>
	<path class="st21" d="M-26.4-26.4l8.5,8.5c0.4,0.4,0.4,1.1,0,1.6l-8.5,8.5c-0.4,0.4-1.1,0.4-1.6,0l-8.5-8.5c-0.4-0.4-0.4-1.1,0-1.6
		l8.5-8.5C-27.5-26.8-26.8-26.8-26.4-26.4z"/>
	<path class="st0" d="M-26.5-19.9l1.6-1.9l1.7,1.7l1.4-1.6l3.8,3.8c0.4,0.4,0.4,1.1,0,1.6l-8.5,8.5c-0.4,0.4-1.1,0.4-1.6,0l-8.5-8.5
		c-0.4-0.4-0.4-1.1,0-1.6l4.3-4.3l2.1,1.7l1.2-1.4L-26.5-19.9z"/>
</g>
<path class="st36" d="M-26.8,59.2l-5.8-7.6l-5.2,6.6c-0.2,0.4,0.1,1,0.6,1h4.5"/>
<circle class="st36" cx="-32.5" cy="56.2" r="9"/>
<path class="st36" d="M-26.8,88.2l-8.3-8.5l-4.7,7.6c-0.2,0.4,0.1,1,0.6,1h6.8"/>
<path class="st36" d="M-35.1,94.2c-5,0-9-4-9-9s4-9,9-9s9,4,9,9c0,1.1-0.2,2.1-0.5,3"/>
<path class="st36" d="M-30.4,92.9"/>
<path class="st36" d="M-27.5,90.1"/>
<path class="st36" d="M-26.8,88.7"/>
<path class="st36" d="M-26.6,88.2c0,0.1-0.1,0.2-0.1,0.3"/>
<g>
	<g>
		<path class="st0" d="M35.4,41.6c-5.7,0-10.3,4.6-10.3,10.3s4.6,10.3,10.3,10.3s10.3-4.6,10.3-10.3S41.1,41.6,35.4,41.6z
			 M41.8,54.6l-0.6,0.6c-0.1,0.1-0.2,0.1-0.3,0.1s-0.2,0-0.3-0.1l-5.1-5.1l-5.1,5.1c-0.1,0.1-0.2,0.1-0.3,0.1c-0.1,0-0.2,0-0.3-0.1
			l-0.6-0.6c-0.1-0.1-0.1-0.2-0.1-0.3s0-0.2,0.1-0.3l6-6c0.1-0.1,0.2-0.1,0.3-0.1s0.2,0,0.3,0.1l6,6c0.1,0.1,0.1,0.2,0.1,0.3
			S41.9,54.5,41.8,54.6z"/>
	</g>
</g>
<path class="st0" d="M37.4-31.5c5.4,0,9.7,4.3,9.7,9.7s-4.3,9.7-9.7,9.7s-9.7-4.3-9.7-9.7S32-31.5,37.4-31.5z M45.6-20.4l-6.1-6.1
	c-0.1-0.1-0.1-0.1-0.2-0.1s-0.2,0.1-0.2,0.1l-2.3,2.3l-1.1,1.1l-1.8-1.8C33.8-25,33.8-25,33.7-25s-0.2,0.1-0.2,0.1l-4.2,4.3
	c-0.1,0.1-0.1,0.1-0.1,0.2s0.1,0.2,0.1,0.2l0.4,0.4c0.1,0.1,0.1,0.1,0.2,0.1s0.2-0.1,0.2-0.1l3.6-3.6l1.1,1.1l-1.9,1.9
	c-0.1,0.1-0.1,0.1-0.1,0.2s0.1,0.2,0.1,0.2l0.4,0.4c0.1,0.1,0.1,0.1,0.2,0.1s0.2-0.1,0.2-0.1l1.9-1.9l1.6,1.6
	c0.1,0.1,0.1,0.1,0.2,0.1s0.2-0.1,0.2-0.1l0.4-0.4c0.1-0.1,0.1-0.1,0.1-0.2c-0.1-0.1-0.1-0.2-0.2-0.2l-1.6-1.6L39-25l5.4,5.4
	c0.1,0.1,0.1,0.1,0.2,0.1s0.2-0.1,0.2-0.1l0.4-0.4c0.1-0.1,0.1-0.1,0.1-0.2C45.7-20.3,45.7-20.4,45.6-20.4z"/>
</svg>
