<?xml version="1.0" encoding="utf-8"?>
<!-- Generator: Adobe Illustrator 22.1.0, SVG Export Plug-In . SVG Version: 6.00 Build 0)  -->
<svg version="1.1" id="Layer_1" xmlns="http://www.w3.org/2000/svg" xmlns:xlink="http://www.w3.org/1999/xlink" x="0px" y="0px"
	 viewBox="0 0 166.2 32" style="enable-background:new 0 0 166.2 32;" xml:space="preserve">
<style type="text/css">
	.st0{fill:#95E561;}
	.st1{fill:none;stroke:#AAAAAA;stroke-width:1.324;stroke-linecap:round;stroke-miterlimit:10;}
	.st2{enable-background:new    ;}
	.st3{fill:#FFFFFF;}
	.st4{fill:#FF6465;}
	.st5{fill:#FF0000;}
	.st6{fill:#231F20;}
	.st7{fill:#FFFF00;}
	.st8{fill:#F7F7F7;stroke:#000000;stroke-width:1.0332;stroke-miterlimit:10;}
	.st9{fill:#FFD782;}
	.st10{fill:#A5EB78;}
	.st11{fill:#42B766;}
	.st12{fill:#848484;}
	.st13{fill:#FF0303;}
	.st14{fill:#EFE630;}
	.st15{fill:#474747;}
	.st16{fill:#5AEA4E;}
	.st17{fill:#FF4D56;}
	.st18{fill:#F9D162;}
	.st19{fill:none;stroke:#FF4D56;stroke-miterlimit:10;}
	.st20{fill:none;stroke:#F9D162;stroke-miterlimit:10;}
	.st21{fill:none;stroke:#95E561;stroke-miterlimit:10;}
	.st22{fill:none;stroke:#95E561;stroke-width:0.72;stroke-miterlimit:10;}
	.st23{fill:#91DC5A;}
	.st24{fill:#C6C6C6;}
	.st25{fill:none;stroke:#95E561;stroke-width:2.25;stroke-miterlimit:10;}
	.st26{fill:#86B3D0;}
	.st27{fill:none;stroke:#95E561;stroke-width:1.08;stroke-miterlimit:10;}
	.st28{fill:#FFFFFF;stroke:#FFFFFF;stroke-width:0.5;stroke-miterlimit:10;}
	.st29{fill:#333333;}
	.st30{fill:none;stroke:#91DC5A;stroke-width:1.368;stroke-linecap:round;stroke-miterlimit:10;}
	.st31{fill:none;stroke:#95E561;stroke-width:3;stroke-miterlimit:10;}
</style>
<ellipse class="st0" cx="185.3" cy="-13" rx="9.7" ry="9.7"/>
<line class="st1" x1="-392" y1="-45.1" x2="-344.7" y2="-45.1"/>
<g class="st2">
	<path class="st3" d="M91.4,94.2l-0.5,5.8c0,0.3-0.2,0.6-0.4,0.8s-0.4,0.3-0.8,0.3c-0.3,0-0.6-0.1-0.8-0.3c-0.2-0.2-0.3-0.4-0.2-0.7
		l0.5-5.8c0.2-1.9-0.6-2.8-2.3-2.8c-0.6,0-1.1,0.1-1.6,0.4c-0.5,0.3-0.9,0.6-1.2,1c-0.3,0.4-0.5,0.9-0.5,1.4l-0.5,5.8
		c0,0.3-0.1,0.5-0.4,0.7c-0.3,0.2-0.5,0.3-0.8,0.3s-0.6-0.1-0.8-0.3c-0.2-0.2-0.3-0.4-0.2-0.8l0.5-5.8c0.1-0.9-0.1-1.5-0.4-2.1
		c-0.4-0.5-0.9-0.8-1.8-0.8c-0.9,0-1.6,0.3-2.3,0.8c-0.6,0.5-1,1.2-1.1,2l-0.5,5.8c0,0.3-0.1,0.5-0.4,0.7c-0.3,0.2-0.5,0.3-0.8,0.3
		c-0.3,0-0.6-0.1-0.8-0.3c-0.2-0.2-0.3-0.4-0.2-0.8l0.8-9.3c0-0.3,0.1-0.5,0.4-0.7c0.3-0.2,0.5-0.3,0.8-0.3c0.3,0,0.6,0.1,0.8,0.3
		c0.2,0.2,0.3,0.4,0.2,0.7L76,91.2c0.5-0.6,1-1,1.7-1.4c0.7-0.4,1.5-0.6,2.2-0.6c1.9,0,3,0.8,3.4,2.4c0.4-0.6,1-1.2,1.7-1.7
		c0.8-0.5,1.7-0.7,2.5-0.7C90.6,89.4,91.7,90.9,91.4,94.2z"/>
	<path class="st3" d="M103.7,89.8c0.2,0.2,0.3,0.4,0.2,0.7l-0.8,9.4c-0.2,1.8-0.8,3.2-1.9,4.1c-1.1,0.9-2.5,1.3-4.2,1.3
		c-0.6,0-1.1-0.1-1.6-0.2c-0.5-0.1-1-0.2-1.3-0.4c-0.6-0.2-0.7-0.6-0.7-1c0-0.1,0-0.2,0-0.3c0.1-0.2,0.2-0.4,0.5-0.6
		c0.2-0.1,0.4-0.2,0.6-0.2c0.1,0,0.2,0,0.3,0.1c0.5,0.2,0.9,0.4,1.2,0.5c0.4,0.1,0.8,0.2,1.3,0.2c2.3,0,3.6-1.2,3.8-3.5v-0.4
		c-0.4,0.5-1,0.9-1.7,1.2c-0.6,0.3-1.4,0.4-2.2,0.4c-1.2,0-2.2-0.4-2.8-1.2c-0.6-0.8-0.8-1.8-0.7-3l0.6-6.5c0-0.3,0.2-0.6,0.4-0.7
		c0.2-0.2,0.4-0.3,0.8-0.3c0.3,0,0.6,0.1,0.8,0.3c0.2,0.2,0.3,0.4,0.2,0.7l-0.5,6c-0.1,1,0.1,1.7,0.4,2.1c0.4,0.5,1,0.7,1.9,0.7
		c0.9,0,1.6-0.3,2.2-0.8s0.9-1.2,1-2l0.5-6c0-0.3,0.2-0.6,0.4-0.7c0.2-0.2,0.4-0.3,0.8-0.3C103.4,89.4,103.6,89.6,103.7,89.8z"/>
	<path class="st3" d="M114.7,89.7c0.3,0.2,0.4,0.4,0.3,0.7c-0.1,0.3-0.2,0.6-0.4,0.8c-0.2,0.2-0.4,0.3-0.7,0.3c-0.1,0-0.3,0-0.6-0.1
		c-0.3-0.1-0.6-0.2-0.7-0.2c-0.5,0-0.9,0.2-1.4,0.5c-0.4,0.3-0.9,0.7-1.2,1.3c-0.3,0.5-0.5,1.1-0.6,1.8l-0.5,5.2
		c0,0.3-0.1,0.5-0.4,0.7c-0.3,0.2-0.5,0.3-0.8,0.3s-0.6-0.1-0.8-0.3c-0.2-0.2-0.3-0.4-0.2-0.8l0.8-9.3c0-0.3,0.1-0.5,0.4-0.7
		c0.2-0.2,0.5-0.3,0.8-0.3s0.6,0.1,0.8,0.3c0.2,0.2,0.3,0.4,0.2,0.7l0,1.1c0.4-0.7,0.9-1.3,1.6-1.7c0.7-0.4,1.5-0.7,2.3-0.7
		C114.1,89.3,114.4,89.4,114.7,89.7z"/>
	<path class="st3" d="M125.5,98.3c-0.6,0.9-1.3,1.6-2.3,2.1c-0.9,0.5-2,0.8-3.1,0.8s-2.1-0.3-2.9-0.8c-0.9-0.5-1.5-1.2-1.9-2.1
		s-0.6-1.9-0.5-3s0.5-2.2,1.1-3.1s1.3-1.6,2.3-2.1c0.9-0.5,2-0.8,3.1-0.8s2.1,0.3,2.9,0.8c0.9,0.5,1.5,1.2,1.9,2.1s0.6,1.9,0.5,3.1
		C126.5,96.4,126.1,97.4,125.5,98.3z M124.2,93.2c-0.2-0.6-0.7-1.1-1.3-1.4c-0.6-0.3-1.2-0.5-1.9-0.5s-1.3,0.2-1.9,0.5
		s-1.1,0.8-1.5,1.4c-0.5,0.6-0.6,1.3-0.7,2.1s0.1,1.5,0.3,2.1s0.7,1.1,1.3,1.4s1.2,0.5,1.9,0.5s1.3-0.2,1.9-0.5s1.1-0.8,1.5-1.4
		s0.6-1.3,0.7-2.1C124.5,94.6,124.4,93.8,124.2,93.2z"/>
	<path class="st3" d="M139.2,89.8c0.2,0.2,0.3,0.5,0.2,0.8l-0.8,9.4c0,0.3-0.1,0.5-0.4,0.7c-0.3,0.2-0.5,0.3-0.8,0.3
		c-0.3,0-0.6-0.1-0.8-0.3c-0.2-0.2-0.3-0.4-0.2-0.8l0.1-0.6c-0.4,0.5-1,0.9-1.7,1.3c-0.7,0.4-1.4,0.5-2.2,0.5c-1,0-1.9-0.3-2.7-0.8
		c-0.8-0.5-1.4-1.2-1.7-2.1s-0.4-1.8-0.3-2.9s0.4-2.1,1-3.1s1.2-1.6,2.1-2.1c0.8-0.5,1.8-0.8,2.8-0.8c0.8,0,1.5,0.2,2.2,0.5
		c0.7,0.3,1.1,0.7,1.5,1.2v-0.5c0-0.3,0.2-0.6,0.4-0.8c0.2-0.2,0.4-0.3,0.8-0.3C138.8,89.4,139,89.6,139.2,89.8z M135,98.8
		c0.5-0.3,1.1-0.8,1.4-1.4s0.6-1.3,0.7-2.1s-0.1-1.4-0.3-2s-0.6-1.1-1.2-1.4c-0.5-0.4-1.2-0.5-1.9-0.5c-0.7,0-1.3,0.2-1.9,0.5
		c-0.5,0.3-1.1,0.8-1.4,1.4c-0.4,0.6-0.6,1.3-0.7,2.1c-0.1,0.8,0.1,1.5,0.3,2.1c0.2,0.6,0.6,1.1,1.2,1.4c0.5,0.3,1.2,0.5,1.9,0.5
		S134.3,99.2,135,98.8z"/>
	<path class="st3" d="M152.8,85.2c0.2,0.2,0.3,0.4,0.2,0.7l-1.2,14c0,0.3-0.1,0.5-0.4,0.7c-0.3,0.2-0.5,0.3-0.8,0.3
		s-0.6-0.1-0.8-0.3c-0.2-0.2-0.3-0.4-0.2-0.8l0.1-0.6c-0.4,0.5-1,1-1.7,1.3c-0.7,0.4-1.4,0.5-2.2,0.5c-1,0-1.9-0.3-2.7-0.8
		c-0.8-0.5-1.4-1.2-1.8-2.1c-0.4-0.9-0.5-1.9-0.4-3.1c0.1-1.1,0.4-2.1,1-3.1s1.2-1.6,2.1-2.1c0.8-0.5,1.8-0.8,2.8-0.8
		c0.8,0,1.5,0.2,2.2,0.5c0.7,0.3,1.1,0.7,1.5,1.2l0.4-4.7c0-0.3,0.2-0.6,0.4-0.7c0.2-0.2,0.4-0.3,0.8-0.3
		C152.3,84.9,152.6,85.1,152.8,85.2z M148.1,98.8c0.5-0.3,1.1-0.8,1.4-1.4c0.3-0.6,0.6-1.3,0.7-2.1c0.1-0.8-0.1-1.4-0.3-2.1
		c-0.2-0.6-0.6-1.1-1.2-1.4c-0.5-0.3-1.2-0.5-1.9-0.5s-1.3,0.2-1.9,0.5c-0.5,0.3-1.1,0.8-1.4,1.4c-0.4,0.6-0.6,1.3-0.7,2.1
		s0.1,1.5,0.3,2.1s0.6,1.1,1.2,1.4c0.5,0.3,1.2,0.5,1.9,0.5C146.9,99.2,147.5,99.2,148.1,98.8z"/>
	<path class="st3" d="M172.2,94.2l-0.5,5.8c0,0.3-0.2,0.6-0.4,0.8s-0.4,0.3-0.8,0.3s-0.6-0.1-0.8-0.3c-0.2-0.2-0.3-0.4-0.2-0.7
		l0.5-5.8c0.2-1.9-0.6-2.8-2.3-2.8c-0.6,0-1.1,0.1-1.6,0.4c-0.5,0.3-0.9,0.6-1.2,1c-0.3,0.4-0.5,0.9-0.5,1.4l-0.5,5.8
		c0,0.3-0.1,0.5-0.4,0.7c-0.2,0.2-0.5,0.3-0.8,0.3c-0.3,0-0.6-0.1-0.8-0.3c-0.2-0.2-0.3-0.4-0.2-0.8l0.5-5.8
		c0.1-0.9-0.1-1.5-0.4-2.1c-0.4-0.5-0.9-0.8-1.8-0.8s-1.6,0.3-2.3,0.8c-0.6,0.5-1,1.2-1.1,2l-0.5,5.8c0,0.3-0.1,0.5-0.4,0.7
		c-0.3,0.2-0.5,0.3-0.8,0.3s-0.6-0.1-0.8-0.3c-0.2-0.2-0.3-0.4-0.2-0.8l0.8-9.3c0-0.3,0.1-0.5,0.4-0.7c0.2-0.2,0.5-0.3,0.8-0.3
		c0.3,0,0.6,0.1,0.8,0.3c0.2,0.2,0.3,0.4,0.2,0.7l-0.1,0.8c0.5-0.6,1-1,1.7-1.4c0.7-0.4,1.5-0.6,2.2-0.6c1.9,0,3,0.8,3.4,2.4
		c0.4-0.6,1-1.2,1.7-1.7c0.7-0.5,1.7-0.7,2.5-0.7C171.3,89.4,172.4,90.9,172.2,94.2z"/>
	<path class="st3" d="M185.4,89.8c0.2,0.2,0.3,0.5,0.2,0.8l-0.8,9.4c0,0.3-0.1,0.5-0.4,0.7c-0.3,0.2-0.5,0.3-0.8,0.3
		s-0.6-0.1-0.8-0.3c-0.2-0.2-0.3-0.4-0.2-0.8l0.1-0.6c-0.4,0.5-1,0.9-1.7,1.3c-0.7,0.4-1.4,0.5-2.2,0.5c-1,0-1.9-0.3-2.7-0.8
		s-1.4-1.2-1.7-2.1s-0.5-1.9-0.4-3.1c0.1-1.1,0.4-2.1,1-3.1s1.2-1.6,2.1-2.1c0.8-0.5,1.8-0.8,2.8-0.8c0.8,0,1.5,0.2,2.2,0.5
		c0.7,0.3,1.1,0.7,1.5,1.2v-0.5c0-0.3,0.2-0.6,0.4-0.8s0.4-0.3,0.8-0.3C185,89.4,185.2,89.6,185.4,89.8z M181.2,98.8
		c0.5-0.3,1.1-0.8,1.4-1.4s0.6-1.3,0.7-2.1c0.1-0.8-0.1-1.4-0.3-2s-0.6-1.1-1.2-1.4c-0.5-0.4-1.2-0.5-1.9-0.5s-1.3,0.2-1.9,0.5
		c-0.5,0.3-1.1,0.8-1.4,1.4c-0.4,0.6-0.6,1.3-0.7,2.1c-0.1,0.8,0.1,1.5,0.3,2.1c0.2,0.6,0.6,1.1,1.2,1.4c0.5,0.3,1.2,0.5,1.9,0.5
		S180.5,99.2,181.2,98.8z"/>
	<path class="st3" d="M196.8,90.2c0.8,0.5,1.4,1.2,1.7,2.1c0.4,0.9,0.5,1.9,0.4,3s-0.4,2.1-1,3s-1.2,1.6-2.1,2.1
		c-0.8,0.5-1.8,0.8-2.8,0.8c-0.8,0-1.5-0.2-2.2-0.5c-0.7-0.3-1.1-0.7-1.5-1.2l-0.4,4.8c0,0.3-0.1,0.5-0.4,0.7
		c-0.3,0.2-0.5,0.3-0.8,0.3s-0.5-0.1-0.8-0.3c-0.2-0.2-0.3-0.4-0.2-0.8l1.2-13.5c0-0.3,0.2-0.6,0.4-0.8c0.2-0.2,0.4-0.3,0.8-0.3
		s0.6,0.1,0.8,0.3c0.2,0.2,0.3,0.5,0.2,0.8l-0.1,0.6c0.4-0.5,1-0.9,1.7-1.3c0.7-0.4,1.4-0.5,2.2-0.5
		C195.2,89.4,196.1,89.7,196.8,90.2z M195,98.8c0.6-0.3,1.1-0.8,1.4-1.4s0.6-1.3,0.7-2c0.1-0.8-0.1-1.4-0.3-2s-0.6-1.1-1.2-1.4
		c-0.6-0.3-1.2-0.5-1.9-0.5s-1.3,0.2-1.9,0.5c-0.6,0.3-1.1,0.8-1.4,1.4c-0.4,0.6-0.6,1.3-0.7,2c-0.1,0.8,0.1,1.4,0.3,2
		s0.6,1.1,1.2,1.4s1.2,0.5,1.9,0.5C193.7,99.2,194.3,99.1,195,98.8z"/>
</g>
<path class="st4" d="M-367.8-25.2L-367.8-25.2c-3.2-3.2-8.5-3.2-11.7,0l0,0c-2.9,2.9-3.2,8.4-0.8,11.7l6.6,9.5l6.6-9.5
	C-364.5-16.8-364.9-22.3-367.8-25.2z M-373.5-16.7c-1.5,0-2.7-1.2-2.7-2.7s1.2-2.7,2.7-2.7s2.7,1.2,2.7,2.7S-372-16.7-373.5-16.7z"
	/>
<g>
	<g>
		<rect x="-322.9" y="-226.6" class="st5" width="29.8" height="17"/>
		<path class="st6" d="M-293.5-226.2v16.3h-29.1v-16.3H-293.5 M-292.7-226.9h-30.5v17.8h30.5V-226.9L-292.7-226.9z"/>
	</g>
</g>
<g>
	<polygon class="st7" points="-322.9,-209.5 -322.9,-226.3 -294.1,-209.5 	"/>
	<path class="st6" d="M-322.5-225.7l27.1,15.8h-27.1V-225.7 M-323.2-226.9v17.8h30.5L-323.2-226.9L-323.2-226.9z"/>
</g>
<path class="st8" d="M-373.4-177.4h-7.8c-1.6,0-2.9,1.3-2.9,2.9v20.9c0,1.6,1.3,2.9,2.9,2.9h7.8c1.6,0,2.9-1.3,2.9-2.9v-20.9
	C-370.5-176.1-371.8-177.4-373.4-177.4z"/>
<circle class="st4" cx="-377.3" cy="-172.2" r="2.7"/>
<circle class="st9" cx="-377.3" cy="-164.1" r="2.7"/>
<circle class="st10" cx="-377.3" cy="-156" r="2.7"/>
<circle class="st4" cx="-346.9" cy="-172.9" r="3.5"/>
<circle class="st9" cx="-346.9" cy="-162.6" r="3.5"/>
<circle class="st10" cx="-346.9" cy="-152.2" r="3.5"/>
<circle class="st4" cx="-390.2" cy="-45.1" r="4.4"/>
<path class="st9" d="M-343-25.2L-343-25.2c-3.2-3.2-8.5-3.2-11.7,0l0,0c-2.9,2.9-3.2,8.4-0.8,11.7l6.6,9.5l6.6-9.5
	C-339.7-16.8-340-22.3-343-25.2z M-348.7-16.7c-1.5,0-2.7-1.2-2.7-2.7s1.2-2.7,2.7-2.7s2.7,1.2,2.7,2.7S-347.2-16.7-348.7-16.7z"/>
<circle class="st9" cx="-366.5" cy="-45.5" r="4.1"/>
<path class="st10" d="M-319.6-25.2L-319.6-25.2c-3.2-3.2-8.5-3.2-11.7,0l0,0c-2.9,2.9-3.2,8.4-0.8,11.7l6.6,9.5l6.6-9.5
	C-316.4-16.8-316.7-22.3-319.6-25.2z M-325.4-16.7c-1.5,0-2.7-1.2-2.7-2.7s1.2-2.7,2.7-2.7s2.7,1.2,2.7,2.7S-323.9-16.7-325.4-16.7z
	"/>
<circle class="st10" cx="-344.7" cy="-45.5" r="4.1"/>
<path class="st11" d="M-371.5-131.3L-371.5-131.3c-3.2-3.2-8.5-3.2-11.7,0l0,0c-2.9,2.9-3.2,8.4-0.8,11.7l6.6,9.5l6.6-9.5
	C-368.3-122.9-368.6-128.4-371.5-131.3z M-377.3-122.8c-1.5,0-2.7-1.2-2.7-2.7s1.2-2.7,2.7-2.7s2.7,1.2,2.7,2.7
	C-374.6-124.1-375.8-122.8-377.3-122.8z"/>
<circle class="st11" cx="-377.4" cy="-105.3" r="2.7"/>
<g>
	<path d="M-276.3-174.2L-276.3-174.2L-276.3-174.2L-276.3-174.2z"/>
	<path class="st12" d="M-283-177.4h-25.4c-1.6,0-2.8,1.3-2.8,2.8v3.4c0,1.6,1.3,2.8,2.8,2.8h16.8c0.2,0,0.3,0.1,0.3,0.3v4.7
		c0,1.6,1.3,3,3,3l0.3-3.2v-4.4c0-1.9-1.6-3.5-3.5-3.5H-308v-2.7h22.7C-286.2-174.2-287.2-177.4-283-177.4z"/>
	<path class="st13" d="M-281.8-175.8c0,2.3-1.9,4.2-4.2,4.2s-4.2-1.9-4.2-4.2s1.9-4.2,4.2-4.2C-283.7-180.1-281.8-178.2-281.8-175.8
		z"/>
	<circle class="st14" cx="-309.5" cy="-169.8" r="3.9"/>
</g>
<g>
	<g>
		<path class="st10" d="M-329.3,42.2l5.6,11.6l5.6-11.6c0.4-0.9,0.7-1.8,0.7-2.8c0-3.5-2.8-6.3-6.3-6.3s-6.3,2.8-6.3,6.3
			C-329.9,40.4-329.7,41.4-329.3,42.2z M-327.1,39.4c0-1.9,1.6-3.5,3.5-3.5s3.5,1.6,3.5,3.5s-1.6,3.5-3.5,3.5
			S-327.1,41.3-327.1,39.4z"/>
		<path class="st4" d="M-369.5,52.2c0,0.8,0.2,1.6,0.5,2.3l4.5,9.3l4.5-9.3c0.3-0.7,0.5-1.5,0.5-2.3c0-2.8-2.3-5.1-5.1-5.1
			C-367.2,47.1-369.5,49.4-369.5,52.2z M-367.2,52.2c0-1.5,1.3-2.8,2.8-2.8s2.8,1.3,2.8,2.8s-1.3,2.8-2.8,2.8
			C-366,55-367.2,53.8-367.2,52.2z"/>
		<path class="st15" d="M-347.3,63.8h-16.1l1.4-2.4h13.1C-348.9,61.5-347.3,63.8-347.3,63.8z"/>
		<path class="st15" d="M-326,51l-6.8,0.2l-3.2,9.9h-7l-1.4,2.9l9-0.2h1.6l0.4-1.3l2.7-8.8h5.8C-325,53.6-326,51-326,51z"/>
	</g>
</g>
<path class="st9" d="M-351.2,52.1c0,0.8,0.2,1.6,0.6,2.3l4.7,9.6l4.7-9.6c0.4-0.7,0.6-1.5,0.6-2.3c0-2.9-2.3-5.2-5.2-5.2
	C-348.9,46.9-351.2,49.2-351.2,52.1z M-348.9,52.1c0-1.6,1.3-2.9,2.9-2.9s2.9,1.3,2.9,2.9c0,1.6-1.3,2.9-2.9,2.9
	S-348.9,53.7-348.9,52.1z"/>
<g>
	<g>
		<path class="st10" d="M-260.1-193.3l6.4,13.2l6.4-13.2c0.5-1,0.8-2.1,0.8-3.2c0-4-3.2-7.2-7.2-7.2s-7.2,3.2-7.2,7.2
			C-260.8-195.3-260.6-194.2-260.1-193.3z M-257.6-196.5c0-2.2,1.8-4,4-4s4,1.8,4,4s-1.8,4-4,4
			C-255.9-192.5-257.6-194.3-257.6-196.5z"/>
		<path class="st4" d="M-263.8-228.6c0,0.8,0.2,1.6,0.5,2.3l4.5,9.3l4.5-9.3c0.3-0.7,0.5-1.5,0.5-2.3c0-2.8-2.3-5.1-5.1-5.1
			C-261.5-233.7-263.8-231.4-263.8-228.6z M-261.5-228.6c0-1.5,1.3-2.8,2.8-2.8s2.8,1.3,2.8,2.8s-1.3,2.8-2.8,2.8
			C-260.3-225.8-261.5-227-261.5-228.6z"/>
		<path class="st15" d="M-237-195.1c-5,4.6-9.9,9.6-14.9,14.3c0.5-1.1,1-2.1,1.4-3.2l11.3-11.1l-16.2-24.1l1.7-1.4
			C-253.9-220.9-239.7-198.4-237-195.1z"/>
	</g>
</g>
<path class="st9" d="M-241.5-207c0,0.8,0.2,1.6,0.6,2.3l4.7,9.6l4.7-9.6c0.4-0.7,0.6-1.5,0.6-2.3c0-2.9-2.3-5.2-5.2-5.2
	C-239.1-212.3-241.5-209.9-241.5-207z M-239.1-207c0-1.6,1.3-2.9,2.9-2.9s2.9,1.3,2.9,2.9s-1.3,2.9-2.9,2.9
	C-237.8-204.2-239.1-205.5-239.1-207z"/>
<circle class="st16" cx="-289.8" cy="-162.8" r="4"/>
<g>
	<g>
		<path class="st10" d="M-300.5-121.2l5.6,11.6l5.6-11.6c0.4-0.9,0.7-1.8,0.7-2.8c0-3.5-2.8-6.3-6.3-6.3s-6.3,2.8-6.3,6.3
			C-301.2-123.1-300.9-122.1-300.5-121.2z M-298.3-124.1c0-1.9,1.6-3.5,3.5-3.5s3.5,1.6,3.5,3.5s-1.6,3.5-3.5,3.5
			C-296.8-120.6-298.3-122.2-298.3-124.1z"/>
		<path class="st4" d="M-340.7-111.3c0,0.8,0.2,1.6,0.5,2.3l4.5,9.3l4.5-9.3c0.3-0.7,0.5-1.5,0.5-2.3c0-2.8-2.3-5.1-5.1-5.1
			C-338.4-116.3-340.7-114.1-340.7-111.3z M-338.4-111.3c0-1.5,1.3-2.8,2.8-2.8s2.8,1.3,2.8,2.8s-1.3,2.8-2.8,2.8
			C-337.2-108.5-338.4-109.7-338.4-111.3z"/>
		<path class="st15" d="M-318.5-99.7h-16.1l1.4-2.4h13.1C-320.1-102-318.5-99.7-318.5-99.7z"/>
		<polygon class="st15" points="-298.8,-109.6 -304.6,-109.6 -307,-101.9 -312,-101.8 -313.6,-99.6 -306.7,-99.7 -305.1,-99.8 
			-304.7,-101.1 -302.9,-106.9 -297.6,-106.9 		"/>
	</g>
</g>
<path class="st9" d="M-319.5-111.4c0,0.8,0.2,1.6,0.6,2.3l4.7,9.6l4.7-9.6c0.4-0.7,0.6-1.5,0.6-2.3c0-2.9-2.3-5.2-5.2-5.2
	C-317.2-116.6-319.5-114.2-319.5-111.4z M-317.2-111.4c0-1.6,1.3-2.9,2.9-2.9s2.9,1.3,2.9,2.9s-1.3,2.9-2.9,2.9
	S-317.2-109.8-317.2-111.4z"/>
<circle class="st17" cx="27.7" cy="-44" r="3.5"/>
<circle class="st18" cx="27.7" cy="-54.9" r="3.5"/>
<circle class="st0" cx="27.7" cy="-66" r="3.5"/>
<circle class="st17" cx="59" cy="-53.9" r="3.5"/>
<circle class="st18" cx="70" cy="-53.9" r="3.5"/>
<circle class="st0" cx="81" cy="-53.8" r="3.5"/>
<g>
	<path class="st17" d="M-58.6-10.9L-58.6-10.9v6.7h-2.2v-6.7H-58.6 M-58.6-11.7h-2.2c-0.4,0-0.7,0.3-0.7,0.7v6.6
		c0,0.4,0.3,0.7,0.7,0.7h2.2c0.4,0,0.7-0.3,0.7-0.7V-11C-57.8-11.3-58.2-11.7-58.6-11.7L-58.6-11.7z"/>
</g>
<g>
	<path class="st18" d="M-53.4-15.4c0.1,0,0.2,0.1,0.2,0.2v10.7c0,0.1-0.1,0.2-0.2,0.2h-1.8c-0.1,0-0.2-0.1-0.2-0.2v-10.7
		c0-0.1,0.1-0.2,0.2-0.2L-53.4-15.4 M-53.4-16.1h-1.8c-0.5,0-0.9,0.4-0.9,0.9v10.7c0,0.5,0.4,0.9,0.9,0.9h1.8c0.5,0,0.9-0.4,0.9-0.9
		v-10.7C-52.5-15.7-52.9-16.1-53.4-16.1L-53.4-16.1z"/>
</g>
<g>
	<path class="st0" d="M-48.2-20.8c0.2,0,0.4,0.2,0.4,0.4v15.8c0,0.2-0.2,0.4-0.4,0.4h-1.4c-0.2,0-0.4-0.2-0.4-0.4v-15.8
		c0-0.2,0.2-0.4,0.4-0.4H-48.2 M-48.2-21.6h-1.4c-0.6,0-1.1,0.5-1.1,1.1v15.8c0,0.6,0.5,1.1,1.1,1.1h1.4c0.6,0,1.1-0.5,1.1-1.1
		v-15.8C-47.1-21.1-47.6-21.6-48.2-21.6L-48.2-21.6z"/>
</g>
<circle class="st19" cx="-58.9" cy="-36.2" r="3.1"/>
<circle class="st20" cx="-49.8" cy="-36.2" r="3.1"/>
<circle class="st21" cx="-54.4" cy="-45.9" r="3.1"/>
<path class="st19" d="M-89.9-78l5.2-9c0.3-0.5,0.9-0.5,1.2,0l5.2,9c0.3,0.5-0.1,1-0.6,1h-10.4C-89.8-76.9-90.2-77.5-89.9-78z"/>
<path class="st20" d="M-75.4-78l5.2-9c0.3-0.5,0.9-0.5,1.2,0l5.2,9c0.3,0.5-0.1,1-0.6,1h-10.4C-75.4-76.9-75.7-77.5-75.4-78z"/>
<path class="st22" d="M-71.3-91.4l-5.2,9c-0.3,0.5-0.9,0.5-1.2,0l-5.2-9c-0.3-0.5,0.1-1,0.6-1h10.4C-71.3-92.5-71-91.9-71.3-91.4z"
	/>
<g>
	<g>
		<path class="st0" d="M-29.1-52.1c-5.1,0-9.3,4.2-9.3,9.3s4.2,9.3,9.3,9.3s9.3-4.2,9.3-9.3C-19.8-47.9-23.9-52.1-29.1-52.1z
			 M-29.1-35.2c-4.2,0-7.6-3.4-7.6-7.6s3.4-7.6,7.6-7.6s7.6,3.4,7.6,7.6S-24.9-35.2-29.1-35.2z"/>
		<path class="st0" d="M-24.2-47.6l-3.6,6.1l-2.4-2.4C-30.3-44-24.2-47.6-24.2-47.6z"/>
		<path class="st0" d="M-33.9-37.9l6.1-3.6l-2.4-2.4C-30.3-44-33.9-37.9-33.9-37.9z"/>
	</g>
</g>
<g>
	<g>
		<path class="st23" d="M-86.4-19.7c-5.5,0-9.9,4.4-9.9,9.9s4.4,9.9,9.9,9.9s9.9-4.4,9.9-9.9S-80.9-19.7-86.4-19.7z M-81.5-14.1
			l-3.1,5.8c0,0.1-0.1,0.1-0.2,0.2L-90.6-5c-0.1,0-0.1,0.1-0.2,0.1s-0.2,0-0.3-0.1s-0.2-0.4-0.1-0.5l3.1-5.8c0-0.1,0.1-0.1,0.2-0.2
			l5.8-3.1c0.2-0.1,0.4-0.1,0.5,0.1C-81.4-14.5-81.4-14.3-81.5-14.1z"/>
	</g>
</g>
<ellipse class="st17" cx="80.7" cy="-82.4" rx="5" ry="4.9"/>
<ellipse class="st18" cx="94.1" cy="-82.4" rx="4.5" ry="4.9"/>
<ellipse class="st0" cx="108" cy="-82.1" rx="5" ry="5.2"/>
<g>
	<path class="st24" d="M83.2,60.4c0.6,0.8,0.9,1.8,0.9,3.1v5.9c0,0.2-0.1,0.3-0.2,0.5c-0.1,0.1-0.3,0.2-0.5,0.2S83.2,70,83,69.9
		c-0.1-0.1-0.2-0.3-0.2-0.5v-5.9c0-0.9-0.2-1.7-0.7-2.3c-0.4-0.6-1.1-0.9-2-0.9c-0.6,0-1.1,0.1-1.7,0.4c-0.5,0.3-0.9,0.7-1.3,1.1
		c-0.3,0.5-0.5,1-0.5,1.6v5.9c0,0.2-0.1,0.3-0.2,0.5c-0.1,0.1-0.3,0.2-0.5,0.2s-0.3-0.1-0.5-0.2c-0.1-0.1-0.2-0.3-0.2-0.5v-5.9
		c0-0.9-0.2-1.6-0.6-2.2c-0.4-0.6-1.1-0.9-2-0.9c-0.6,0-1.1,0.1-1.6,0.4c-0.5,0.3-0.9,0.7-1.2,1.1c-0.3,0.5-0.5,1-0.5,1.5v5.9
		c0,0.2-0.1,0.3-0.2,0.5c-0.1,0.1-0.3,0.2-0.5,0.2s-0.3-0.1-0.5-0.2c-0.1-0.1-0.2-0.3-0.2-0.5v-9.4c0-0.2,0.1-0.3,0.2-0.5
		c0.1-0.1,0.3-0.2,0.5-0.2s0.3,0.1,0.5,0.2c0.1,0.1,0.2,0.3,0.2,0.5V61c0.4-0.6,0.9-1.1,1.5-1.4c0.6-0.4,1.3-0.6,2-0.6
		c0.8,0,1.5,0.2,2.1,0.6c0.6,0.4,1,1,1.3,1.7c0.3-0.6,0.8-1.2,1.6-1.6s1.6-0.7,2.4-0.7C81.7,59.2,82.6,59.6,83.2,60.4z"/>
	<path class="st24" d="M95.8,59.3c0.1,0.1,0.2,0.3,0.2,0.5v9.3c0,1.1-0.2,2.1-0.7,2.8c-0.4,0.8-1,1.4-1.8,1.8s-1.6,0.6-2.6,0.6
		c-0.6,0-1.1-0.1-1.6-0.2s-0.9-0.3-1.3-0.5c-0.3-0.2-0.4-0.4-0.4-0.6c0,0,0-0.1,0-0.2s0.1-0.2,0.2-0.3s0.2-0.1,0.3-0.1
		c0.1,0,0.2,0,0.3,0.1c0.9,0.5,1.8,0.7,2.6,0.7c1.2,0,2.1-0.4,2.8-1.1c0.7-0.7,1-1.7,1-3v-0.7c-0.4,0.6-0.9,1.1-1.5,1.4
		c-0.7,0.4-1.4,0.5-2.1,0.5c-1.2,0-2.1-0.4-2.8-1.1s-0.9-1.7-0.9-3v-6.4c0-0.2,0.1-0.3,0.2-0.5c0.1-0.1,0.3-0.2,0.5-0.2
		s0.3,0.1,0.5,0.2c0.1,0.1,0.2,0.3,0.2,0.5v6.3c0,1,0.2,1.8,0.7,2.3c0.4,0.5,1.1,0.8,2.1,0.8c0.6,0,1.1-0.1,1.6-0.4s0.9-0.7,1.3-1.1
		c0.3-0.5,0.5-1,0.5-1.5v-6.3c0-0.2,0.1-0.3,0.2-0.5C95.4,59.3,95.6,59.2,95.8,59.3C95.5,59.1,95.6,59.2,95.8,59.3z"/>
	<path class="st24" d="M110.7,59.2c0.2,0.1,0.3,0.3,0.3,0.5s-0.1,0.4-0.2,0.5s-0.2,0.2-0.4,0.2c-0.1,0-0.2,0-0.4-0.1
		c-0.2-0.1-0.4-0.1-0.6-0.1c-0.5,0-1,0.2-1.5,0.6c-0.5,0.4-0.9,0.9-1.3,1.5c-0.3,0.6-0.5,1.3-0.5,1.9v5.2c0,0.2-0.1,0.3-0.2,0.5
		c-0.1,0.1-0.3,0.2-0.5,0.2s-0.3-0.1-0.5-0.2c-0.1-0.1-0.2-0.3-0.2-0.5V60c0-0.2,0.1-0.3,0.2-0.5c0.1-0.1,0.3-0.2,0.5-0.2
		s0.3,0.1,0.5,0.2c0.1,0.1,0.2,0.3,0.2,0.5v1.9c0.3-0.8,0.8-1.5,1.5-2s1.4-0.8,2.3-0.8C110.3,59.1,110.5,59.1,110.7,59.2z"/>
	<path class="st24" d="M121.8,67.5c-0.5,0.9-1.1,1.5-1.9,2s-1.7,0.7-2.7,0.7s-1.9-0.2-2.7-0.7s-1.4-1.2-1.9-2
		c-0.5-0.9-0.7-1.8-0.7-2.9s0.2-2,0.7-2.9s1.1-1.5,1.9-2s1.7-0.7,2.7-0.7s1.9,0.2,2.7,0.7c0.8,0.5,1.4,1.2,1.9,2s0.7,1.8,0.7,2.9
		C122.5,65.7,122.3,66.7,121.8,67.5z M120.7,62.4c-0.4-0.7-0.8-1.2-1.5-1.6c-0.6-0.4-1.3-0.6-2.1-0.6c-0.8,0-1.4,0.2-2.1,0.6
		c-0.6,0.4-1.1,0.9-1.5,1.6s-0.5,1.4-0.5,2.3c0,0.8,0.2,1.6,0.5,2.2c0.4,0.7,0.8,1.2,1.5,1.6c0.6,0.4,1.3,0.6,2.1,0.6
		c0.8,0,1.4-0.2,2.1-0.6c0.6-0.4,1.1-0.9,1.5-1.6c0.3-0.7,0.5-1.4,0.5-2.3C121.2,63.7,121.1,63.1,120.7,62.4z"/>
	<path class="st24" d="M134.3,59.5c0.1,0.1,0.2,0.3,0.2,0.5v9.5c0,0.2-0.1,0.3-0.2,0.5c-0.1,0.1-0.3,0.2-0.5,0.2s-0.3-0.1-0.5-0.2
		c-0.1-0.1-0.2-0.3-0.2-0.5v-1.4c-0.4,0.6-0.9,1.2-1.6,1.6c-0.7,0.4-1.5,0.7-2.3,0.7c-0.9,0-1.8-0.2-2.5-0.7s-1.3-1.2-1.8-2
		c-0.4-0.9-0.6-1.8-0.6-2.9s0.2-2,0.7-2.9c0.4-0.8,1-1.5,1.8-2c0.7-0.5,1.6-0.7,2.5-0.7c0.8,0,1.6,0.2,2.3,0.6
		c0.7,0.4,1.2,0.9,1.6,1.6v-1.3c0-0.2,0.1-0.3,0.2-0.5s0.3-0.2,0.5-0.2C134,59.3,134.1,59.4,134.3,59.5z M131.4,68.5
		c0.6-0.4,1-0.9,1.4-1.6c0.3-0.7,0.5-1.4,0.5-2.3c0-0.8-0.2-1.6-0.5-2.2c-0.3-0.7-0.8-1.2-1.4-1.6s-1.2-0.6-2-0.6s-1.4,0.2-2,0.6
		s-1,0.9-1.4,1.6c-0.3,0.7-0.5,1.4-0.5,2.3c0,0.9,0.2,1.6,0.5,2.3s0.8,1.2,1.4,1.6s1.2,0.6,2,0.6C130.2,69.1,130.8,68.9,131.4,68.5z
		"/>
	<path class="st24" d="M146.9,54.7c0.1,0.1,0.2,0.3,0.2,0.5v14.3c0,0.2-0.1,0.3-0.2,0.5c-0.1,0.1-0.3,0.2-0.5,0.2s-0.3-0.1-0.5-0.2
		c-0.1-0.1-0.2-0.3-0.2-0.5v-1.6c-0.4,0.6-0.9,1.2-1.6,1.6s-1.5,0.7-2.3,0.7c-0.9,0-1.8-0.2-2.5-0.7s-1.3-1.2-1.8-2
		c-0.4-0.9-0.7-1.8-0.7-2.9c0-1,0.2-2,0.7-2.9c0.4-0.9,1-1.5,1.8-2c0.7-0.5,1.6-0.7,2.5-0.7c0.8,0,1.6,0.2,2.3,0.6
		c0.7,0.4,1.2,0.9,1.6,1.6V55c0-0.2,0.1-0.3,0.2-0.5s0.3-0.2,0.5-0.2C146.6,54.5,146.8,54.6,146.9,54.7z M144,68.5
		c0.6-0.4,1-0.9,1.4-1.6c0.3-0.7,0.5-1.4,0.5-2.3c0-0.8-0.2-1.6-0.5-2.2c-0.3-0.7-0.8-1.2-1.4-1.6s-1.2-0.6-2-0.6s-1.4,0.2-2,0.6
		s-1,0.9-1.4,1.6c-0.3,0.7-0.5,1.4-0.5,2.2c0,0.8,0.2,1.6,0.5,2.3s0.8,1.2,1.4,1.6c0.6,0.4,1.2,0.6,2,0.6S143.5,68.9,144,68.5z"/>
	<path class="st24" d="M165.3,60.4c0.6,0.8,0.9,1.8,0.9,3.1v5.9c0,0.2-0.1,0.3-0.2,0.5c-0.1,0.1-0.3,0.2-0.5,0.2s-0.3-0.1-0.5-0.2
		c-0.1-0.1-0.2-0.3-0.2-0.5v-5.9c0-0.9-0.2-1.7-0.7-2.3c-0.4-0.6-1.1-0.9-2-0.9c-0.6,0-1.1,0.1-1.7,0.4c-0.5,0.3-0.9,0.7-1.3,1.1
		c-0.3,0.5-0.5,1-0.5,1.6v5.9c0,0.2-0.1,0.3-0.2,0.5c-0.1,0.1-0.3,0.2-0.5,0.2s-0.3-0.1-0.5-0.2c-0.1-0.1-0.2-0.3-0.2-0.5v-5.9
		c0-0.9-0.2-1.6-0.6-2.2c-0.4-0.6-1.1-0.9-2-0.9c-0.6,0-1.1,0.1-1.6,0.4c-0.5,0.3-0.9,0.7-1.2,1.1c-0.3,0.5-0.5,1-0.5,1.5v5.9
		c0,0.2-0.1,0.3-0.2,0.5c-0.1,0.1-0.3,0.2-0.5,0.2s-0.3-0.1-0.5-0.2c-0.1-0.1-0.2-0.3-0.2-0.5v-9.4c0-0.2,0.1-0.3,0.2-0.5
		c0.1-0.1,0.3-0.2,0.5-0.2s0.3,0.1,0.5,0.2c0.1,0.1,0.2,0.3,0.2,0.5V61c0.4-0.6,0.9-1.1,1.5-1.4c0.6-0.4,1.3-0.6,2-0.6
		c0.8,0,1.5,0.2,2.1,0.6c0.6,0.4,1,1,1.3,1.7c0.3-0.6,0.8-1.2,1.6-1.6c0.8-0.4,1.6-0.7,2.4-0.7C163.8,59.2,164.7,59.6,165.3,60.4z"
		/>
	<path class="st24" d="M178.7,59.5c0.1,0.1,0.2,0.3,0.2,0.5v9.5c0,0.2-0.1,0.3-0.2,0.5c-0.1,0.1-0.3,0.2-0.5,0.2s-0.3-0.1-0.5-0.2
		c-0.1-0.1-0.2-0.3-0.2-0.5v-1.4c-0.4,0.6-0.9,1.2-1.6,1.6c-0.7,0.4-1.5,0.7-2.3,0.7c-0.9,0-1.8-0.2-2.5-0.7s-1.3-1.2-1.8-2
		c-0.4-0.9-0.6-1.8-0.6-2.9s0.2-2,0.7-2.9c0.4-0.8,1-1.5,1.8-2c0.7-0.5,1.6-0.7,2.5-0.7c0.8,0,1.6,0.2,2.3,0.6
		c0.7,0.4,1.2,0.9,1.6,1.6v-1.3c0-0.2,0.1-0.3,0.2-0.5s0.3-0.2,0.5-0.2C178.4,59.3,178.6,59.4,178.7,59.5z M175.8,68.5
		c0.6-0.4,1-0.9,1.4-1.6c0.3-0.7,0.5-1.4,0.5-2.3c0-0.8-0.2-1.6-0.5-2.2c-0.3-0.6-0.8-1.2-1.4-1.6c-0.6-0.4-1.2-0.6-2-0.6
		s-1.4,0.2-2,0.6c-0.6,0.4-1,0.9-1.4,1.6c-0.3,0.7-0.5,1.4-0.5,2.3c0,0.9,0.2,1.6,0.5,2.3s0.8,1.2,1.4,1.6c0.6,0.4,1.2,0.6,2,0.6
		C174.6,69.1,175.3,68.9,175.8,68.5z"/>
	<path class="st24" d="M189.8,59.9c0.8,0.5,1.3,1.1,1.8,2c0.4,0.8,0.6,1.8,0.6,2.8c0,1-0.2,2-0.6,2.8c-0.4,0.8-1,1.5-1.8,2
		s-1.6,0.7-2.5,0.7c-0.8,0-1.6-0.2-2.2-0.6c-0.7-0.4-1.2-0.9-1.6-1.5v5.5c0,0.2-0.1,0.3-0.2,0.5c-0.1,0.1-0.3,0.2-0.5,0.2
		s-0.3-0.1-0.5-0.2c-0.1-0.1-0.2-0.3-0.2-0.5V59.9c0-0.2,0.1-0.3,0.2-0.5c0.1-0.1,0.3-0.2,0.5-0.2s0.3,0.1,0.5,0.2
		c0.2,0.1,0.2,0.3,0.2,0.5v1.4c0.4-0.7,0.9-1.2,1.6-1.6c0.7-0.4,1.4-0.6,2.3-0.6C188.2,59.2,189,59.5,189.8,59.9z M189.1,68.5
		c0.6-0.4,1-0.9,1.4-1.5s0.5-1.4,0.5-2.2c0-0.8-0.2-1.5-0.5-2.2s-0.8-1.2-1.4-1.5c-0.6-0.4-1.2-0.6-2-0.6c-0.7,0-1.4,0.2-2,0.5
		c-0.6,0.4-1,0.9-1.4,1.5c-0.3,0.7-0.5,1.4-0.5,2.2c0,0.8,0.2,1.6,0.5,2.2s0.8,1.2,1.4,1.5c0.6,0.4,1.3,0.6,2,0.6
		C187.9,69,188.5,68.8,189.1,68.5z"/>
</g>
<g>
	<g>
		<path class="st23" d="M-127.3-29.8c-12.2,0-22.2,10-22.2,22.2s10,22.2,22.2,22.2s22.2-10,22.2-22.2S-115.1-29.8-127.3-29.8z
			 M-116.4-17.2l-7,13.1c-0.1,0.2-0.2,0.3-0.4,0.4l-13.1,7c-0.2,0.1-0.3,0.1-0.5,0.1c-0.3,0-0.5-0.1-0.7-0.3
			c-0.3-0.3-0.4-0.8-0.2-1.2l7-13.1c0.1-0.2,0.2-0.3,0.4-0.4l13.1-7c0.4-0.2,0.9-0.1,1.2,0.2C-116.2-18.1-116.1-17.6-116.4-17.2z"/>
	</g>
</g>
<g>
	<g>
		<path class="st23" d="M-127.3-10c-1.3,0-2.4,1.1-2.4,2.4s1.1,2.4,2.4,2.4s2.4-1.1,2.4-2.4C-124.9-8.9-126-10-127.3-10z"/>
	</g>
</g>
<g>
	<ellipse transform="matrix(0.7224 -0.6915 0.6915 0.7224 -40.689 16.058)" class="st25" cx="-0.3" cy="58.7" rx="11.3" ry="10.4"/>
	<g>
		<path class="st0" d="M6,60.4L0.2,54c-0.1-0.1-0.2-0.1-0.3-0.1s-0.2,0-0.3,0.1l-6.9,6.4c-0.1,0.1-0.1,0.2-0.1,0.3
			c0,0.1,0,0.2,0.1,0.3l0.6,0.7c0.1,0.1,0.2,0.1,0.3,0.1c0.1,0,0.2,0,0.3-0.1l5.8-5.4l4.9,5.4c0.1,0.1,0.2,0.1,0.3,0.1
			s0.2,0,0.3-0.1L6,61c0.1-0.1,0.1-0.2,0.1-0.3S6.2,60.5,6,60.4z"/>
	</g>
</g>
<circle class="st0" cx="8.5" cy="-13.7" r="9.7"/>
<g>
	<path class="st3" d="M14.5-11.8l-5.7-5.7c-0.1-0.1-0.2-0.1-0.3-0.1s-0.2,0-0.3,0.1l-5.7,5.7c-0.1,0.1-0.1,0.2-0.1,0.3
		s0,0.2,0.1,0.3l0.6,0.6c0.1,0.1,0.2,0.1,0.3,0.1c0.1,0,0.2,0,0.3-0.1l4.8-4.8l4.8,4.8c0.1,0.1,0.2,0.1,0.3,0.1s0.2,0,0.3-0.1
		l0.6-0.6c0.1-0.1,0.1-0.2,0.1-0.3S14.6-11.7,14.5-11.8z"/>
</g>
<g>
	<g>
		<path class="st23" d="M98.1-10l-7.7-7.7c-0.1-0.1-0.2-0.2-0.4-0.2c-0.1,0-0.3,0.1-0.4,0.2L82-10c-0.1,0.1-0.2,0.2-0.2,0.4
			c0,0.1,0.1,0.3,0.2,0.4l0.8,0.8c0.1,0.1,0.2,0.2,0.4,0.2c0.2,0,0.3-0.1,0.4-0.2l6.5-6.5l6.5,6.5c0.1,0.1,0.2,0.2,0.4,0.2
			c0.1,0,0.3-0.1,0.4-0.2l0.8-0.8c0.1-0.1,0.2-0.2,0.2-0.4C98.2-9.7,98.2-9.9,98.1-10z"/>
	</g>
	<g>
		<path class="st23" d="M111.5-9.4l-11-11c-0.1-0.1-0.2-0.2-0.4-0.2c-0.1,0-0.3,0.1-0.4,0.2l-4.1,4.1l-6.8,6.8
			c-0.1,0.1-0.2,0.2-0.2,0.4c0,0.1,0.1,0.3,0.2,0.4l0.8,0.8c0.1,0.1,0.2,0.2,0.4,0.2c0.1,0,0.3-0.1,0.4-0.2l9.7-9.7l9.8,9.8
			c0.1,0.1,0.2,0.2,0.4,0.2c0.1,0,0.3-0.1,0.4-0.2l0.8-0.8c0.1-0.1,0.2-0.2,0.2-0.4C111.7-9.1,111.6-9.3,111.5-9.4z"/>
	</g>
</g>
<g>
	<g>
		<path class="st26" d="M134-22l-2.3-5.7l-2.3-5.7c-0.1-0.4-0.6-0.4-0.9,0l-4.2,5.7L120-22c-0.3,0.4,0,0.8,0.4,0.8h6.5h6.5
			C133.8-21.2,134.1-21.6,134-22z M129.9-26.6h-2h-2c-0.1,0-0.2-0.1-0.1-0.3l1.4-1.8l1.3-1.8c0.1-0.1,0.2-0.1,0.3,0l0.7,1.8l0.7,1.8
			C130.2-26.7,130-26.6,129.9-26.6z"/>
	</g>
</g>
<path class="st26" d="M142.5-22.2l-2.8-6.9l-2.8-6.9c-0.1-0.4-0.7-0.4-1.1,0l-5.3,6.9l-0.4,0.5l-0.3,0.4l1.2,2l-2.8,0.2l-0.4,0.5
	l-2.6,3.4c-0.3,0.5-0.1,1,0.4,1h8h8C142.3-21.2,142.8-21.8,142.5-22.2z M137.5-30.1h-2h-2c-0.1,0-0.2-0.1-0.1-0.3l1.4-1.8l1.3-1.8
	c0.1-0.1,0.2-0.1,0.3,0l0.7,1.8l0.7,1.8C137.7-30.2,137.6-30.1,137.5-30.1z"/>
<g>
	<g>
		<path class="st23" d="M162.7-11.6v-6.6c0.4,0,0.9-0.1,1.5-0.4c0.9-0.5,1.8,0.4,1.8,0.4v-2.5c0,0-1.2-0.9-1.9-0.4s-1.8,0.4-1.8,0.4
			v0.7v1.8v0.8c-0.1,0-0.2,0-0.2,0.1l0,0l0,0l-0.4,0.3v-0.1c-0.1-0.9-1.2-0.9-1.2-0.9H160l-0.4,0.6l-0.4-0.6h-0.4
			c-1.2,0-1.2,0.9-1.2,0.9v2.1l0,0l0,0c0,0.2,0.2,0.4,0.4,0.4s0.4-0.2,0.4-0.4l0,0v-1.9h0.2v5.1c-3.3,0.6-5.7,3-5.7,5.9h14.6
			C167.4-8.5,165.4-10.8,162.7-11.6z M160.9-17v0.6l0,0c0,0.2,0.2,0.4,0.4,0.4c0.1,0,0.1,0,0.2,0l0,0l0.6-0.4l0.3-0.2v4.9
			c-0.5-0.1-1.1-0.2-1.6-0.3v-5H160.9z M159.5-14.8h0.2v2.8c-0.1,0-0.1,0-0.2,0V-14.8L159.5-14.8z M158.7-19c0-0.5,0.4-0.8,0.8-0.8
			c0.5,0,0.8,0.4,0.8,0.8c0,0.5-0.4,0.8-0.8,0.8S158.7-18.6,158.7-19z"/>
	</g>
</g>
<g>
	<g>
		<g>
			<path class="st23" d="M159.1-40c0.6,0,0.9-0.1,1.8-0.6c1.5-0.8,2.8,0.6,2.8,0.6v-3.9c0,0-1.9-1.4-2.9-0.6s-2.9,0.6-2.9,0.6v1.1
				v11.6h1.2L159.1-40L159.1-40z"/>
		</g>
	</g>
</g>
<circle class="st27" cx="160.4" cy="-37.9" r="9.7"/>
<g>
	<g>
		<g>
			<path class="st3" d="M184-15.1c0.6,0,0.9-0.1,1.8-0.6c1.5-0.8,2.8,0.6,2.8,0.6V-19c0,0-1.9-1.4-2.9-0.6s-2.9,0.6-2.9,0.6v1.1
				v11.6h1.2L184-15.1L184-15.1z"/>
		</g>
	</g>
</g>
<g>
	<path class="st17" d="M-21.1-77.6l-8.5-8.5c-0.1-0.1-0.3-0.2-0.4-0.2c-0.2,0-0.3,0.1-0.4,0.2l-8.5,8.5c-0.1,0.1-0.2,0.3-0.2,0.4
		c0,0.2,0.1,0.3,0.2,0.4l0.9,0.9c0.1,0.1,0.3,0.2,0.4,0.2s0.3-0.1,0.4-0.2l7.2-7.2l7.2,7.2c0.1,0.1,0.3,0.2,0.4,0.2
		c0.2,0,0.3-0.1,0.4-0.2l0.9-0.9c0.1-0.1,0.2-0.3,0.2-0.4C-20.9-77.4-20.9-77.5-21.1-77.6z"/>
</g>
<g>
	<path class="st18" d="M-21.1-83.9l-8.5-8.5c-0.1-0.1-0.3-0.2-0.4-0.2c-0.2,0-0.3,0.1-0.4,0.2l-8.5,8.5c-0.1,0.1-0.2,0.3-0.2,0.4
		c0,0.2,0.1,0.3,0.2,0.4l0.9,1c0.1,0.1,0.3,0.2,0.4,0.2s0.3-0.1,0.4-0.2l7.2-7.2l7.2,7.2c0.1,0.1,0.3,0.2,0.4,0.2
		c0.2,0,0.3-0.1,0.4-0.2l0.9-0.9c0.1-0.1,0.2-0.3,0.2-0.4C-20.9-83.6-20.9-83.7-21.1-83.9z"/>
</g>
<g class="st2">
	<path class="st28" d="M54.6,12.3c0.6,0.8,0.9,1.8,0.9,3v5.8c0,0.2-0.1,0.3-0.2,0.5c-0.1,0.1-0.3,0.2-0.5,0.2
		c-0.2,0-0.3-0.1-0.5-0.2c-0.1-0.1-0.2-0.3-0.2-0.5v-5.8c0-0.9-0.2-1.7-0.7-2.2c-0.4-0.6-1.1-0.9-2-0.9c-0.6,0-1.1,0.1-1.7,0.4
		c-0.6,0.3-0.9,0.7-1.3,1.1c-0.3,0.5-0.5,1-0.5,1.6V21c0,0.2-0.1,0.3-0.2,0.5c-0.1,0.1-0.3,0.2-0.5,0.2c-0.2,0-0.3-0.1-0.5-0.2
		c-0.1-0.1-0.2-0.3-0.2-0.5v-5.8c0-0.9-0.2-1.6-0.6-2.2c-0.4-0.6-1.1-0.9-2-0.9c-0.6,0-1.1,0.1-1.6,0.4c-0.5,0.3-0.9,0.7-1.2,1.1
		c-0.3,0.5-0.5,1-0.5,1.5v5.8c0,0.2-0.1,0.3-0.2,0.5c-0.1,0.1-0.3,0.2-0.5,0.2c-0.2,0-0.3-0.1-0.5-0.2c-0.1-0.1-0.2-0.3-0.2-0.5v-9
		c0-0.2,0.1-0.3,0.2-0.5c0.1-0.1,0.3-0.2,0.5-0.2c0.2,0,0.3,0.1,0.5,0.2c0.4,0.2,0.5,0.4,0.5,0.5V13c0.4-0.6,0.9-1,1.5-1.4
		c0.6-0.4,1.3-0.6,2-0.6c0.8,0,1.5,0.2,2.1,0.6c0.6,0.4,1,1,1.3,1.7c0.3-0.6,0.8-1.2,1.6-1.6c0.8-0.4,1.6-0.7,2.3-0.7
		C53,11.2,54,11.5,54.6,12.3z"/>
	<path class="st28" d="M67.8,11.2c0.1,0.1,0.2,0.3,0.2,0.5v9.1c0,1.1-0.2,2.1-0.7,2.7c-0.4,0.8-1,1.4-1.8,1.8
		c-0.8,0.4-1.6,0.6-2.5,0.6c-0.6,0-1.1-0.1-1.6-0.2c-0.5-0.1-0.9-0.3-1.3-0.5c-0.3-0.2-0.4-0.4-0.4-0.6c0,0,0-0.1,0-0.2
		c0-0.1,0.1-0.2,0.2-0.3c0.1-0.1,0.2-0.1,0.3-0.1c0.1,0,0.2,0,0.3,0.1c0.9,0.5,1.8,0.7,2.5,0.7c1.2,0,2.1-0.4,2.7-1.1
		c0.7-0.7,1-1.7,1-2.9v-0.7c-0.4,0.6-0.9,1.1-1.5,1.4c-0.7,0.4-1.4,0.5-2.1,0.5c-1.2,0-2.1-0.4-2.7-1.1c-0.7-0.7-0.9-1.7-0.9-2.9
		v-6.3c0-0.2,0.1-0.3,0.2-0.5c0.1-0.1,0.3-0.2,0.5-0.2c0.2,0,0.3,0.1,0.5,0.2c-0.1,0.1-0.1,0.3-0.1,0.5v6.2c0,1,0.2,1.8,0.7,2.2
		c0.4,0.5,1.1,0.8,2.1,0.8c0.6,0,1.1-0.1,1.6-0.4c0.5-0.3,0.9-0.7,1.3-1.1c0.4-0.4,0.5-1,0.5-1.5v-6.3c0-0.2,0.1-0.3,0.2-0.5
		c0.1-0.1,0.3-0.2,0.5-0.2C67.5,11.1,67.7,11.1,67.8,11.2z"/>
	<path class="st28" d="M78.5,11.2c0.2,0.1,0.3,0.3,0.3,0.5s-0.1,0.4-0.2,0.5c-0.1,0.1-0.2,0.2-0.4,0.2c-0.1,0-0.2,0-0.4-0.1
		c-0.2-0.1-0.4-0.1-0.6-0.1c-0.5,0-1,0.2-1.5,0.6s-0.9,0.9-1.3,1.5c-0.3,0.6-0.5,1.3-0.5,1.9v5.1c0,0.2-0.1,0.3-0.2,0.5
		c-0.1,0.1-0.3,0.2-0.5,0.2c-0.2,0-0.3-0.1-0.5-0.2c-0.1-0.1-0.2-0.3-0.2-0.5v-9.3c0-0.2,0.1-0.3,0.2-0.5c0.1-0.1,0.3-0.2,0.5-0.2
		c0.2,0,0.3,0.1,0.5,0.2c0.1,0.1,0.2,0.3,0.2,0.5v1.8c0.3-0.8,0.8-1.5,1.5-2c0.7-0.5,1.4-0.8,2.2-0.8C78.1,11,78.3,11,78.5,11.2z"/>
	<path class="st28" d="M89.4,19.3c-0.5,0.9-1.1,1.5-1.9,2c-0.8,0.5-1.7,0.7-2.6,0.7s-1.9-0.2-2.6-0.7c-0.8-0.5-1.4-1.2-1.9-2
		c-0.5-0.9-0.8-1.9-0.8-2.8s0.2-2,0.7-2.8s1.1-1.5,1.9-2c0.8-0.5,1.7-0.7,2.6-0.7s1.9,0.2,2.6,0.7c0.8,0.5,1.4,1.2,1.9,2
		c0.5,0.9,0.7,1.8,0.7,2.8S89.8,18.4,89.4,19.3z M88.3,14.2c-0.3-0.7-0.8-1.2-1.5-1.6c-0.6-0.4-1.3-0.6-2.1-0.6
		c-0.8,0-1.4,0.2-2.1,0.6c-0.6,0.4-1.1,0.9-1.5,1.6c-0.4,0.7-0.5,1.4-0.5,2.2c0,0.8,0.2,1.6,0.5,2.2c0.4,0.7,0.8,1.2,1.5,1.6
		c0.6,0.4,1.3,0.6,2.1,0.6c0.8,0,1.4-0.2,2.1-0.6c0.6-0.4,1.1-0.9,1.5-1.6c0.3-0.7,0.5-1.4,0.5-2.2C88.8,15.5,88.6,14.9,88.3,14.2z"
		/>
	<path class="st28" d="M101.5,11.4c0.1,0.1,0.2,0.3,0.2,0.5v9.3c0,0.2-0.1,0.3-0.2,0.5c-0.1,0.1-0.3,0.2-0.5,0.2s-0.3-0.1-0.5-0.2
		c-0.1-0.1-0.2-0.3-0.2-0.5v-1.4c-0.4,0.6-0.9,1.2-1.6,1.6S97.3,22,96.5,22c-0.9,0-1.8-0.2-2.4-0.7c-0.7-0.5-1.3-1.2-1.8-2
		c-0.3-1-0.5-2-0.5-2.9c0-1.1,0.2-2,0.7-2.8c0.4-0.8,1-1.5,1.8-2c0.7-0.5,1.6-0.7,2.4-0.7c0.8,0,1.6,0.2,2.2,0.6
		c0.7,0.4,1.2,0.9,1.6,1.6v-1.3c0-0.2,0.1-0.3,0.2-0.5c0.1-0.2,0.3-0.2,0.5-0.2C101.2,11.2,101.4,11.3,101.5,11.4z M98.7,20.2
		c0.6-0.4,1-0.9,1.4-1.6c0.3-0.7,0.5-1.4,0.5-2.2c0-0.8-0.2-1.6-0.5-2.2c-0.3-0.7-0.8-1.2-1.4-1.6c-0.6-0.4-1.2-0.6-2-0.6
		c-0.7,0-1.4,0.2-2,0.6c-0.6,0.4-1,0.9-1.4,1.6c-0.3,0.7-0.5,1.4-0.5,2.2s0.2,1.6,0.5,2.2c0.3,0.7,0.8,1.2,1.4,1.6
		c0.6,0.4,1.2,0.6,2,0.6C97.5,20.8,98.2,20.6,98.7,20.2z"/>
	<path class="st28" d="M113.8,6.7c0.1,0.1,0.2,0.3,0.2,0.5v14c0,0.2-0.1,0.3-0.2,0.5c-0.1,0.1-0.3,0.2-0.5,0.2s-0.3-0.1-0.5-0.2
		c-0.1-0.1-0.2-0.3-0.2-0.5v-1.5c-0.4,0.6-0.9,1.2-1.6,1.6c-0.7,0.4-1.5,0.7-2.2,0.7c-0.9,0-1.8-0.2-2.4-0.7c-0.7-0.5-1.3-1.2-1.8-2
		c-0.4-0.9-0.7-1.8-0.7-2.8c0-1,0.2-2,0.7-2.8c0.4-0.9,1-1.5,1.8-2c0.7-0.5,1.6-0.7,2.4-0.7c0.8,0,1.6,0.2,2.2,0.6
		c0.7,0.4,1.2,0.9,1.6,1.6v-6c0-0.2,0.1-0.3,0.2-0.5c0.1-0.2,0.3-0.2,0.5-0.2C113.6,6.5,113.7,6.6,113.8,6.7z M111.1,20.2
		c0.6-0.4,1-0.9,1.4-1.6c0.3-0.7,0.5-1.4,0.5-2.2c0-0.8-0.2-1.6-0.5-2.2c-0.3-0.7-0.8-1.2-1.4-1.6c-0.6-0.4-1.2-0.6-2-0.6
		c-0.7,0-1.4,0.2-2,0.6c-0.6,0.4-1,0.9-1.4,1.6c-0.3,0.7-0.5,1.4-0.5,2.2c0,0.8,0.2,1.6,0.5,2.2c0.3,0.7,0.8,1.2,1.4,1.6
		c0.6,0.4,1.2,0.6,2,0.6C109.8,20.8,110.5,20.6,111.1,20.2z"/>
	<path class="st28" d="M131.9,12.3c0.6,0.8,0.9,1.8,0.9,3v5.8c0,0.2-0.1,0.3-0.2,0.5c-0.1,0.1-0.3,0.2-0.5,0.2s-0.3-0.1-0.5-0.2
		c-0.1-0.1-0.2-0.3-0.2-0.5v-5.8c0-0.9-0.2-1.7-0.7-2.2c-0.4-0.6-1.1-0.9-2-0.9c-0.6,0-1.1,0.1-1.7,0.4c-0.5,0.3-0.9,0.7-1.3,1.1
		c-0.3,0.5-0.5,1-0.5,1.6V21c0,0.2-0.1,0.3-0.2,0.5c-0.1,0.1-0.3,0.2-0.5,0.2c-0.2,0-0.3-0.1-0.5-0.2c-0.1-0.1-0.2-0.3-0.2-0.5v-5.8
		c0-0.9-0.2-1.6-0.6-2.2c-0.4-0.6-1.1-0.9-2-0.9c-0.6,0-1.1,0.1-1.6,0.4c-0.5,0.3-0.9,0.7-1.2,1.1c-0.3,0.5-0.5,1-0.5,1.5v5.8
		c0,0.2-0.1,0.3-0.2,0.5c-0.1,0.1-0.3,0.2-0.5,0.2c-0.2,0-0.3-0.1-0.5-0.2c-0.1-0.1-0.2-0.3-0.2-0.5v-9c0-0.2,0.1-0.3,0.2-0.5
		c0.1-0.2,0.3-0.2,0.5-0.2c0.2,0,0.3,0.1,0.5,0.2c0.2,0.1,0.2,0.3,0.2,0.5V13c0.4-0.6,0.9-1,1.5-1.4c0.6-0.4,1.3-0.6,2-0.6
		c0.8,0,1.5,0.2,2.1,0.6c0.6,0.4,1,1,1.3,1.7c0.3-0.6,0.8-1.2,1.6-1.6c0.8-0.4,1.6-0.7,2.3-0.7C130.4,11.2,131.3,11.5,131.9,12.3z"
		/>
	<path class="st28" d="M144.9,11.4c0.1,0.1,0.2,0.3,0.2,0.5v9.3c0,0.2-0.1,0.3-0.2,0.5c-0.1,0.1-0.3,0.2-0.5,0.2
		c-0.2,0-0.3-0.1-0.5-0.2c-0.1-0.1-0.2-0.3-0.2-0.5v-1.4c-0.3,0.6-0.9,1.2-1.6,1.6c-0.7,0.4-1.5,0.7-2.2,0.7c-0.9,0-1.8-0.2-2.4-0.7
		c-0.7-0.5-1.3-1.2-1.8-2c-0.4-0.9-0.6-1.8-0.6-2.8s0.2-2,0.7-2.8c0.4-0.8,1-1.5,1.8-2c0.7-0.5,1.6-0.7,2.4-0.7
		c0.8,0,1.6,0.2,2.2,0.6s1.2,0.9,1.6,1.6v-1.4c0-0.2,0.1-0.3,0.2-0.5c0.1-0.2,0.3-0.2,0.5-0.2C144.7,11.2,144.8,11.3,144.9,11.4z
		 M142.2,20.2c0.6-0.4,1-0.9,1.4-1.6c0.3-0.7,0.5-1.4,0.5-2.2c0-0.8-0.2-1.6-0.5-2.2c-0.3-0.7-0.8-1.2-1.4-1.6s-1.2-0.6-2-0.6
		c-0.7,0-1.4,0.2-2,0.6s-1,0.9-1.4,1.6c-0.3,0.7-0.5,1.4-0.5,2.2s0.2,1.6,0.5,2.2c0.3,0.7,0.8,1.2,1.4,1.6c0.6,0.4,1.2,0.6,2,0.6
		C140.9,20.8,141.6,20.6,142.2,20.2z"/>
	<path class="st28" d="M155.8,11.9c0.8,0.5,1.3,1.1,1.8,2c0.4,0.8,0.6,1.8,0.6,2.7c0,1.1-0.2,2-0.6,2.7c-0.4,0.8-1,1.5-1.8,2
		c-0.7,0.5-1.6,0.7-2.4,0.7c-0.8,0-1.6-0.2-2.2-0.6c-0.7-0.4-1.2-0.9-1.6-1.5v5.4c0,0.2-0.1,0.3-0.2,0.5c-0.1,0.2-0.3,0.2-0.5,0.2
		c-0.2,0-0.3-0.1-0.5-0.2c-0.2-0.1-0.2-0.3-0.2-0.5V11.8c0-0.2,0.1-0.3,0.2-0.5s0.3-0.2,0.5-0.2c0.2,0,0.3,0.1,0.5,0.2
		c0.2,0.1,0.2,0.3,0.2,0.5v1.4c0.4-0.7,0.9-1.2,1.6-1.6s1.4-0.6,2.2-0.6C154.2,11.2,155.1,11.4,155.8,11.9z M155.2,20.2
		c0.6-0.4,1-0.9,1.4-1.5c0.4-0.6,0.5-1.4,0.5-2.2c0-0.8-0.2-1.5-0.5-2.2c-0.3-0.7-0.8-1.2-1.4-1.5c-0.6-0.3-1.2-0.6-2-0.6
		c-0.7,0-1.4,0.2-2,0.5c-0.6,0.3-1,0.9-1.4,1.5c-0.3,0.7-0.5,1.4-0.5,2.2c0,0.8,0.2,1.6,0.5,2.2c0.3,0.7,0.8,1.2,1.4,1.5
		c0.6,0.4,1.3,0.6,2,0.6C153.9,20.7,154.6,20.6,155.2,20.2z"/>
</g>
<g>
	<path class="st23" d="M-21.1-90.2l-8.5-8.5c-0.1-0.1-0.3-0.2-0.4-0.2c-0.2,0-0.3,0.1-0.4,0.2l-8.5,8.5c-0.1,0.1-0.2,0.3-0.2,0.4
		c0,0.2,0.1,0.3,0.2,0.4l0.9,0.9c0.1,0.1,0.3,0.2,0.4,0.2s0.3-0.1,0.4-0.2l7.2-7.2l7.2,7.2c0.1,0.1,0.3,0.2,0.4,0.2
		c0.2,0,0.3-0.1,0.4-0.2l0.9-0.9c0.1-0.1,0.2-0.3,0.2-0.4S-20.9-90.1-21.1-90.2z"/>
</g>
<circle class="st0" cx="-68.9" cy="29.1" r="9.7"/>
<polygon class="st29" points="-74,28.2 -70.9,33.6 -67.8,39 -74,39 -80.3,39 -77.2,33.6 "/>
<polygon class="st29" points="-65.6,25 -61.5,32 -57.5,38.9 -65.6,38.9 -73.6,38.9 -69.6,32 "/>
<path class="st0" d="M-36.1,24.2l3.1-5.4l3.1,5.4l0.2,0.3l1.1-1.9l4-7l4,7l1.1,1.9c0.8-1.4,1.3-3,1.3-4.8c0-5.4-4.4-9.7-9.7-9.7
	c-5.4,0-9.7,4.4-9.7,9.7c0,1.7,0.5,3.4,1.3,4.8L-36.1,24.2z"/>
<g>
	<path class="st21" d="M-26.4-21.9l8.5,8.5c0.4,0.4,0.4,1.1,0,1.6l-8.5,8.5c-0.4,0.4-1.1,0.4-1.6,0l-8.5-8.5c-0.4-0.4-0.4-1.1,0-1.6
		l8.5-8.5C-27.5-22.3-26.8-22.3-26.4-21.9z"/>
	<path class="st0" d="M-26.5-15.4l1.6-1.9l1.7,1.7l1.4-1.6l3.8,3.8c0.4,0.4,0.4,1.1,0,1.6l-8.5,8.5c-0.4,0.4-1.1,0.4-1.6,0l-8.5-8.5
		c-0.4-0.4-0.4-1.1,0-1.6l4.3-4.3l2.1,1.7l1.2-1.4L-26.5-15.4z"/>
</g>
<g>
	<path class="st21" d="M67.6-24.9l8.5,8.5c0.4,0.4,0.4,1.1,0,1.6l-8.5,8.5c-0.4,0.4-1.1,0.4-1.6,0l-8.5-8.5c-0.4-0.4-0.4-1.1,0-1.6
		l8.5-8.5C66.5-25.3,67.2-25.3,67.6-24.9z"/>
	<path class="st0" d="M67.5-18.4l1.6-1.9l1.7,1.7l1.4-1.6l3.8,3.8c0.4,0.4,0.4,1.1,0,1.6l-8.5,8.5c-0.4,0.4-1.1,0.4-1.6,0l-8.5-8.5
		c-0.4-0.4-0.4-1.1,0-1.6l4.3-4.3l2.1,1.7l1.2-1.4L67.5-18.4z"/>
</g>
<path class="st30" d="M-26.8,63.7l-5.8-7.6l-5.2,6.6c-0.2,0.4,0.1,1,0.6,1h4.5"/>
<circle class="st30" cx="-32.5" cy="60.7" r="9"/>
<path class="st30" d="M-26.8,92.7l-8.3-8.5l-4.7,7.6c-0.2,0.4,0.1,1,0.6,1h6.8"/>
<path class="st30" d="M-35.1,98.7c-5,0-9-4-9-9s4-9,9-9s9,4,9,9c0,1.1-0.2,2.1-0.5,3"/>
<path class="st30" d="M-30.4,97.4"/>
<path class="st30" d="M-27.5,94.6"/>
<path class="st30" d="M-26.8,93.2"/>
<path class="st30" d="M-26.6,92.7c0,0.1-0.1,0.2-0.1,0.3"/>
<g>
	<g>
		<path class="st0" d="M35.4,46.1c-5.7,0-10.3,4.6-10.3,10.3s4.6,10.3,10.3,10.3s10.3-4.6,10.3-10.3S41.1,46.1,35.4,46.1z
			 M41.8,59.1l-0.6,0.6c-0.1,0.1-0.2,0.1-0.3,0.1s-0.2,0-0.3-0.1l-5.1-5.1l-5.1,5.1c-0.1,0.1-0.2,0.1-0.3,0.1c-0.1,0-0.2,0-0.3-0.1
			l-0.6-0.6c-0.1-0.1-0.1-0.2-0.1-0.3s0-0.2,0.1-0.3l6-6c0.1-0.1,0.2-0.1,0.3-0.1s0.2,0,0.3,0.1l6,6c0.1,0.1,0.1,0.2,0.1,0.3
			S41.9,59,41.8,59.1z"/>
	</g>
</g>
<path class="st0" d="M37.4-27c5.4,0,9.7,4.3,9.7,9.7s-4.3,9.7-9.7,9.7s-9.7-4.3-9.7-9.7S32-27,37.4-27z M45.6-15.9L39.5-22
	c-0.1-0.1-0.1-0.1-0.2-0.1S39.1-22,39.1-22l-2.3,2.3l-1.1,1.1l-1.8-1.8c-0.1-0.1-0.1-0.1-0.2-0.1s-0.2,0.1-0.2,0.1l-4.2,4.3
	c-0.1,0.1-0.1,0.1-0.1,0.2s0.1,0.2,0.1,0.2l0.4,0.4c0.1,0.1,0.1,0.1,0.2,0.1s0.2-0.1,0.2-0.1l3.6-3.6l1.1,1.1l-1.9,1.9
	c-0.1,0.1-0.1,0.1-0.1,0.2s0.1,0.2,0.1,0.2l0.4,0.4c0.1,0.1,0.1,0.1,0.2,0.1s0.2-0.1,0.2-0.1l1.9-1.9l1.6,1.6
	c0.1,0.1,0.1,0.1,0.2,0.1s0.2-0.1,0.2-0.1l0.4-0.4c0.1-0.1,0.1-0.1,0.1-0.2c-0.1-0.1-0.1-0.2-0.2-0.2l-1.6-1.6l2.7-2.7l5.4,5.4
	c0.1,0.1,0.1,0.1,0.2,0.1s0.2-0.1,0.2-0.1l0.4-0.4c0.1-0.1,0.1-0.1,0.1-0.2C45.7-15.8,45.7-15.9,45.6-15.9z"/>
<g>
	<path class="st23" d="M54.3,84.6c-0.9-1.5-2.1-2.7-3.6-3.6s-3.2-1.3-5-1.3s-3.5,0.4-5,1.3s-2.7,2.1-3.6,3.6c-0.9,1.5-1.3,3.2-1.3,5
		s0.4,3.5,1.3,5c0.9,1.5,2.1,2.7,3.6,3.6s3.2,1.3,5,1.3s3.5-0.4,5-1.3s2.7-2.1,3.6-3.6c0.9-1.5,1.3-3.2,1.3-5
		C55.7,87.9,55.2,86.2,54.3,84.6z M45.7,96.8c-1.3,0-2.5-0.3-3.6-1c-1.1-0.6-1.9-1.5-2.6-2.6c-0.6-1.1-1-2.3-1-3.6
		c0-1.3,0.3-2.5,1-3.6c0.6-1.1,1.5-1.9,2.6-2.6c1.1-0.6,2.3-1,3.6-1V96.8L45.7,96.8z"/>
</g>
<g>
	
		<ellipse transform="matrix(0.7224 -0.6915 0.6915 0.7224 -75.3544 -50.179)" class="st25" cx="-100.2" cy="68.8" rx="11.3" ry="10.4"/>
	<g>
		<path class="st0" d="M-93.9,70.4l-5.8-6.4c-0.1-0.1-0.2-0.1-0.3-0.1c-0.1,0-0.2,0-0.3,0.1l-6.9,6.4c-0.1,0.1-0.1,0.2-0.1,0.3
			s0,0.2,0.1,0.3l0.6,0.7c0.1,0.1,0.2,0.1,0.3,0.1s0.2,0,0.3-0.1l5.8-5.4l4.9,5.4c0.1,0.1,0.2,0.1,0.3,0.1c0.1,0,0.2,0,0.3-0.1
			l0.8-0.7c0.1-0.1,0.1-0.2,0.1-0.3S-93.6,70.5-93.9,70.4z"/>
	</g>
</g>
<g>
	<path class="st0" d="M26.1,18.3l-8.8-8.8c-0.1-0.1-0.2-0.2-0.5-0.2c-0.2,0-0.4,0.1-0.5,0.2l-8.8,8.8c-0.1,0.1-0.2,0.2-0.2,0.5
		c0,0.1,0.1,0.4,0.2,0.5l0.9,0.9c0.1,0.1,0.2,0.2,0.5,0.2s0.4-0.1,0.5-0.2l7.4-7.4l7.4,7.4c0.1,0.1,0.2,0.2,0.5,0.2
		c0.1,0,0.4-0.1,0.5-0.2l0.9-0.9c0.1-0.1,0.2-0.2,0.2-0.5C26.3,18.6,26.2,18.4,26.1,18.3z"/>
</g>
<circle class="st31" cx="16.8" cy="16" r="13.7"/>
</svg>
