<?xml version="1.0" encoding="utf-8"?>
<!-- Generator: Adobe Illustrator 22.1.0, SVG Export Plug-In . SVG Version: 6.00 Build 0)  -->
<svg version="1.1" id="Layer_1" xmlns="http://www.w3.org/2000/svg" xmlns:xlink="http://www.w3.org/1999/xlink" x="0px" y="0px"
	 viewBox="0 0 512 512" style="enable-background:new 0 0 512 512;" xml:space="preserve">
<style type="text/css">
	.st0{fill:#F9B54C;}
	.st1{fill:#F4A200;}
	.st2{fill:#E9EFF4;}
	.st3{fill:#CFDBE6;}
	.st4{fill:#D0D1D3;}
	.st5{fill:#A6A8AA;}
	.st6{fill:#324A5E;}
	.st7{fill:#2B3B4E;}
</style>
<circle class="st0" cx="256" cy="256" r="256"/>
<path class="st1" d="M512,256L369.8,113.8L257.2,290.5L142.2,398.2L256,512C397.4,512,512,397.4,512,256z"/>
<polygon class="st2" points="193.7,113.8 142.2,165.2 142.2,398.2 369.8,398.2 369.8,113.8 "/>
<g>
	<rect x="255.4" y="113.8" class="st3" width="114.3" height="284.4"/>
	<polygon class="st3" points="193.7,165.2 193.7,113.8 142.2,165.2 	"/>
</g>
<g>
	<rect x="170.7" y="196.5" class="st4" width="170.7" height="5.2"/>
	<rect x="170.7" y="225" class="st4" width="170.7" height="5.2"/>
	<rect x="170.7" y="253.4" class="st4" width="170.7" height="5.2"/>
	<rect x="170.7" y="281.9" class="st4" width="170.7" height="5.2"/>
	<rect x="170.7" y="310.3" class="st4" width="170.7" height="5.2"/>
</g>
<g>
	<rect x="255.4" y="196.5" class="st5" width="85.9" height="5.2"/>
	<rect x="255.4" y="225" class="st5" width="85.9" height="5.2"/>
	<rect x="255.4" y="253.4" class="st5" width="85.9" height="5.2"/>
	<rect x="255.4" y="281.9" class="st5" width="85.9" height="5.2"/>
	<rect x="255.4" y="310.3" class="st5" width="85.9" height="5.2"/>
</g>
<path class="st6" d="M304.1,334.2l-24-15.3l99.7-155.7c4.2-6.6,13-8.5,19.6-4.3l0,0c6.6,4.2,8.5,13,4.3,19.6L304.1,334.2z"/>
<path class="st7" d="M399.4,158.8L399.4,158.8c-0.1,0-0.1-0.1-0.2-0.1L292,326.5l12.1,7.7l99.7-155.7
	C408,171.9,406,163.1,399.4,158.8z"/>
<polygon class="st0" points="276.7,350.5 304.1,334.2 280.1,318.9 "/>
<polygon class="st1" points="276.8,350.2 276.7,350.5 304.1,334.2 292,326.5 "/>
</svg>
